<svg xmlns="http://www.w3.org/2000/svg" viewBox="0 0 1037.54 595.28"><defs><style>.cls-1{fill:#e6e7e8;opacity:0.52;}.cls-2{fill:#83bada;opacity:0.5;}.cls-10,.cls-3,.cls-4,.cls-5,.cls-6,.cls-7,.cls-9{fill:none;}.cls-3,.cls-4,.cls-5,.cls-6,.cls-7{stroke:#e6e7e8;stroke-linecap:round;stroke-linejoin:round;}.cls-3{stroke-width:1.71px;}.cls-4{stroke-width:2.83px;}.cls-5{stroke-width:2.13px;}.cls-6{stroke-width:3.41px;}.cls-7{stroke-width:0.84px;}.cls-8{fill:#74b96b;opacity:0.22;}.cls-10,.cls-9{stroke:#d1d3d4;stroke-miterlimit:10;}.cls-9{stroke-width:0.11px;}.cls-10{stroke-width:0.12px;}.cls-11,.cls-16{opacity:0.58;font-size:8px;font-family:Raleway-Bold, Raleway;font-weight:700;}.cls-11{fill:#282560;}.cls-12{letter-spacing:-0.03em;}.cls-13{letter-spacing:0em;}.cls-14{letter-spacing:-0.02em;}.cls-15{letter-spacing:-0.02em;}.cls-16{fill:#414042;}.cls-17{letter-spacing:-0.01em;}.cls-18{letter-spacing:-0.01em;}.cls-19{letter-spacing:-0.01em;}.cls-20{letter-spacing:-0.01em;}.cls-21{letter-spacing:-0.03em;}.cls-22{letter-spacing:-0.01em;}.cls-23{letter-spacing:-0.05em;}.cls-24{letter-spacing:-0.01em;}.cls-25{letter-spacing:0em;}.cls-26{font-size:10.97px;}.cls-27{letter-spacing:-0.03em;}.cls-28{letter-spacing:-0.03em;}.cls-29{letter-spacing:-0.02em;}.cls-30{letter-spacing:-0.11em;}.cls-31{fill:#f1657a;opacity:0.31;}</style></defs><title>Artboard 1</title><g id="Base_Map_1" data-name="Base Map 1"><rect id="Gray_Background" data-name="Gray Background" class="cls-1" x="255.78" width="781.14" height="595.28"/><g id="River"><path class="cls-2" d="M644.69,423.34c5.33-1.69,28.57-15.88,28.57-15.88s23.45-11.52,32.72-14.18,30.19-12.36,39.46-21.77,34.12-31.22,40.72-37.66,15.31-17.67,19.66-28.06,3.23-10.67,11.94-16.71,14.74-13.2,17.83-26.54,12.36-16,13.9-20.22,1.69-17,6.18-19.38,18-13.91,18.54-19.1a66,66,0,0,1,1.83-9.69s8.87-28,8.87-35-1.71-43.51-2-46.83-1.26-30.5-3.48-37.61-9.95-26.39-12.48-32.55-7.43-25.92-8.06-31S853.05,0,853.05,0h17.66s20.54,31.61,23.07,38.09S902.47,56.42,905,68.9,909.58,97,909.58,97s2.22,20.7-3,39.66a361.44,361.44,0,0,1-12.17,36L876,214s-1.87,3.92-4.26,8.14-12.28,9.69-16.49,21.49-11.09,18.54-12.92,22.19-6.05,18.72-15.88,27.29-17.54,33.65-20.91,39.27-14.6,14.4-32,29-54.83,36.42-72.11,43.87-12.47,23.32-27.17,27.11l-28.76,13.15s-27.07,14.66-39.21,20.37S573,483.05,565.47,489s-17.32,11.55-29.86,26.87-38.42,57.53-38.42,57.53l-8.95,21H459S481.87,544,489.43,534s47.77-51.12,71.66-66.26S644.69,423.34,644.69,423.34Z"/></g><g id="Land_Division" data-name="Land Division"><polyline class="cls-3" points="665.17 370.92 677.06 351.73 723.73 288.45 753.85 244.46 754.59 242.5 744.07 174.23"/><polyline class="cls-3" points="721.74 292.41 738.47 304.86 775.28 332.26"/><path class="cls-4" d="M680.85,373.11l-.14,1a16.05,16.05,0,0,1-9.51,12.55l-101,43.79s-21,9.7-44.24,30S480.92,498.15,474.35,508s-28.16,51.78-28.16,51.78l-16.92,34.73"/><path class="cls-3" d="M716.22,333.83l-16.51,19.84a5.78,5.78,0,0,1-7.91,1.09l-11-8"/><polyline class="cls-3" points="703.04 317.23 677.06 314.16 318.75 273.7"/><line class="cls-3" x1="716.22" y1="333.83" x2="738.47" y2="304.86"/><line class="cls-3" x1="719.91" y1="329.19" x2="703.05" y2="317.23"/><line class="cls-3" x1="601.25" y1="156.72" x2="576.78" y2="359.94"/><polyline class="cls-3" points="432.58 243.19 730.83 278.09 778.44 284.08"/><line class="cls-5" x1="671.15" y1="191.74" x2="661.58" y2="269.02"/><polyline class="cls-6" points="807.74 277.3 616.26 158.42 404.99 134.58 347.51 125.34 257.44 105.58"/><line class="cls-5" x1="698.03" y1="274.08" x2="705.52" y2="213.27"/><line class="cls-5" x1="705.52" y1="170.64" x2="712.66" y2="216.79"/><line class="cls-5" x1="636.04" y1="170.7" x2="625.14" y2="265.18"/><line class="cls-3" x1="673.61" y1="193.28" x2="671.15" y2="167.45"/><line class="cls-7" x1="689.12" y1="204.08" x2="681.8" y2="272.58"/><line class="cls-7" x1="654.76" y1="183.55" x2="644.96" y2="268.04"/><line class="cls-7" x1="619.94" y1="163.26" x2="613.93" y2="214.56"/><line class="cls-7" x1="565.5" y1="154.47" x2="557.55" y2="207.17"/><line class="cls-7" x1="723.08" y1="226.45" x2="717.74" y2="276.55"/><line class="cls-7" x1="385.89" y1="260.01" x2="585.89" y2="284.32"/><line class="cls-7" x1="793.4" y1="251.22" x2="820.53" y2="246.68"/><line class="cls-7" x1="813.45" y1="247.87" x2="803.15" y2="187.56"/><line class="cls-7" x1="782.75" y1="185.01" x2="828.09" y2="190.35"/><path class="cls-7" d="M757,281.38l16.21-25.88a11.77,11.77,0,0,0,2.7-9.17c-.67-5.69-11.48-66.52-11.48-66.52l16.39-5"/><line class="cls-7" x1="555.81" y1="405.17" x2="601.02" y2="364.78"/><line class="cls-7" x1="688.86" y1="169.1" x2="693.99" y2="205.81"/><line class="cls-7" x1="724.59" y1="172.42" x2="735.09" y2="231.41"/><line class="cls-7" x1="425.14" y1="362.26" x2="334.87" y2="444.03"/><path class="cls-7" d="M493.9,349.59s0,4.37-8.31,12-83.76,73.56-83.76,73.56l-39.26,38.26"/><line class="cls-7" x1="374.56" y1="487.82" x2="348.53" y2="458.63"/><line class="cls-7" x1="529.12" y1="374.5" x2="429.27" y2="466.44"/><line class="cls-3" x1="573.2" y1="207.47" x2="581.47" y2="154.49"/><path class="cls-5" d="M561,357.92s3.7,7.4,0,12.81-18,18.87-18,18.87l32.51,38.61"/><path class="cls-5" d="M573.84,360.82s-8.19,6.87-19.57,17.64"/><path class="cls-5" d="M657.2,392.78l34,37.51,28.11,29s42.18,36.83,77.27,23.52,50.74-29.47,72.38-54.91,71.81-70.15,86.31-79.9,39.24-40.42,50.18-77,14.5-43.76,15.69-60.16-4.76-113.19-4.76-113.19L1012.83,0"/><polyline class="cls-7" points="818.38 149.63 744.07 174.23 671.15 167.45"/><polyline class="cls-3" points="783.22 47.4 743.76 65.57 709.09 76.81 744.07 174.23"/><path class="cls-6" d="M257.44,323.21s39.69,3.22,61.42,5.34,222.78,26.9,222.78,26.9L675.8,372.56,692,374.32a31.23,31.23,0,0,0,15.85-2.41s11.27-5.87,14.52-10.19l52.13-72s17.84-23.48,18.48-39.29S778.44,163,778.44,163L743.76,65.57,697.88,0"/><line class="cls-7" x1="455.72" y1="496" x2="556.09" y2="405.17"/><polyline class="cls-5" points="491.85 435.12 542.99 389.6 507.8 351.29"/><polyline class="cls-5" points="416.15 340.09 412.21 348.14 519.93 465.8"/><line class="cls-5" x1="330.91" y1="419.87" x2="412.21" y2="348.14"/><line class="cls-5" x1="471.15" y1="513.24" x2="362.57" y2="391.93"/><line class="cls-5" x1="467.84" y1="346.39" x2="339.24" y2="467.74"/><line class="cls-5" x1="522.77" y1="353.13" x2="347.54" y2="512.79"/><line class="cls-5" x1="355.76" y1="557.38" x2="409.9" y2="455.97"/><polyline class="cls-5" points="380.02 594.39 442.74 481.49 491.85 435.12"/><line class="cls-5" x1="362.57" y1="594.39" x2="313.51" y2="328.04"/><path class="cls-5" d="M272.6,324.46l27.1,133.78a33.89,33.89,0,0,1-3.08,22.23l-11.27,21.88a48.19,48.19,0,0,0-4.59,30.54l11,61.62"/><path class="cls-5" d="M342.15,594.39,281,289.12s-7.54-31.92-23.51-56.93"/><polyline class="cls-7" points="389.02 236.45 378.61 314.78 336.86 310.46 346.59 229.01"/><polyline class="cls-5" points="355.68 332.79 368.51 231.55 433.16 238.54"/><line class="cls-7" x1="412.35" y1="238.54" x2="407.47" y2="282.95"/><polyline class="cls-5" points="420.55 340.62 438.83 192.63 541.92 205 667.3 219.81"/><line class="cls-5" x1="347.51" y1="125.34" x2="329.63" y2="274.93"/><line class="cls-5" x1="368.51" y1="231.55" x2="335.27" y2="227.7"/><line class="cls-3" x1="508.42" y1="146.25" x2="497.7" y2="250.81"/><line class="cls-7" x1="455.72" y1="496" x2="408.43" y2="585.24"/><path class="cls-5" d="M656.49,594.51l132.34-69.89A18.37,18.37,0,0,0,798.29,505l-4-21.15"/><path class="cls-5" d="M936.72,362.69,1004.33,388a46.47,46.47,0,0,0,8.84,2.35l23.74,3.86"/><path class="cls-5" d="M951.53,594.69l9.62-84a47.09,47.09,0,0,0-.76-15.3l-1.79-8.25a47,47,0,0,1-.53-16.92L972.4,376"/><path class="cls-5" d="M1036.91,520.34l-55.78-6.57a.66.66,0,0,1-.56-.5h0a11.64,11.64,0,0,0-9-8.54l-9.64-2"/><path class="cls-8" d="M974.59,380.17,961.13,474.6l3.27,24.2s14.92,1.64,18.56,10.74l54,6.55V398.55s-19.56-2.37-30.3-5.83S974.59,380.17,974.59,380.17Z"/><path class="cls-8" d="M1036.91,523.16l-57.09-5.43s-2.07-4.82-3.19-6.63-12.33-5-12.33-5l-9.63,88.59,82.87-.19Z"/><path class="cls-3" d="M631.6,167.94s6-27.09,3.59-43.65l-28.13-14.62-56.9-3.06-4.22,43.87L534.09,255.07"/><polyline class="cls-7" points="515.33 252.87 527.06 148.35 527.75 140.57 513.66 112.89 515.29 86.59 551.55 89.63"/><line class="cls-3" x1="497.44" y1="350.02" x2="508.42" y2="252.06"/><path class="cls-7" d="M293.35,226.23s10.07-3.87,18.8-3.34S335,224.54,335,224.54"/><path class="cls-3" d="M550.16,106.61l1.39-17c2.79-12.95,19.55-19.84,19.55-19.84,4.62,9.72,8.87,10.93,18,11.42s30.12-4.62,30.12-4.62,1.86-16.6,0-19.93-4.85-7.46-4.85-7.46l-27.91-1.84S583,57.27,581.7,59,574,67.19,574,67.19l-2.25,2.36"/><polyline class="cls-3" points="603.18 0 615.33 27.66 660.16 32.29 699.76 2.69"/><polyline class="cls-3" points="635.19 124.29 624.26 53.85 615.33 27.66"/><path class="cls-7" d="M347.51,123.38l4.87-15,4.36-50.55s8.56-12.73,15.59-18"/><path class="cls-3" d="M737,343.89l13.82,9,2.93-2.43,21.52-18.22,15.18-17.79a45.8,45.8,0,0,0,6.95-11c3.83-8.58,10.66-24.19,13.66-33.1,0,0,10.64-24.19,12-32.42S828.31,188,828.31,188a73.91,73.91,0,0,0,0-10.14L797.23,89.42l-15-45.05L754.09,0"/></g><g id="House"><polygon class="cls-1" points="752.9 327.59 760.38 333.65 761.23 332.57 765 335.36 770.37 328.62 758.33 320.11 752.9 327.59"/><polygon class="cls-1" points="751.97 328.47 749.58 331.75 759.46 339.18 761.82 335.86 751.97 328.47"/><polygon class="cls-1" points="749.41 332.06 746.72 335.71 756.55 343.08 759.18 339.42 749.41 332.06"/><polygon class="cls-1" points="747.17 336.7 746.12 337.98 752.4 343.24 753.73 341.56 747.34 336.44 747.17 336.7"/><polygon class="cls-1" points="745.8 338.43 743.5 341.29 749.83 346.09 752.12 343.51 745.8 338.43"/><polygon class="cls-1" points="743.5 341.99 742.43 343.47 741.77 343.08 740.07 345.27 742.26 346.88 741.89 347.35 743.56 348.53 744.9 346.81 746.5 348.03 748.35 345.56 743.5 341.99"/><polygon class="cls-1" points="739.68 345.74 740.95 346.7 739.97 347.93 743.5 350.4 741.46 353.09 736.6 349.74 739.68 345.74"/><polygon class="cls-1" points="736.38 350.59 732.88 355.23 740.13 360.89 743.77 355.85 736.38 350.59"/><polygon class="cls-1" points="732.19 356.37 729.86 359.42 738.52 365.69 740.75 362.54 732.19 356.37"/><polygon class="cls-1" points="729.62 359.95 727.74 362.41 733.26 366.7 735.31 363.78 729.86 359.71 729.62 359.95"/><polygon class="cls-1" points="727.58 362.64 726.27 364.22 731.43 368.24 732.63 366.53 727.58 362.64"/><polygon class="cls-1" points="726.21 364.71 724.4 367.02 729.61 371.06 731.4 368.65 726.21 364.71"/><polygon class="cls-1" points="726.36 369 724.8 370.18 723.81 368.68 719.49 370.81 721.18 375.26 722.69 374.75 723.61 376.97 726.01 375.66 729.65 372.33 728.64 370.94 726.36 369"/><polygon class="cls-1" points="718.49 371.73 713.08 374.16 715.54 380.14 720.87 377.72 718.49 371.73"/><polygon class="cls-1" points="679.44 366.45 676.85 369.43 685.39 370.54 690.11 364.71 687.05 362.3 683.48 363.21 681.68 364.67 682.2 365.12 680.49 366.93 679.67 366.21 679.44 366.45"/><polygon class="cls-1" points="691.06 364.93 686.54 370.73 690.27 371.18 693.67 366.68 691.06 364.93"/><polygon class="cls-1" points="701.36 369.4 702.59 372.63 707 370.79 705.64 367.73 701.36 369.4"/><polygon class="cls-1" points="705.52 365.14 707.55 369.88 711.36 367.99 708.05 364.12 705.52 365.14"/><polygon class="cls-1" points="704.16 360.22 713.05 366.86 716.78 361.45 711.9 357.96 711.27 358.73 707.2 355.89 704.16 360.22"/><polygon class="cls-1" points="714.1 350.59 712.17 353 715.92 356.03 714.53 357.69 718.9 361.2 722.1 356.73 714.1 350.59"/><polygon class="cls-1" points="716.44 346.24 714.2 349.17 716.44 350.98 715.84 351.63 722.47 356.64 726.27 351.8 721.11 347.93 720.24 348.98 716.44 346.24"/><polygon class="cls-1" points="722.51 345.7 721.14 347.5 726.39 351.44 727.9 349.36 722.51 345.7"/><polygon class="cls-1" points="721.75 339.38 719.8 341.71 728.51 348.4 730.32 345.74 721.75 339.38"/><polygon class="cls-1" points="723.62 337.76 722.4 339.27 730.51 345.38 731.64 343.89 723.62 337.76"/><polygon class="cls-1" points="723.13 331.07 720.67 334.19 730.12 341.33 729.64 341.99 731.64 343.61 734.04 340.22 732.17 338.82 732.86 337.91 723.13 331.07"/><polygon class="cls-1" points="734.62 323.69 732.68 326.11 740.06 331.83 741.3 331.83 747.52 323.94 744.55 321.42 742.48 320.94 740.34 319.36 738.32 321.98 741.45 324.47 739.96 326.36 737.27 324.45 736.66 325.2 734.62 323.69"/><polygon class="cls-1" points="739.13 312.21 736.8 315.46 747.68 323.46 749.95 320.24 739.13 312.21"/><polygon class="cls-1" points="747.3 313.79 745.43 316.13 750.19 319.75 751.91 317.27 747.3 313.79"/><polygon class="cls-1" points="714.3 306.83 712.76 308.96 715.2 310.74 709.23 318.66 719.76 326.72 727.64 316.13 714.3 306.83"/><polygon class="cls-1" points="719.37 303.54 717.35 306.38 722.94 310.31 725.04 307.37 719.37 303.54"/><polygon class="cls-1" points="717.88 300.86 720.35 302.86 726.1 295.29 723.69 293.58 717.88 300.86"/><polygon class="cls-1" points="726.85 296.02 723.1 300.84 726.28 303.43 730.23 298.55 726.85 296.02"/><polygon class="cls-1" points="730.23 301.4 726.66 306.37 728 307.46 727.54 307.99 731.35 310.79 735.64 305.27 730.23 301.4"/><polygon class="cls-1" points="688.33 344.2 686.23 346.92 691.03 350.38 693.06 347.91 692.41 347.41 692.98 346.72 691.35 345.45 690.71 346.13 688.33 344.2"/><polygon class="cls-1" points="690.98 340.44 688.9 343.26 693.77 346.97 694.32 346.22 695.73 347.21 697.33 345.08 690.98 340.44"/><polygon class="cls-1" points="681.22 352.27 675.63 359.44 675.63 366.04 684.73 354.71 681.22 352.27"/><polygon class="cls-1" points="699.35 330.08 695.89 334.95 697.85 336.3 698.19 335.89 698.68 336.3 697.85 337.32 700.97 339.72 702.9 337.27 702.18 336.61 702.81 335.88 704.36 337.08 705.24 336.18 703.49 334.77 704.87 332.96 700.92 330.04 700.44 330.78 699.35 330.08"/><polygon class="cls-1" points="703.22 337.69 701.41 339.95 702.91 341.05 704.64 338.79 703.22 337.69"/><polygon class="cls-1" points="704.54 323.35 701.22 327.99 704.07 330.04 707.44 325.57 704.54 323.35"/><polygon class="cls-1" points="705.35 320.07 703.63 322.38 707.76 325.5 709.55 323.01 705.35 320.07"/><polygon class="cls-1" points="780.75 326.21 779.15 328.44 773.01 323.86 774.75 321.55 780.75 326.21"/><polygon class="cls-1" points="774.63 316.13 772.92 318.54 779.12 323.37 780.84 321.04 774.63 316.13"/><polygon class="cls-1" points="774.23 321.08 771.25 318.62 769.22 321.04 772.52 323.52 774.42 321.23 774.23 321.08"/><polygon class="cls-1" points="770.74 318.9 768.88 321.33 760.51 314.99 762.48 312.34 770.74 318.9"/><polygon class="cls-1" points="765.45 308.87 763.61 311.35 769.97 316.12 771 314.88 771 313.37 765.45 308.87"/><polygon class="cls-1" points="766.76 308.64 773.23 313.5 774.53 311.82 771.99 309.99 772.65 309.14 774.91 310.84 776.01 309.53 774.19 308.08 776.01 305.7 770.62 301.54 767.86 304.93 769.05 305.72 766.76 308.64"/><polygon class="cls-1" points="774.64 298.46 771.81 301.9 776.57 305.53 779.39 301.86 774.64 298.46"/><polygon class="cls-1" points="778.02 292.25 774.97 296.92 778.02 299.13 777.52 299.88 779.26 301.14 780.15 299.94 778.43 298.84 778.95 298.18 783.9 301.99 786.39 298.66 778.02 292.25"/><polygon class="cls-1" points="786.1 284.71 783.72 287.79 785.5 289.08 783.12 292.42 787.49 295.76 789.94 292.56 790.52 290.35 790.52 289.15 791.14 288.17 786.1 284.71"/><polygon class="cls-1" points="689.44 320.07 686.28 324.16 689.92 327.06 691.52 325.16 690.68 324.39 691.52 323.07 689.63 321.6 690.41 320.7 689.44 320.07"/><polygon class="cls-1" points="688.66 327.81 685.18 332.73 679.24 328.9 680 326.1 681.67 326.38 681.53 327.51 683.06 325.65 684.89 327.01 687.41 326.8 688.66 327.81"/><polygon class="cls-1" points="682.16 299.58 680.7 309.7 684.29 310.31 685.91 300.1 682.16 299.58"/><polygon class="cls-1" points="679.78 303.5 679.78 308.47 678.47 308.47 678.47 309.01 675.94 308.8 676.1 307.01 675.74 306.99 675.9 305 676.53 305.04 676.61 303.95 678.09 304.11 678.09 303.35 679.78 303.5"/><polygon class="cls-1" points="681.4 299.06 680.59 304.51 678.34 304.58 678.34 303.21 677.76 303.17 677.76 299.4 679.88 298.86 681.4 299.06"/><polygon class="cls-1" points="687.53 311.95 684.72 311.6 685.89 303.16 687.63 303.28 687.55 306.09 691.12 306.42 690.65 310.87 687.73 310.62 687.53 311.95"/><polygon class="cls-1" points="692.25 300.68 691.75 304.46 694.55 304.69 695.08 300.99 692.25 300.68"/><polygon class="cls-1" points="694.97 306.1 694.68 310.92 699.42 311.31 699.88 308.18 698.26 306.29 694.97 306.1"/><polygon class="cls-1" points="698.4 299.6 696.98 301.27 701.27 304.3 704.4 300.07 701.59 297.96 700.76 298.96 698.4 299.6"/><polygon class="cls-1" points="708.73 291.64 707.86 292.8 711.82 295.85 712.65 294.7 708.73 291.64"/><polygon class="cls-1" points="713.43 287.42 711.67 289.72 715.84 292.75 717.64 290.28 713.43 287.42"/><polygon class="cls-1" points="728.68 287.13 727.09 289.02 730.72 291.87 732.77 289.14 730.12 287.13 728.68 287.13"/><polygon class="cls-1" points="735.34 290.36 732.88 293.42 734.4 294.63 737.3 291.2 737.3 289.4 736.66 288.82 737.72 287.63 737.33 287.13 733.93 287.13 732.88 288.52 735.34 290.36"/><polygon class="cls-1" points="744.55 296.25 741.81 299.79 744.36 301.85 747.17 298.12 744.55 296.25"/><polygon class="cls-1" points="747.84 300.05 745.68 302.76 753.87 308.87 757.37 304.46 752.05 300.42 750.65 302.02 747.84 300.05"/><polygon class="cls-1" points="757.66 304.73 754.22 309.13 756.37 310.81 757.93 310.5 760.48 307.02 757.66 304.73"/><polygon class="cls-1" points="754.42 297.12 752.33 299.9 754.67 301.64 754.36 302 758.91 305.35 759.85 304.15 757.37 302.36 758.84 300.48 754.42 297.12"/><polygon class="cls-1" points="753.96 290.24 750.85 294.2 756.87 298.64 759.85 294.9 753.96 290.24"/><polygon class="cls-1" points="762.84 292.25 761.19 294.44 765.62 297.79 767.31 295.44 762.84 292.25"/><polygon class="cls-1" points="759.11 289.33 757.9 290.75 760.62 292.95 761.92 291.4 759.11 289.33"/><polygon class="cls-1" points="762.29 286.61 760.5 288.76 763.84 291.4 765.64 289.09 762.29 286.61"/><polygon class="cls-1" points="766.33 289.51 764.62 291.73 768.02 294.33 769.75 292.06 766.33 289.51"/><polygon class="cls-1" points="768.45 288.1 767.31 289.55 770.17 291.61 771.22 290.13 768.45 288.1"/><polygon class="cls-1" points="772.53 285.79 773.57 286.59 771.5 289.25 767.15 285.79 772.53 285.79"/><polygon class="cls-1" points="705.15 341.4 706.79 342.73 708.82 340.2 707.08 338.91 705.15 341.4"/><polygon class="cls-1" points="709.51 335.63 711.21 336.94 712.62 335.11 710.65 333.7 709.34 335.45 709.51 335.63"/><polygon class="cls-1" points="694.24 347.52 692.96 349.18 694.81 350.51 696.01 348.87 694.24 347.52"/><polygon class="cls-1" points="709.59 345.57 705.02 351.27 707.3 352.92 711.71 347.21 709.59 345.57"/><polygon class="cls-1" points="716.17 342.94 714.95 344.33 713.27 342.94 714.46 341.59 716.17 342.94"/><polygon class="cls-1" points="729.13 313.63 728.22 314.75 725.74 312.75 726.76 311.44 729.3 313.38 729.13 313.63"/><polygon class="cls-1" points="706.01 281.14 705.64 287.61 708.72 287.8 709.08 281.14 706.01 281.14"/><polygon class="cls-1" points="682.85 279.17 682.85 282.63 693.83 282.8 693.83 277.65 682.74 277.65 682.85 279.17"/><polygon class="cls-1" points="662.14 301.34 661.8 308.12 664.83 308.12 665.04 300.53 662.14 300.53 662.14 301.34"/><polygon class="cls-1" points="660.48 339.69 652.9 349.99 659.44 354.56 652.27 365.09 664.57 366.42 675.63 350.05 660.48 339.69"/><polygon class="cls-1" points="653.04 340.95 652.69 343.79 645.75 343.1 645.75 340.03 653.04 340.95"/><polygon class="cls-1" points="642.1 342.55 638.63 350.96 637.76 360.62 641.17 360.62 641.75 351.08 644.87 344.43 642.1 342.55"/><polygon class="cls-1" points="572.8 392.62 572.15 402.15 588.8 402.99 589.52 393.4 572.8 392.62"/><polygon class="cls-1" points="572.35 403.48 571.7 413 588.36 413.85 589.07 404.25 572.35 403.48"/><polygon class="cls-1" points="556.21 232.29 554.42 250.71 542.91 249.09 542.91 229.9 556.21 232.29"/><polygon class="cls-1" points="569.85 235.66 569.44 243.89 577.86 244.4 578.31 235.66 569.85 235.66"/><polygon class="cls-1" points="557.56 245.76 557.27 251.61 563.63 251.89 563.97 246.33 557.56 245.76"/><polygon class="cls-1" points="574.21 248.59 574.21 253.42 582.73 253.64 582.73 248.93 574.21 248.59"/><polygon class="cls-1" points="599 220.08 597.49 233.38 601.71 233.69 603.35 220.71 599 220.08"/><polygon class="cls-1" points="597.39 242.7 596.5 248.63 605.69 249.63 606.4 243.65 597.39 242.7"/><polygon class="cls-1" points="597.89 234.47 597.89 237.72 605.01 238.22 605.01 234.69 597.89 234.47"/><polygon class="cls-1" points="611.32 216.79 611.01 222.25 626.95 223.06 627.29 220.21 616.22 219.3 616.32 216.79 611.32 216.79"/><polygon class="cls-1" points="611.35 223.06 609.67 242.86 623.34 244.29 625.84 223.83 622.12 223.68 620.64 233.68 614.41 233.01 615.18 223.06 611.35 223.06"/><polygon class="cls-1" points="610.72 222.04 610.49 226.89 602.91 226.02 603.53 220.92 610.72 222.04"/><polygon class="cls-1" points="730.59 247.23 724.94 255.37 736.8 263.51 742.63 254.65 730.59 247.23"/><polygon class="cls-1" points="751.03 256.1 749.22 258.92 762.44 266.95 764.25 264.04 751.03 256.1"/><polygon class="cls-1" points="752.73 271.42 749.89 275.33 754.34 277.69 756.74 274.32 752.73 271.42"/><polygon class="cls-1" points="779.34 265.37 777.34 268.32 782.7 271.78 784.54 268.76 779.34 265.37"/><polygon class="cls-1" points="764.74 271.02 761.94 275.42 764.53 276.87 767.31 272.54 764.74 271.02"/><polygon class="cls-1" points="781.71 261.36 779.89 264.4 785.02 267.47 786.75 264.52 781.71 261.36"/><polygon class="cls-1" points="776.16 258.21 774.38 261.07 771.55 259.19 773.63 255.94 776.42 257.84 776.16 258.21"/><polygon class="cls-1" points="793.73 273.39 790.4 278.7 793.23 280.87 793.32 283.01 796.64 283.01 796.87 278.7 798.19 275.9 793.73 273.39"/><polygon class="cls-1" points="723.08 265.48 723.08 272.36 719.64 272.36 720.53 265.48 723.08 265.48"/><polygon class="cls-1" points="725.89 266.46 723.99 268.91 729.62 272.88 731.73 269.9 725.89 266.46"/><polygon class="cls-1" points="729.53 246.36 728.42 248.07 723.23 244.62 724.39 242.84 729.53 246.36"/><polygon class="cls-1" points="723.23 247.96 722.17 249.37 726.02 251.73 726.87 250.37 723.23 247.96"/><polygon class="cls-1" points="801.1 297.12 799.75 300.93 790.82 295.02 792.76 291.92 801.1 297.12"/></g><g id="GREEN"><path class="cls-8" d="M658.79,376.09l-.72,11.55a1,1,0,0,1-.64.89L634,398.08a1,1,0,0,1-1.31-.49l-6.87-13.8a1,1,0,0,0-1.25-.52L597,392.63a1,1,0,0,1-1.35-1.09h0a1,1,0,0,0-1-1.14H581.42a1,1,0,0,1-.68-1.79L604.08,368a1,1,0,0,1,.82-.25l53,7.28A1,1,0,0,1,658.79,376.09Z"/><path class="cls-8" d="M609.07,397.39,595,403.18a1.45,1.45,0,0,0-.89,1.2l-.62,7.1a1.43,1.43,0,0,0,2,1.45l16.83-7.07a1.42,1.42,0,0,0,.79-1.8L611,398.24A1.43,1.43,0,0,0,609.07,397.39Z"/><path class="cls-8" d="M738.28,291.34l-4.1,5.8a.78.78,0,0,0,.16,1.07l4.12,3.11a.78.78,0,0,0,1.08-.13l4.7-5.75a.78.78,0,0,0-.17-1.14l-4.72-3.16A.79.79,0,0,0,738.28,291.34Z"/><path class="cls-8" d="M697.19,408.39c9.23-2.71,40.14-13.67,52.6-24.46s51.78-40.76,57.43-49.17,12.2-32.12,22.37-43.09,13.57-23.86,18.54-30.41,12.43-25.65,19.21-32.26,8.48-10.48,8.48-10.48,14.51-28.14,18.94-41.65,18.4-46.35,17.93-61.72-4.42-46.59-8.85-61.73S872.63,0,872.63,0h137l5.53,168.89s4.41,31.69,1.3,43.56-20.35,65.75-20.35,65.75-13.84,36-37.66,58.61-61.16,53.33-61.16,53.33S851,434.76,843.56,445.61,815.47,473.34,795.39,478s-33.43.89-40.71-1.6-38.46-26.09-38.46-26.09l-27.64-29S688,411.11,697.19,408.39Z"/><path class="cls-8" d="M591.2,216.37l-1.62,16a1.49,1.49,0,0,1-1.64,1.33l-43.71-4.79a1.48,1.48,0,0,1-1.32-1.48V209.63a1.48,1.48,0,0,1,1.7-1.47l45.33,6.59A1.48,1.48,0,0,1,591.2,216.37Z"/><path class="cls-8" d="M875.51,193.16c-3.39,9.37-11,22.29-15.83,25s-8.14,6.16-9.06,14.07-3.8,10.73-6.16,12.86-9.89,10.5-10.41,18.18-6.78,15.45-11.42,18.73c-2,1.42-4.94,3.35-7.62,5.08a2.47,2.47,0,0,1-3.62-3c4.64-11.22,13.22-32,15-36.77,2.51-6.57,2.77-18.34,5.57-35.54a166.91,166.91,0,0,0,2-29.29s.48-8.91-2.53-14.22S786.85,45.51,786.85,45.51L758.33,0H846.9s5.38-1.35,9.14,16.19S878.27,81,877.65,88.83,888.9,156.23,875.51,193.16Z"/><path class="cls-8" d="M737,238.06l-5.66,7.59a1,1,0,0,0,.4,1.57l11.06,6a1.39,1.39,0,0,0,1.7-.3l5.71-7a1.05,1.05,0,0,0-.33-1.59l-11.1-6.53A1.39,1.39,0,0,0,737,238.06Z"/><path class="cls-8" d="M945.44,361.64l62.22,22.23,29.25,5.46V0h-20.66l7.07,176.5s1.74,26.32.58,41.15-18.75,69-24.57,79.21-15.77,29.8-26.93,40.71S945.44,361.64,945.44,361.64Z"/><path class="cls-8" d="M788.89,490.23s10.33,20.33,4,28.24-112.08,58.7-112.08,58.7l-28.71,17.28H490.56s9.53-24.18,38.56-63.13,64.31-56.56,64.31-56.56L685.81,433s28.54,36,53,47.2C764.43,491.87,773.22,492.32,788.89,490.23Z"/><path class="cls-8" d="M661.78,594.45l286.77.83L956,506s-5.39-9.81-3.73-16.44,14.55-112.65,14.55-112.65l-29.25-9.67L880.2,423s-27.63,33-48.1,47.54-32.67,18.13-32.67,18.13,11.21,21.59,1.25,31.76-138.9,74-138.9,74"/><path class="cls-8" d="M630.86,36.44l2,31.54a3.35,3.35,0,0,0,3,3.12l15.8,1.43a3.34,3.34,0,0,1,3,3.33V93.93a3.36,3.36,0,0,0,1.68,2.9l22.29,12.84a3.36,3.36,0,0,1,1.63,3.41l-7.43,48a3.33,3.33,0,0,0,3,3.84l56.34,5.23a3.34,3.34,0,0,0,3.45-4.46L704.47,78.78a3.34,3.34,0,0,1,2-4.28l26.82-9.56a3.35,3.35,0,0,0,1.59-5.1L700.17,11.48a3.34,3.34,0,0,0-4.8-.66L663.58,36.21a3.36,3.36,0,0,1-2.59.69l-26.29-4A3.34,3.34,0,0,0,630.86,36.44Z"/><path class="cls-8" d="M753.27,105l-10.73,3.91a3,3,0,0,0-1.8,3.67l9.3,29.18a3,3,0,0,1-1.83,3.68L741.1,148a2.94,2.94,0,0,0-1.8,3.74L744.89,168a3,3,0,0,0,3.64,1.87l23.26-7a2.94,2.94,0,0,0,1.93-3.81l-19.31-54.44Z"/><path class="cls-8" d="M365.49,136.07l-8.44,68.07a2.62,2.62,0,0,0,2.22,2.91L419.7,216a2.62,2.62,0,0,0,3-2.17l1.34-8.28a2.61,2.61,0,0,0-2.18-3l-6.23-1a2.61,2.61,0,0,1-2.2-2.81l.54-6.24a2.63,2.63,0,0,1,2.81-2.38h0a2.62,2.62,0,0,0,2.81-2.34l.75-7.41a2.62,2.62,0,0,0-2.22-2.85l-14.84-2.22A2.61,2.61,0,0,1,401,172.4L404.59,141a2.61,2.61,0,0,0-2.27-2.89l-33.9-4.28A2.62,2.62,0,0,0,365.49,136.07Z"/></g><g id="Layer_21" data-name="Layer 21"><line class="cls-9" x1="558.87" y1="302.59" x2="556.05" y2="324.96"/><line class="cls-9" x1="562.34" y1="303" x2="559.53" y2="325.32"/><line class="cls-9" x1="565.12" y1="303.33" x2="562.31" y2="325.62"/><polyline class="cls-9" points="545.94 301.05 582 305.33 579.21 327.45 549.29 324.21 552.11 301.79"/><line class="cls-9" x1="568.61" y1="303.74" x2="565.8" y2="326"/><line class="cls-9" x1="572.04" y1="304.15" x2="570.55" y2="315.96"/><line class="cls-9" x1="578.34" y1="304.9" x2="575.55" y2="327.05"/><polyline class="cls-9" points="567.18 315.49 573.5 316.39 575 304.5"/><polygon class="cls-9" points="548.81 324.95 568.95 327.48 578.93 328.73 576.18 351.86 566.39 350.74 545.75 348.37 545.75 324.95 548.81 324.95"/><line class="cls-9" x1="568.95" y1="327.48" x2="566.4" y2="350.74"/><polygon class="cls-10" points="587.09 306.31 581.11 355.51 637.83 362.04 643.01 312.79 587.09 306.31"/><line class="cls-10" x1="601.24" y1="307.95" x2="598.91" y2="332.27"/><line class="cls-10" x1="609.36" y1="308.89" x2="606.81" y2="333.25"/><line class="cls-10" x1="615.47" y1="309.6" x2="612.68" y2="333.97"/><line class="cls-10" x1="625.36" y1="310.75" x2="622.71" y2="335.21"/><polyline class="cls-10" points="597.93 307.56 595.05 331.8 640.42 337.39 660.83 340.38 675.31 350.28 696.74 320.93 695.41 318.69 643.01 312.79"/><line class="cls-10" x1="630.57" y1="361.21" x2="633.46" y2="336.53"/><line class="cls-10" x1="622.71" y1="360.3" x2="626.19" y2="335.63"/><line class="cls-10" x1="609.36" y1="358.64" x2="612.68" y2="333.97"/><line class="cls-10" x1="653.5" y1="313.97" x2="650.67" y2="338.89"/><line class="cls-10" x1="660.63" y1="314.77" x2="657.98" y2="339.97"/><line class="cls-10" x1="660.83" y1="340.38" x2="677.49" y2="316.67"/><line class="cls-10" x1="686.63" y1="334.78" x2="672.03" y2="324.45"/><line class="cls-10" x1="666.52" y1="332.3" x2="680.91" y2="342.6"/><line class="cls-10" x1="678.32" y1="346.15" x2="663.88" y2="336.05"/><line class="cls-10" x1="637.83" y1="362.04" x2="652.98" y2="364.64"/><polygon class="cls-9" points="544.26 280.81 583.67 285.4 581.68 301.86 544.26 297.53 544.26 280.81"/><polygon class="cls-9" points="544.95 257.98 586.6 263.02 584.64 280.26 544.95 275.88 544.95 257.98"/><line class="cls-9" x1="549.48" y1="281.42" x2="547.65" y2="297.92"/><line class="cls-9" x1="553.59" y1="281.9" x2="552.33" y2="298.46"/><line class="cls-9" x1="562.04" y1="282.79" x2="560.97" y2="299.46"/><line class="cls-9" x1="557.92" y1="277.31" x2="559.62" y2="259.75"/><line class="cls-9" x1="569.75" y1="278.62" x2="571.63" y2="261.21"/><line class="cls-9" x1="574" y1="279.37" x2="575.74" y2="261.71"/><polygon class="cls-9" points="596.58 265.75 592.27 301.27 700.64 314.01 723.69 282.23 721.85 280.45 596.58 265.75"/><line class="cls-9" x1="594.42" y1="283.6" x2="677.79" y2="293.73"/><polyline class="cls-9" points="606.19 266.88 603.95 284.76 602.82 302.51"/><polyline class="cls-9" points="610.62 267.4 608.39 285.3 607.65 303.08"/><polyline class="cls-9" points="614.46 267.85 612 285.74 611.51 303.54"/><line class="cls-9" x1="618.27" y1="268.29" x2="616.45" y2="286.28"/><line class="cls-9" x1="622.36" y1="268.77" x2="620.38" y2="286.76"/><polyline class="cls-9" points="626.69 269.28 624.59 287.27 623.48 304.94"/><polyline class="cls-9" points="630.96 269.78 628.82 287.78 627.8 305.45"/><polyline class="cls-9" points="634.66 270.22 632.99 288.29 631.84 305.93"/><line class="cls-9" x1="604.83" y1="277.76" x2="595.24" y2="276.79"/><polyline class="cls-9" points="635.02 306.3 636.59 288.73 638.78 270.7"/><polyline class="cls-9" points="643.25 271.23 640.71 289.23 639.21 306.79"/><polyline class="cls-9" points="643.25 307.27 644.56 289.69 647.71 271.75"/><polyline class="cls-9" points="651.78 272.23 648.87 290.22 647.71 307.79"/><polyline class="cls-9" points="651.78 308.27 653.42 290.77 656.39 272.77"/><polyline class="cls-9" points="659.7 273.16 657.4 291.25 656.39 308.81"/><line class="cls-9" x1="674.18" y1="293.29" x2="672.24" y2="310.68"/><polyline class="cls-9" points="676.55 311.18 677.79 293.73 683.07 275.9"/><line class="cls-9" x1="667.91" y1="274.12" x2="665.86" y2="292.28"/><polygon class="cls-9" points="542.91 229.9 587.04 235.12 584.57 257.46 542.91 252.16 542.91 229.9"/><polygon class="cls-9" points="597.01 215.8 592.29 257.98 622.61 261.8 627.64 219 597.01 215.8"/><polygon class="cls-9" points="633.52 220.47 628.72 262.98 642.9 264.96 647.95 222.48 633.52 220.47"/><polygon class="cls-9" points="650.11 222.48 645.13 264.96 658.8 266.37 664.2 224.39 650.11 222.48"/><polygon class="cls-9" points="655.37 186.91 652.11 215.39 666.04 216.91 668.71 194.83 655.37 186.91"/><polygon class="cls-9" points="638 179.85 634.2 213.09 647.95 214.73 651.67 185.13 643.88 179.79 638 179.85"/><polygon class="cls-9" points="618.97 180.95 615.53 211.7 629.6 213.56 633.46 180.95 618.97 180.95"/><line class="cls-9" x1="662.4" y1="238.44" x2="648.5" y2="237.14"/><line class="cls-9" x1="660.94" y1="249.8" x2="647.09" y2="248.26"/><polygon class="cls-9" points="673.41 200.62 665.33 267.38 679.28 269.35 686.08 208.23 673.41 200.62"/><polygon class="cls-9" points="689.71 209.94 683.15 269.83 696.34 271.36 702.9 218.09 689.71 209.94"/><polygon class="cls-9" points="707.65 220.19 701.84 271.61 715.1 273.18 719.95 228.31 707.65 220.19"/><polygon class="cls-9" points="724.53 228.44 719.98 272.46 731.09 273.95 750.46 245.38 724.53 228.44"/><polygon class="cls-9" points="755.41 248.64 736.72 275.99 755.41 278.63 768.86 257.05 755.41 248.64"/><polygon class="cls-9" points="773.12 258.7 760.62 279.08 777.89 280.64 786.1 267.3 773.12 258.7"/><line class="cls-9" x1="763.74" y1="265.26" x2="750.01" y2="256.54"/><line class="cls-9" x1="745.35" y1="263.36" x2="759.3" y2="272.4"/><line class="cls-9" x1="770.67" y1="262.69" x2="783.75" y2="271.11"/><line class="cls-9" x1="768.29" y1="266.58" x2="781.46" y2="274.84"/><path class="cls-9" d="M796.26,251.8s-1.51,10.31-2.83,13.23l14,9.6,10.31-25.89-.84-.66Z"/><path class="cls-9" d="M810.79,245.23l-14.08,2.6a69.5,69.5,0,0,0-.56-7.29c-.42-2.31-10-51.48-10-51.48l15.13,1.75Z"/><line class="cls-9" x1="812.95" y1="260.74" x2="795.63" y2="255.7"/><line class="cls-9" x1="796.53" y1="244.26" x2="810.18" y2="241.77"/><line class="cls-9" x1="796.03" y1="239.92" x2="809.43" y2="237.5"/><line class="cls-9" x1="795.3" y1="236.14" x2="808.71" y2="233.42"/><line class="cls-9" x1="794.41" y1="231.57" x2="807.93" y2="228.92"/><line class="cls-9" x1="793.7" y1="227.92" x2="807.28" y2="225.21"/><line class="cls-9" x1="791.78" y1="218.06" x2="805.58" y2="215.51"/><polygon class="cls-9" points="814.15 243.71 820.68 242.79 821.91 238.34 826.41 192.66 804.9 189.86 812.36 233.1 814.15 243.71"/><path class="cls-9" d="M788.5,261.65l-13.25-8.25a8.77,8.77,0,0,0,2.18-6.71c-.54-3.86-10.92-63.39-10.92-63.39l13,.2L786.78,218s3.59,21.26,3.78,25.88S790.76,255.23,788.5,261.65Z"/><line class="cls-9" x1="810.52" y1="222.47" x2="823.68" y2="220.41"/><line class="cls-9" x1="811.43" y1="227.78" x2="823.12" y2="226.07"/><line class="cls-9" x1="807.17" y1="203.01" x2="825.63" y2="200.6"/><line class="cls-9" x1="808.16" y1="208.77" x2="824.94" y2="207.59"/><line class="cls-9" x1="790.45" y1="252.08" x2="777.09" y2="250.19"/><line class="cls-9" x1="790.45" y1="242.43" x2="776.97" y2="244.14"/><line class="cls-9" x1="790.01" y1="238.79" x2="776.49" y2="240.99"/><path class="cls-9" d="M772.41,252.33l-14.62-9-9.91-59.75h15.73l9.75,57.69S775.26,248.76,772.41,252.33Z"/><line class="cls-9" x1="787.59" y1="222.88" x2="773.79" y2="225.24"/><line class="cls-9" x1="773.36" y1="241.24" x2="757.79" y2="243.3"/><polygon class="cls-9" points="727.63 182.22 736.41 229.84 751.88 238.8 743.02 182.64 727.63 182.22"/><polygon class="cls-9" points="710.41 181.96 716.21 216.77 731.59 226.19 724.18 181.96 710.41 181.96"/><line class="cls-9" x1="748.45" y1="217.1" x2="734.41" y2="218.96"/><line class="cls-9" x1="735.56" y1="224.84" x2="749.33" y2="222.66"/><line class="cls-9" x1="724.37" y1="183.08" x2="710.98" y2="185.36"/><line class="cls-9" x1="725.23" y1="188.19" x2="711.89" y2="190.86"/><line class="cls-9" x1="728.93" y1="210.28" x2="715.54" y2="212.77"/><polygon class="cls-9" points="691.43 181.1 695.4 203.82 710.47 213.27 705.07 181.1 691.43 181.1"/><polygon class="cls-9" points="674.63 180.61 676.17 192.74 690.41 201.34 687.06 180.61 674.63 180.61"/><line class="cls-9" x1="707.63" y1="196.35" x2="694.42" y2="198.17"/><line class="cls-9" x1="708.55" y1="201.83" x2="695.41" y2="203.82"/><line class="cls-9" x1="706.56" y1="190" x2="693.33" y2="191.95"/><line class="cls-9" x1="688.55" y1="189.83" x2="676.17" y2="192.1"/><line class="cls-9" x1="687.61" y1="184.01" x2="675.35" y2="186.27"/><polygon class="cls-9" points="670.01 179.68 671.67 189.52 655.45 179.68 670.01 179.68"/></g><g id="Labels"><text class="cls-11" transform="translate(581.15 467.74) rotate(-27)">Castle<tspan class="cls-12" x="24.46" y="0">r</tspan><tspan x="27.34" y="0">eagh </tspan><tspan class="cls-13" x="48.55" y="0">R</tspan><tspan x="53.83" y="0">i</tspan><tspan class="cls-14" x="55.87" y="0">v</tspan><tspan x="60.12" y="0">e</tspan><tspan class="cls-15" x="64.91" y="0">r</tspan></text><text class="cls-16" transform="translate(736.76 426.8)">Gilgand<tspan class="cls-17" x="30.03" y="0">r</tspan><tspan x="33.07" y="0">a </tspan><tspan x="0" y="13.59">Ca</tspan><tspan class="cls-17" x="10.08" y="13.59">r</tspan><tspan class="cls-18" x="13.12" y="13.59">a</tspan><tspan class="cls-19" x="17.6" y="13.59">v</tspan><tspan x="21.89" y="13.59">an </tspan><tspan class="cls-13" x="33.23" y="13.59">P</tspan><tspan x="38.18" y="13.59">ark</tspan></text><text class="cls-16" transform="translate(379.95 340.65) rotate(5)"><tspan class="cls-14">(</tspan><tspan class="cls-20" x="2.34" y="0">O</tspan><tspan x="8.32" y="0">xl</tspan><tspan class="cls-18" x="15.1" y="0">e</tspan><tspan class="cls-21" x="19.78" y="0">y</tspan><tspan x="23.97" y="0" xml:space="preserve"> Hig</tspan><tspan class="cls-18" x="38.96" y="0">h</tspan><tspan class="cls-19" x="43.68" y="0">wa</tspan><tspan class="cls-22" x="54.78" y="0">y</tspan><tspan x="59.06" y="0">)</tspan></text><text class="cls-16" transform="translate(479.14 352.22) rotate(5)"><tspan class="cls-23">W</tspan><tspan x="8.02" y="0">ar</tspan><tspan class="cls-12" x="15.71" y="0">r</tspan><tspan x="18.6" y="0">en </tspan><tspan class="cls-22" x="30.14" y="0">R</tspan><tspan x="35.34" y="0">oad </tspan></text><text class="cls-16" transform="matrix(0.78, 0.62, -0.62, 0.78, 704.39, 321.55)">Bridge <tspan class="cls-24" x="27.52" y="0">S</tspan><tspan x="32.38" y="0">t</tspan><tspan class="cls-12" x="35.45" y="0">r</tspan><tspan x="38.34" y="0">e</tspan><tspan class="cls-25" x="43.13" y="0">e</tspan><tspan x="47.89" y="0">t </tspan></text><text class="cls-16" transform="translate(758.33 317.87) rotate(-55.87)">Mille<tspan class="cls-15" x="18.82" y="0">r</tspan><tspan x="21.73" y="0"> </tspan><tspan class="cls-24" x="23.65" y="0">S</tspan><tspan x="28.5" y="0">t</tspan><tspan class="cls-12" x="31.58" y="0">r</tspan><tspan x="34.46" y="0">e</tspan><tspan class="cls-25" x="39.26" y="0">e</tspan><tspan x="44.02" y="0">t</tspan><tspan class="cls-26" x="47.09" y="0"> </tspan></text><text class="cls-16" transform="translate(713.27 306.21) rotate(-55.87)"><tspan class="cls-17">M</tspan><tspan x="6.86" y="0">orris </tspan><tspan class="cls-24" x="25.84" y="0">S</tspan><tspan x="30.7" y="0">t</tspan><tspan class="cls-12" x="33.77" y="0">r</tspan><tspan x="36.66" y="0">e</tspan><tspan class="cls-25" x="41.45" y="0">e</tspan><tspan x="46.21" y="0">t</tspan><tspan class="cls-26" x="49.28" y="0"> </tspan></text><text class="cls-16" transform="matrix(0.82, 0.57, -0.57, 0.82, 680.9, 198.7)">Court <tspan class="cls-24" x="23.37" y="0">S</tspan><tspan x="28.22" y="0">t</tspan><tspan class="cls-12" x="31.3" y="0">r</tspan><tspan x="34.18" y="0">e</tspan><tspan class="cls-25" x="38.98" y="0">e</tspan><tspan x="43.74" y="0">t</tspan><tspan class="cls-26" x="46.81" y="0"> </tspan></text><text class="cls-16" transform="translate(476.56 146.94) rotate(7.26)">Chelms<tspan class="cls-12" x="29.07" y="0">f</tspan><tspan x="31.82" y="0">o</tspan><tspan class="cls-12" x="36.67" y="0">r</tspan><tspan x="39.56" y="0">d</tspan><tspan class="cls-27" x="44.72" y="0"> </tspan><tspan class="cls-28" x="46.39" y="0">A</tspan><tspan class="cls-14" x="51.5" y="0">v</tspan><tspan x="55.75" y="0">enue </tspan></text><text class="cls-16" transform="translate(548.36 446.82) rotate(-26.41)">Castle<tspan class="cls-12" x="24.46" y="0">r</tspan><tspan x="27.34" y="0">eagh </tspan><tspan class="cls-24" x="48.55" y="0">S</tspan><tspan x="53.41" y="0">t</tspan><tspan class="cls-12" x="56.48" y="0">r</tspan><tspan x="59.37" y="0">e</tspan><tspan class="cls-25" x="64.16" y="0">e</tspan><tspan x="68.92" y="0">t</tspan><tspan class="cls-26" x="71.99" y="0"> </tspan></text><text class="cls-16" transform="matrix(0.75, -0.66, 0.66, 0.75, 471.17, 511.59)">(<tspan class="cls-17" x="2.48" y="0">N</tspan><tspan class="cls-18" x="8.53" y="0">e</tspan><tspan class="cls-29" x="13.21" y="0">w</tspan><tspan x="19.77" y="0">el</tspan><tspan class="cls-27" x="27.1" y="0">l</tspan><tspan x="29.38" y="0" xml:space="preserve"> Hig</tspan><tspan class="cls-18" x="44.38" y="0">h</tspan><tspan class="cls-19" x="49.1" y="0">wa</tspan><tspan class="cls-22" x="60.19" y="0">y</tspan><tspan x="64.47" y="0" xml:space="preserve">)  </tspan></text><text class="cls-16" transform="translate(276.45 388)">Gilgand<tspan class="cls-17" x="30.03" y="0">r</tspan><tspan x="33.07" y="0">a </tspan><tspan class="cls-30" x="0" y="13.59">T</tspan><tspan class="cls-17" x="4.07" y="13.59">r</tspan><tspan x="7.11" y="13.59">ain </tspan><tspan class="cls-24" x="20.5" y="13.59">S</tspan><tspan x="25.35" y="13.59">t</tspan><tspan class="cls-25" x="28.42" y="13.59">a</tspan><tspan x="32.98" y="13.59">tion</tspan></text></g><path class="cls-31" d="M731.15,342.65c.12,1.34,4,3.39,4,3.39l14.89-18.27,6.4-7.61-3.73-4.06S730.39,334,731.15,342.65Z"/></g></svg>