<svg xmlns="http://www.w3.org/2000/svg" viewBox="0 0 1037.54 595.28"><defs><style>.cls-1{fill:#e6e7e8;opacity:0.52;}.cls-2{fill:#74b96b;opacity:0.22;}.cls-3{fill:#83bada;opacity:0.5;}.cls-4,.cls-5,.cls-6,.cls-7,.cls-8{fill:none;}.cls-4,.cls-5,.cls-6,.cls-7{stroke:#e6e7e8;stroke-linecap:round;stroke-linejoin:round;}.cls-4{stroke-width:4.01px;}.cls-5{stroke-width:8.03px;}.cls-6{stroke-width:5.02px;}.cls-7{stroke-width:1.98px;}.cls-8{stroke:#d1d3d4;stroke-miterlimit:10;stroke-width:0.28px;}.cls-9{fill:#d1e074;}.cls-10,.cls-9{opacity:0.45;}.cls-10{fill:#b2d67b;}.cls-11{fill:#f1657a;opacity:0.31;}.cls-12,.cls-17{opacity:0.58;font-size:8px;font-family:Raleway-Bold, Raleway;font-weight:700;}.cls-12{fill:#282560;}.cls-13{letter-spacing:-0.03em;}.cls-14{letter-spacing:0em;}.cls-15{letter-spacing:-0.02em;}.cls-16{letter-spacing:-0.02em;}.cls-17{fill:#414042;}.cls-18{letter-spacing:-0.01em;}.cls-19{letter-spacing:-0.01em;}.cls-20{letter-spacing:-0.03em;}.cls-21{letter-spacing:-0.01em;}.cls-22{letter-spacing:-0.01em;}.cls-23{letter-spacing:-0.05em;}.cls-24{letter-spacing:-0.01em;}.cls-25{letter-spacing:0em;}.cls-26{font-size:10.97px;}.cls-27{letter-spacing:-0.01em;}.cls-28{letter-spacing:-0.04em;}.cls-29{letter-spacing:-0.02em;}.cls-30{letter-spacing:-0.03em;}</style></defs><title>Artboard 1</title><g id="Base_Map_2" data-name="Base Map 2"><rect id="Gray_Background" data-name="Gray Background" class="cls-1" x="255.78" width="781.14" height="595.28"/><g id="Greens"><path class="cls-2" d="M521.79,464.39l-1.72,27.52a2.46,2.46,0,0,1-1.52,2.11l-55.71,22.75a2.45,2.45,0,0,1-3.12-1.17l-16.36-32.88a2.44,2.44,0,0,0-3-1.23l-65.86,22.28a2.45,2.45,0,0,1-3.22-2.58h0a2.44,2.44,0,0,0-2.43-2.71H337.51a2.45,2.45,0,0,1-1.62-4.28l55.59-49.12a2.44,2.44,0,0,1,1.95-.59l126.25,17.33A2.44,2.44,0,0,1,521.79,464.39Z"/><path class="cls-2" d="M406.44,517.61l-33.63,13.78a3.45,3.45,0,0,0-2.11,2.87l-1.49,16.9a3.42,3.42,0,0,0,4.73,3.45L414,537.78a3.42,3.42,0,0,0,1.89-4.3L411,519.62A3.41,3.41,0,0,0,406.44,517.61Z"/><path class="cls-2" d="M718.3,265.69l-9.78,13.8a1.85,1.85,0,0,0,.4,2.55l9.81,7.42a1.86,1.86,0,0,0,2.56-.3l11.2-13.71a1.85,1.85,0,0,0-.4-2.72l-11.25-7.51A1.85,1.85,0,0,0,718.3,265.69Z"/><path class="cls-2" d="M467.86,595.28s122.38-44.13,144.35-50.59,95.6-32.55,125.26-58.26S860.8,389.35,874.26,369.32s29.07-76.5,53.29-102.63,32.3-56.81,44.14-72.42,29.6-61.1,45.75-76.84,20.19-25,20.19-25v502.8Z"/><path class="cls-2" d="M370.79,87.93,366.92,126a3.54,3.54,0,0,1-3.91,3.16l-104.08-11.4a3.53,3.53,0,0,1-3.15-3.51V71.87a3.54,3.54,0,0,1,4-3.5l108,15.7A3.54,3.54,0,0,1,370.79,87.93Z"/><path class="cls-2" d="M944,.63a5.89,5.89,0,0,0-5.89,6,397.64,397.64,0,0,1-4.83,69.76c-6.65,41-7.28,69-13.25,84.65-4.31,11.3-24.76,60.85-35.8,87.57a5.88,5.88,0,0,0,8.62,7.19c6.38-4.12,13.36-8.71,18.14-12.09,11-7.82,26-26.3,27.2-44.6s19.18-38.24,24.8-43.31,12.5-11.78,14.68-30.62,10-27,21.56-33.52,37-35.88,37.71-59.62l.51-25.3a5.89,5.89,0,0,0-5.88-6Z"/><path class="cls-2" d="M711.11,139,697,160.56a3.19,3.19,0,0,0,1,4.46l27.59,16.91a3.17,3.17,0,0,0,4.25-.86L744,161.17a3.17,3.17,0,0,0-.81-4.49l-27.69-18.55A3.18,3.18,0,0,0,711.11,139Z"/></g><g id="River"><path class="cls-3" d="M401.07,594.54s34-20.87,42.69-20.87,54.89-22.15,67.09-26,63.24-22.47,63.24-22.47,53.61-26.32,74.79-32.42,69-28.25,90.2-49.76,78-71.37,93.09-86.08,35-40.39,44.94-64.14,7.38-24.4,27.29-38.2,33.7-30.18,40.76-60.67,28.25-36.59,31.78-46.22,3.85-38.84,14.13-44.3,41.08-31.78,42.37-43.66a152.42,152.42,0,0,1,4.17-22.15l-.07,45.26s-10.84,10.6-16.3,20.23-21.51,20.54-31.14,47.5S964.74,193,960.57,201.31s-17,41.09-39.48,60.67-36.92,78.65-44.62,91.49-33.38,32.92-73.19,66.21-79.93,74.06-119.41,91.08S580,551.84,546.4,560.51s-101.67,34.77-101.67,34.77Z"/></g><g id="Roads"><polyline class="cls-4" points="546.4 455.13 574.39 409.97 684.19 261.08 755.06 157.59 756.79 152.99 731.57 0.95"/><path class="cls-5" d="M816.87,0S848.48,134.54,847,171.74s-43.48,92.43-43.48,92.43L680.87,433.49c-7.65,10.16-34.16,24-34.16,24a73.63,73.63,0,0,1-37.3,5.67l-38-4.13L255.78,418.73"/><polyline class="cls-4" points="679.5 270.39 718.88 299.7 805.48 364.18"/><path class="cls-6" d="M583.31,460.28l-.34,2.45a37.74,37.74,0,0,1-22.38,29.53l-237.52,103"/><path class="cls-4" d="M666.52,367.85l-38.84,46.69a13.59,13.59,0,0,1-18.62,2.55l-25.89-18.78"/><polyline class="cls-4" points="635.52 328.8 574.39 321.58 255.78 284.07"/><line class="cls-4" x1="666.52" y1="367.85" x2="718.88" y2="299.7"/><line class="cls-4" x1="675.2" y1="356.94" x2="635.52" y2="328.8"/><line class="cls-4" x1="387.31" x2="338.45" y2="429.28"/><polyline class="cls-4" points="255.78 182.35 700.89 236.7 812.91 250.81"/><line class="cls-6" x1="255.78" y1="60.82" x2="551.41" y2="99.59"/><line class="cls-6" x1="560.49" y1="33.54" x2="537.97" y2="215.37"/><line class="cls-5" x1="506.95" x2="881.85" y2="234.85"/><line class="cls-6" x1="623.72" y1="227.28" x2="641.35" y2="84.2"/><line class="cls-6" x1="643.08" x2="658.13" y2="92.48"/><line class="cls-6" x1="476.04" x2="452.24" y2="206.34"/><line class="cls-4" x1="566.28" y1="37.17" x2="560.81" y2="0.78"/><line class="cls-7" x1="599.59" y1="58.04" x2="582.04" y2="222.41"/><line class="cls-7" x1="518.77" y1="9.74" x2="495.33" y2="211.6"/><line class="cls-7" x1="432.38" x2="422.7" y2="82.71"/><line class="cls-7" x1="298.88" y1="0.41" x2="290.04" y2="65.32"/><line class="cls-7" x1="679.5" y1="110.67" x2="666.52" y2="232.51"/><line class="cls-7" x1="255.78" y1="234.85" x2="359.18" y2="247.14"/><line class="cls-7" x1="850.6" y1="168.01" x2="913.75" y2="157.46"/><line class="cls-7" x1="892.11" y1="161.07" x2="867.88" y2="19.18"/><line class="cls-7" x1="819.89" y1="13.19" x2="930.25" y2="26.17"/><path class="cls-7" d="M756.79,243.74,797.33,179a27.67,27.67,0,0,0,6.36-21.56C802.1,144.07,776.68,1,776.68,1"/><line class="cls-7" x1="285.96" y1="531.16" x2="392.32" y2="436.15"/><line class="cls-7" x1="600.78" y1="0.78" x2="611.07" y2="62.12"/><line class="cls-7" x1="686.15" y1="0.95" x2="707.76" y2="122.35"/><line class="cls-4" x1="330.02" y1="70.56" x2="339.77"/><path class="cls-6" d="M301.33,424.54s8.69,17.4,0,30.12-45.55,40.66-45.55,40.66l79.66,94.59"/><path class="cls-6" d="M325,427.56s-6.51,23.93-34.62,39"/><line class="cls-6" x1="607.68" y1="594.8" x2="527.66" y2="506.54"/><path class="cls-4" d="M714.8,390.7l31.91,21.9,8.14-5.55,50.63-42.87,35.71-41.86a107.53,107.53,0,0,0,16.35-25.89c9-20.19,25.07-56.92,32.14-77.88,0,0,25-56.93,28.13-76.28S930.25,24.79,930.25,24.79a175.08,175.08,0,0,0,0-23.84"/></g><g id="Shops"><polygon class="cls-1" points="747.77 352.83 764.67 366.53 766.59 364.1 775.13 370.4 787.27 355.17 760.03 335.92 747.77 352.83"/><polygon class="cls-1" points="745.65 354.82 740.24 362.25 762.6 379.04 767.93 371.53 745.65 354.82"/><polygon class="cls-1" points="739.86 362.93 733.78 371.19 756.02 387.86 761.97 379.59 739.86 362.93"/><polygon class="cls-1" points="734.8 373.43 732.43 376.33 746.63 388.21 749.63 384.43 735.19 372.84 734.8 373.43"/><polygon class="cls-1" points="731.7 377.35 726.51 383.8 740.81 394.66 746 388.84 731.7 377.35"/><polygon class="cls-1" points="726.51 385.4 724.07 388.74 722.59 387.86 718.74 392.81 723.69 396.45 722.87 397.51 726.64 400.19 729.68 396.31 733.27 399.06 737.48 393.48 726.51 385.4"/><polygon class="cls-1" points="717.87 393.87 720.74 396.06 718.52 398.83 726.51 404.41 721.89 410.5 710.89 402.91 717.87 393.87"/><polygon class="cls-1" points="710.4 404.85 702.48 415.34 718.88 428.13 727.12 416.74 710.4 404.85"/><polygon class="cls-1" points="700.92 417.93 695.65 424.81 715.24 439 720.29 431.88 700.92 417.93"/><polygon class="cls-1" points="695.12 426.01 690.87 431.57 703.35 441.27 707.97 434.67 695.65 425.47 695.12 426.01"/><polygon class="cls-1" points="690.5 432.11 687.54 435.67 699.21 444.75 701.91 440.88 690.5 432.11"/><polygon class="cls-1" points="687.39 436.78 683.3 442 695.08 451.15 699.15 445.68 687.39 436.78"/><polygon class="cls-1" points="687.73 446.47 684.22 449.14 681.97 445.75 672.21 450.57 676.02 460.63 679.44 459.49 681.52 464.5 686.95 461.54 695.19 454.02 692.91 450.86 687.73 446.47"/><polygon class="cls-1" points="669.95 452.66 657.7 458.16 663.28 471.66 675.33 466.2 669.95 452.66"/><polygon class="cls-1" points="581.63 440.7 575.77 447.44 595.1 449.95 605.75 436.78 598.84 431.32 590.76 433.39 586.69 436.69 587.88 437.71 584 441.8 582.15 440.17 581.63 440.7"/><polygon class="cls-1" points="607.92 437.26 597.69 450.38 606.12 451.41 613.82 441.23 607.92 437.26"/><polygon class="cls-1" points="631.2 447.38 634 454.68 643.96 450.53 640.89 443.59 631.2 447.38"/><polygon class="cls-1" points="640.61 437.74 645.21 448.46 653.81 444.18 646.33 435.44 640.61 437.74"/><polygon class="cls-1" points="637.54 426.62 657.63 441.63 666.07 429.4 655.04 421.5 653.62 423.25 644.42 416.84 637.54 426.62"/><polygon class="cls-1" points="660.02 404.85 655.64 410.29 664.13 417.15 660.98 420.91 670.86 428.83 678.11 418.72 660.02 404.85"/><polygon class="cls-1" points="665.3 395 660.25 401.63 665.3 405.73 663.96 407.19 678.95 418.53 687.54 407.58 675.86 398.82 673.9 401.21 665.3 395"/><polygon class="cls-1" points="679.04 393.79 675.94 397.86 687.81 406.77 691.22 402.07 679.04 393.79"/><polygon class="cls-1" points="677.32 379.5 672.9 384.77 692.6 399.89 696.69 393.87 677.32 379.5"/><polygon class="cls-1" points="681.54 375.83 678.78 379.25 697.13 393.07 699.68 389.69 681.54 375.83"/><polygon class="cls-1" points="680.43 360.7 674.87 367.75 696.24 383.9 695.15 385.4 699.68 389.06 705.12 381.38 700.88 378.23 702.43 376.17 680.43 360.7"/><polygon class="cls-1" points="706.42 344.01 702.04 349.48 718.73 362.41 721.52 362.41 735.59 344.58 728.87 338.88 724.2 337.8 719.36 334.21 714.78 340.14 721.86 345.78 718.5 350.05 712.41 345.72 711.04 347.43 706.42 344.01"/><polygon class="cls-1" points="716.62 318.05 711.35 325.4 735.95 343.49 741.09 336.2 716.62 318.05"/><polygon class="cls-1" points="735.11 321.62 730.88 326.93 741.62 335.1 745.51 329.5 735.11 321.62"/><polygon class="cls-1" points="660.48 305.88 656.99 310.69 662.49 314.73 649 332.64 672.81 350.87 690.64 326.9 660.48 305.88"/><polygon class="cls-1" points="671.94 298.45 667.37 304.87 680 313.74 684.75 307.11 671.94 298.45"/><polygon class="cls-1" points="668.58 292.39 674.16 296.9 687.15 279.79 681.7 275.91 668.58 292.39"/><polygon class="cls-1" points="688.84 281.45 680.36 292.34 687.55 298.19 696.48 287.16 688.84 281.45"/><polygon class="cls-1" points="696.48 293.59 688.42 304.84 691.44 307.3 690.41 308.51 699.03 314.85 708.72 302.34 696.48 293.59"/><polygon class="cls-1" points="601.73 390.4 596.99 396.55 607.84 404.37 612.44 398.79 610.96 397.65 612.25 396.1 608.57 393.21 607.12 394.77 601.73 390.4"/><polygon class="cls-1" points="607.73 381.9 603.02 388.27 614.03 396.67 615.29 394.96 618.48 397.2 622.08 392.38 607.73 381.9"/><polygon class="cls-1" points="585.66 408.64 573.03 424.87 573.03 439.79 593.59 414.16 585.66 408.64"/><polygon class="cls-1" points="626.65 358.46 618.83 369.49 623.26 372.53 624.04 371.59 625.14 372.53 623.26 374.84 630.32 380.27 634.69 374.72 633.05 373.23 634.48 371.57 638 374.3 639.97 372.26 636.02 369.08 639.15 364.99 630.2 358.37 629.12 360.04 626.65 358.46"/><polygon class="cls-1" points="635.41 375.68 631.33 380.78 634.71 383.27 638.63 378.17 635.41 375.68"/><polygon class="cls-1" points="638.39 343.24 630.89 353.73 637.33 358.37 644.96 348.27 638.39 343.24"/><polygon class="cls-1" points="640.23 335.82 636.33 341.04 645.68 348.1 649.73 342.47 640.23 335.82"/><polygon class="cls-1" points="813.95 349.56 810.32 354.6 796.44 344.25 800.38 339.04 813.95 349.56"/><polygon class="cls-1" points="798.83 326.92 794.98 332.36 808.99 343.28 812.89 338.01 798.83 326.92"/><polygon class="cls-1" points="799.2 337.96 792.45 332.4 787.87 337.87 795.32 343.49 799.63 338.31 799.2 337.96"/><polygon class="cls-1" points="791.3 333.03 787.09 338.53 768.18 324.19 772.62 318.19 791.3 333.03"/><polygon class="cls-1" points="778.91 312.76 774.77 318.38 789.15 329.14 791.49 326.36 791.49 322.94 778.91 312.76"/><polygon class="cls-1" points="779.74 311.51 794.36 322.52 797.3 318.7 791.55 314.56 793.05 312.65 798.16 316.49 800.66 313.53 796.55 310.24 800.66 304.87 788.46 295.46 782.22 303.12 784.92 304.91 779.74 311.51"/><polygon class="cls-1" points="796.94 286.95 790.51 294.73 801.29 302.93 807.67 294.64 796.94 286.95"/><polygon class="cls-1" points="804.56 272.91 797.67 283.46 804.56 288.47 803.43 290.16 807.37 293.02 809.39 290.3 805.5 287.82 806.67 286.32 817.87 294.94 823.5 287.4 804.56 272.91"/><polygon class="cls-1" points="823.4 261.31 818.01 268.27 822.04 271.18 816.67 278.73 826.54 286.29 832.09 279.05 833.39 274.05 833.39 271.34 834.8 269.14 823.4 261.31"/><polygon class="cls-1" points="602.03 334.14 594.89 343.4 603.13 349.96 606.74 345.66 604.84 343.91 606.74 340.92 602.47 337.6 604.22 335.56 602.03 334.14"/><polygon class="cls-1" points="596.93 349.71 589.06 360.83 575.64 352.16 577.35 345.82 581.13 346.46 580.81 349.02 584.27 344.81 588.42 347.9 594.11 347.42 596.93 349.71"/><polygon class="cls-1" points="586.47 285.87 583.16 308.75 591.29 310.13 594.95 287.05 586.47 285.87"/><polygon class="cls-1" points="582.4 298.35 582.4 309.58 579.44 309.58 579.44 310.82 573.71 310.33 574.08 306.28 573.26 306.24 573.63 301.74 575.06 301.82 575.23 299.37 578.58 299.74 578.58 298 582.4 298.35"/><polygon class="cls-1" points="584.75 284.7 582.91 297.03 577.83 297.19 577.83 294.08 576.52 294 576.52 285.48 581.31 284.25 584.75 284.7"/><polygon class="cls-1" points="599.84 312.86 593.48 312.06 596.13 292.99 600.06 293.25 599.89 299.61 607.97 300.36 606.91 310.43 600.29 309.86 599.84 312.86"/><polygon class="cls-1" points="609.67 290.04 608.56 298.59 614.88 299.11 616.08 290.75 609.67 290.04"/><polygon class="cls-1" points="616.08 300.11 615.41 311 626.13 311.89 627.17 304.81 623.5 300.53 616.08 300.11"/><polygon class="cls-1" points="625.34 285.23 622.12 289.02 631.84 295.87 638.91 286.31 632.56 281.52 630.69 283.78 625.34 285.23"/><polygon class="cls-1" points="647.88 271.53 645.89 274.14 654.86 281.05 656.74 278.44 647.88 271.53"/><polygon class="cls-1" points="658.5 261.98 654.53 267.2 663.94 274.03 668.02 268.45 658.5 261.98"/><polygon class="cls-1" points="692.99 261.34 689.39 265.62 697.59 272.04 702.24 265.88 696.24 261.34 692.99 261.34"/><polygon class="cls-1" points="708.05 268.62 702.5 275.56 705.93 278.28 712.48 270.53 712.48 266.46 711.02 265.16 713.43 262.47 712.55 261.34 704.87 261.34 702.5 264.48 708.05 268.62"/><polygon class="cls-1" points="728.87 281.95 722.67 289.97 728.46 294.61 734.81 286.18 728.87 281.95"/><polygon class="cls-1" points="736.32 290.54 731.43 296.69 749.96 310.5 757.86 300.52 745.85 291.39 742.67 295 736.32 290.54"/><polygon class="cls-1" points="758.52 301.12 750.75 311.07 755.6 314.87 759.13 314.17 764.9 306.32 758.52 301.12"/><polygon class="cls-1" points="751.19 283.93 746.48 290.21 751.76 294.14 751.06 294.95 761.34 302.53 763.47 299.83 757.86 295.78 761.19 291.52 751.19 283.93"/><polygon class="cls-1" points="750.16 268.35 743.12 277.33 756.74 287.36 763.47 278.89 750.16 268.35"/><polygon class="cls-1" points="770.23 272.91 766.5 277.85 776.53 285.44 780.35 280.12 770.23 272.91"/><polygon class="cls-1" points="761.81 266.3 759.06 269.51 765.21 274.49 768.15 270.98 761.81 266.3"/><polygon class="cls-1" points="768.99 260.16 764.94 265.03 772.49 270.99 776.56 265.76 768.99 260.16"/><polygon class="cls-1" points="778.14 266.72 774.27 271.74 781.95 277.61 785.85 272.48 778.14 266.72"/><polygon class="cls-1" points="782.93 263.51 780.35 266.81 786.81 271.46 789.18 268.12 782.93 263.51"/><polygon class="cls-1" points="792.14 258.3 794.51 260.11 789.82 266.12 780 258.3 792.14 258.3"/><polygon class="cls-1" points="639.77 384.06 643.48 387.06 648.08 381.34 644.14 378.43 639.77 384.06"/><polygon class="cls-1" points="649.63 371.02 653.47 373.97 656.66 369.85 652.21 366.65 649.25 370.6 649.63 371.02"/><polygon class="cls-1" points="615.1 397.9 612.21 401.65 616.39 404.65 619.11 400.96 615.1 397.9"/><polygon class="cls-1" points="649.82 393.49 639.47 406.39 644.65 410.11 654.6 397.2 649.82 393.49"/><polygon class="cls-1" points="664.7 387.55 661.94 390.7 658.13 387.55 660.83 384.49 664.7 387.55"/><polygon class="cls-1" points="694.02 321.25 691.95 323.79 686.34 319.27 688.65 316.3 694.39 320.68 694.02 321.25"/><polygon class="cls-1" points="639.75 240.92 638.91 255.55 645.89 255.98 646.71 240.92 639.75 240.92"/><polygon class="cls-1" points="585.39 239.39 585.39 247.21 610.22 247.59 610.22 235.95 585.15 235.95 585.39 239.39"/><polygon class="cls-1" points="542.52 293.46 541.75 308.79 548.6 308.79 549.08 291.63 542.52 291.63 542.52 293.46"/><polygon class="cls-1" points="533.83 386.06 516.68 409.35 531.47 419.68 515.25 443.49 543.06 446.49 568.09 409.48 533.83 386.06"/><polygon class="cls-1" points="515.25 383.05 514.46 389.46 498.76 387.89 498.76 380.96 515.25 383.05"/><polygon class="cls-1" points="492.49 385.21 484.64 404.25 482.68 426.09 490.39 426.09 491.7 404.51 498.76 389.46 492.49 385.21"/><polygon class="cls-1" points="327.96 501.4 326.49 522.94 364.16 524.85 365.77 503.15 327.96 501.4"/><polygon class="cls-1" points="326.78 527.78 325.32 549.32 362.99 551.23 364.6 529.53 326.78 527.78"/><polygon class="cls-1" points="286.72 130.69 282.67 172.35 256.64 168.68 256.64 125.3 286.72 130.69"/><polygon class="cls-1" points="323.77 138.44 322.83 157.05 341.87 158.21 342.9 138.44 323.77 138.44"/><polygon class="cls-1" points="289.76 161.16 289.12 174.38 303.49 175.02 304.26 162.44 289.76 161.16"/><polygon class="cls-1" points="334.04 165.78 334.04 176.69 353.3 177.2 353.3 166.55 334.04 165.78"/><polygon class="cls-1" points="388.23 112.81 384.81 142.89 394.36 143.6 398.07 114.24 388.23 112.81"/><polygon class="cls-1" points="384.81 153.01 382.82 166.41 403.6 168.69 405.2 155.15 384.81 153.01"/><polygon class="cls-1" points="397.21 142.23 397.21 149.59 413.32 150.73 413.32 142.75 397.21 142.23"/><polygon class="cls-1" points="416.89 93.09 416.2 105.43 452.24 107.28 453.01 100.82 427.97 98.76 428.2 93.09 416.89 93.09"/><polygon class="cls-1" points="417.93 108.78 414.12 153.55 445.05 156.78 450.7 110.51 442.28 110.16 438.93 132.78 424.85 131.28 426.58 108.78 417.93 108.78"/><polygon class="cls-1" points="415.74 111.32 415.23 122.28 398.07 120.32 399.47 108.78 415.74 111.32"/><polygon class="cls-1" points="697.31 166.85 684.53 185.25 711.36 203.65 724.54 183.63 697.31 166.85"/><polygon class="cls-1" points="744.64 187.59 740.56 193.96 770.44 212.11 774.53 205.54 744.64 187.59"/><polygon class="cls-1" points="748.49 220.69 742.07 229.52 752.14 234.85 757.55 227.25 748.49 220.69"/><polygon class="cls-1" points="807.56 212.11 803.04 218.79 815.15 226.62 819.32 219.79 807.56 212.11"/><polygon class="cls-1" points="774.53 224.91 768.19 234.85 774.05 238.12 780.35 228.34 774.53 224.91"/><polygon class="cls-1" points="812.91 203.05 808.79 209.92 820.39 216.87 824.32 210.21 812.91 203.05"/><polygon class="cls-1" points="800.37 195.94 796.33 202.39 789.94 198.15 794.64 190.79 800.96 195.09 800.37 195.94"/><polygon class="cls-1" points="841.77 226.11 834.24 238.12 840.63 243.01 840.84 247.85 848.36 247.85 848.88 238.12 851.86 231.78 841.77 226.11"/><polygon class="cls-1" points="679.5 207.91 679.5 223.46 671.71 223.46 673.74 207.91 679.5 207.91"/><polygon class="cls-1" points="686.68 214.59 682.37 220.12 695.11 229.11 699.88 222.37 686.68 214.59"/><polygon class="cls-1" points="694.91 169.14 692.4 172.99 680.66 165.19 683.28 161.16 694.91 169.14"/><polygon class="cls-1" points="680.66 172.74 678.27 175.94 686.98 181.28 688.9 178.2 680.66 172.74"/><polygon class="cls-1" points="856.75 283.93 853.7 292.54 833.52 279.18 837.9 272.17 856.75 283.93"/></g><g id="Land_Division" data-name="Land Division"><line class="cls-8" x1="288.27" y1="297.02" x2="281.18" y2="353.22"/><line class="cls-8" x1="296.98" y1="298.05" x2="289.91" y2="354.13"/><line class="cls-8" x1="303.98" y1="298.88" x2="296.92" y2="354.89"/><polyline class="cls-8" points="255.78 293.16 346.38 303.91 339.38 359.49 264.19 351.35 271.29 295"/><line class="cls-8" x1="312.73" y1="299.92" x2="305.68" y2="355.84"/><line class="cls-8" x1="321.36" y1="300.94" x2="317.62" y2="330.61"/><line class="cls-8" x1="337.19" y1="302.82" x2="330.17" y2="358.49"/><polyline class="cls-8" points="309.15 329.43 325.03 331.7 328.8 301.82"/><polygon class="cls-8" points="263.46 353.22 314.07 359.57 339.14 362.71 332.22 420.81 307.65 418 255.78 412.06 255.78 353.22 263.46 353.22"/><line class="cls-8" x1="314.07" y1="359.57" x2="307.65" y2="418"/><polygon class="cls-8" points="359.3 305.41 345.14 421.87 479.39 437.33 491.64 320.76 359.3 305.41"/><line class="cls-8" x1="392.79" y1="309.29" x2="387.28" y2="366.87"/><line class="cls-8" x1="411.99" y1="311.52" x2="405.96" y2="369.17"/><line class="cls-8" x1="426.47" y1="313.2" x2="419.86" y2="370.88"/><line class="cls-8" x1="449.86" y1="315.92" x2="443.6" y2="373.81"/><polyline class="cls-8" points="384.95 308.38 378.15 365.75 485.52 378.98 533.83 386.06 568.09 409.48 618.83 340.02 615.66 334.71 491.64 320.76"/><line class="cls-8" x1="462.22" y1="435.35" x2="469.05" y2="376.95"/><line class="cls-8" x1="443.6" y1="433.21" x2="451.83" y2="374.82"/><line class="cls-8" x1="411.99" y1="429.28" x2="419.86" y2="370.88"/><line class="cls-8" x1="516.48" y1="323.56" x2="509.78" y2="382.53"/><line class="cls-8" x1="533.34" y1="325.45" x2="527.08" y2="385.07"/><line class="cls-8" x1="533.83" y1="386.06" x2="573.26" y2="329.94"/><line class="cls-8" x1="594.89" y1="372.79" x2="560.33" y2="348.35"/><line class="cls-8" x1="547.28" y1="366.92" x2="581.36" y2="391.31"/><line class="cls-8" x1="575.22" y1="399.71" x2="541.04" y2="375.8"/><line class="cls-8" x1="479.39" y1="437.33" x2="515.25" y2="443.49"/><polygon class="cls-8" points="255.78 237.82 354.8 249.37 349.78 290.71 255.78 279.83 255.78 237.82"/><polygon class="cls-8" points="255.78 186.79 360.44 199.47 355.51 242.79 255.78 231.78 255.78 186.79"/><line class="cls-8" x1="268.89" y1="239.35" x2="264.28" y2="280.81"/><line class="cls-8" x1="279.2" y1="240.55" x2="276.03" y2="282.17"/><line class="cls-8" x1="300.45" y1="242.79" x2="297.75" y2="284.68"/><line class="cls-8" x1="288.38" y1="235.38" x2="292.65" y2="191.26"/><line class="cls-8" x1="318.1" y1="238.66" x2="322.83" y2="194.91"/><line class="cls-8" x1="328.77" y1="240.55" x2="333.16" y2="196.16"/><polygon class="cls-8" points="370.02 202.28 359.18 291.54 631.48 323.56 689.39 243.68 684.75 239.22 370.02 202.28"/><line class="cls-8" x1="364.57" y1="247.14" x2="574.06" y2="272.59"/><polyline class="cls-8" points="394.14 205.12 388.53 250.05 385.69 294.66"/><polyline class="cls-8" points="405.27 206.42 399.67 251.4 397.82 296.09"/><polyline class="cls-8" points="414.92 207.55 408.76 252.5 407.53 297.23"/><line class="cls-8" x1="424.51" y1="208.68" x2="419.94" y2="253.86"/><line class="cls-8" x1="434.79" y1="209.89" x2="429.81" y2="255.06"/><polyline class="cls-8" points="445.65 211.16 440.39 256.35 437.59 300.76"/><polyline class="cls-8" points="456.38 212.42 451 257.64 448.44 302.04"/><polyline class="cls-8" points="465.68 213.51 461.49 258.91 458.6 303.23"/><line class="cls-8" x1="390.72" y1="232.47" x2="366.65" y2="230.03"/><polyline class="cls-8" points="466.59 304.17 470.55 260.01 476.04 214.73"/><polyline class="cls-8" points="487.27 216.04 480.88 261.27 477.12 305.41"/><polyline class="cls-8" points="487.27 306.6 490.57 262.45 498.49 217.36"/><polyline class="cls-8" points="508.7 218.56 501.39 263.76 498.49 307.92"/><polyline class="cls-8" points="508.7 309.12 512.82 265.15 520.27 219.92"/><polyline class="cls-8" points="528.61 220.9 522.82 266.37 520.27 310.48"/><line class="cls-8" x1="564.97" y1="271.49" x2="560.1" y2="315.16"/><polyline class="cls-8" points="570.95 316.44 574.06 272.59 587.3 227.78"/><line class="cls-8" x1="549.23" y1="223.32" x2="544.08" y2="268.95"/><polygon class="cls-8" points="255.78 121.18 366.65 134.28 360.44 190.42 255.78 177.09 255.78 121.18"/><polygon class="cls-8" points="382.67 84.45 370.81 190.42 447.01 200.02 459.64 92.48 382.67 84.45"/><polygon class="cls-8" points="469.32 94.54 457.24 201.37 492.88 206.34 505.56 99.59 469.32 94.54"/><polygon class="cls-8" points="511.01 99.59 498.49 206.34 532.84 209.88 546.4 104.41 511.01 99.59"/><polygon class="cls-8" points="520.95 17.72 512.74 89.25 547.75 93.09 554.45 37.6 520.95 17.72"/><polygon class="cls-8" points="480.57 0.95 471.03 84.45 505.56 88.58 514.92 14.2 495.33 0.78 480.57 0.95"/><polygon class="cls-8" points="434.6 0.78 425.96 78.03 461.31 82.71 471.03 0.78 434.6 0.78"/><line class="cls-8" x1="541.86" y1="139.7" x2="506.95" y2="136.42"/><line class="cls-8" x1="538.19" y1="168.24" x2="503.41" y2="164.37"/><polygon class="cls-8" points="564.39 44.68 544.08 212.42 579.13 217.36 596.22 63.79 564.39 44.68"/><polygon class="cls-8" points="602.21 68.1 585.73 218.56 618.88 222.41 635.36 88.58 602.21 68.1"/><polygon class="cls-8" points="644.34 94.13 629.74 223.31 663.07 227.28 675.24 114.54 644.34 94.13"/><polygon class="cls-8" points="681.79 117.43 670.37 228.04 698.27 231.78 746.96 160 681.79 117.43"/><polygon class="cls-8" points="755.63 163.77 708.66 232.5 755.63 239.14 789.43 184.9 755.63 163.77"/><polygon class="cls-8" points="795.01 188.61 763.6 239.81 807 243.74 827.62 210.21 795.01 188.61"/><line class="cls-8" x1="776.56" y1="205.54" x2="742.07" y2="183.63"/><line class="cls-8" x1="730.35" y1="200.76" x2="765.4" y2="223.46"/><line class="cls-8" x1="788.85" y1="198.65" x2="821.73" y2="219.79"/><line class="cls-8" x1="782.87" y1="208.4" x2="815.96" y2="229.17"/><path class="cls-8" d="M854.15,170.42s-3.8,25.9-7.1,33.23l35.13,24.12,25.91-65L906,161.07Z"/><path class="cls-8" d="M889,158.4l-35.37,6.52s-.35-12.5-1.41-18.31S827,17.26,827,17.26l38,4.4Z"/><line class="cls-8" x1="896.09" y1="192.87" x2="852.57" y2="180.21"/><line class="cls-8" x1="853.15" y1="155.95" x2="887.43" y2="149.71"/><line class="cls-8" x1="851.88" y1="145.05" x2="885.55" y2="138.96"/><line class="cls-8" x1="850.05" y1="135.56" x2="883.73" y2="128.72"/><line class="cls-8" x1="847.82" y1="124.08" x2="881.78" y2="117.43"/><line class="cls-8" x1="846.03" y1="114.9" x2="880.15" y2="108.1"/><line class="cls-8" x1="841.21" y1="90.13" x2="875.88" y2="83.72"/><polygon class="cls-8" points="894.26 157.46 910.66 155.13 913.75 143.96 925.08 29.18 871.02 22.16 889.76 130.8 894.26 157.46"/><path class="cls-8" d="M834.25,198.65,801,177.93s6.84-7.14,5.48-16.86S779,1.8,779,1.8l32.63.49,18.29,86.65s9,53.39,9.52,65S839.93,182.53,834.25,198.65Z"/><line class="cls-8" x1="885.15" y1="104.09" x2="918.2" y2="98.92"/><line class="cls-8" x1="887.43" y1="117.43" x2="916.79" y2="113.13"/><line class="cls-8" x1="876.72" y1="55.18" x2="923.11" y2="49.13"/><line class="cls-8" x1="879.21" y1="69.65" x2="921.37" y2="66.7"/><line class="cls-8" x1="839.16" y1="174.6" x2="805.58" y2="169.87"/><line class="cls-8" x1="839.16" y1="150.36" x2="805.29" y2="154.65"/><line class="cls-8" x1="838.06" y1="141.21" x2="804.07" y2="146.73"/><path class="cls-8" d="M796.63,174.6,759.9,151.92,735,1.8h39.54L799,146.73S803.81,165.62,796.63,174.6Z"/><line class="cls-8" x1="831.96" y1="101.24" x2="797.29" y2="107.18"/><line class="cls-8" x1="799.02" y1="146.73" x2="759.9" y2="151.92"/><polygon class="cls-8" points="688.75 1.8 710.81 121.44 749.67 143.97 727.41 2.85 688.75 1.8"/><polygon class="cls-8" points="647.87 1.8 662.44 89.26 701.1 112.94 682.48 1.8 647.87 1.8"/><line class="cls-8" x1="741.07" y1="89.45" x2="705.77" y2="94.13"/><line class="cls-8" x1="708.66" y1="108.89" x2="743.27" y2="103.42"/><line class="cls-8" x1="682.95" y1="4.63" x2="649.29" y2="10.34"/><line class="cls-8" x1="685.1" y1="17.46" x2="651.6" y2="24.16"/><line class="cls-8" x1="694.4" y1="72.96" x2="660.77" y2="79.22"/><polygon class="cls-8" points="603.74 1.8 613.74 58.88 651.6 82.61 638.01 1.8 603.74 1.8"/><polygon class="cls-8" points="566.28 1.8 570.15 32.28 605.92 53.88 597.5 1.8 566.28 1.8"/><line class="cls-8" x1="644.45" y1="40.1" x2="611.25" y2="44.68"/><line class="cls-8" x1="646.77" y1="53.88" x2="613.74" y2="58.87"/><line class="cls-8" x1="641.77" y1="24.16" x2="608.51" y2="29.05"/><line class="cls-8" x1="601.24" y1="24.96" x2="570.15" y2="30.68"/><line class="cls-8" x1="598.88" y1="10.34" x2="568.08" y2="16.01"/><polygon class="cls-8" points="556.63 0.95 560.8 25.68 520.04 0.95 556.63 0.95"/></g><g id="Trees"><path class="cls-9" d="M649.82,355.69a5.62,5.62,0,0,0-.82,0,1.26,1.26,0,0,0-1,.83c-.2.62.1,1.31-.08,1.93-.11.37-.37.73-.25,1.08a2.57,2.57,0,0,0,.29.44c.32.54,0,1.3.42,1.8.2.26.54.39.68.68s.08.4.19.57.68.28,1.07.31.6.14.91.18c1.15.13,2.21-.73,3.37-.76.49,0,1,.11,1.44-.17s.45-1,.7-1.49.65-.83.6-1.31-.53-.78-.68-1.23a2.54,2.54,0,0,1,0-1,2.66,2.66,0,0,0-.28-1.52,1.73,1.73,0,0,0-1.21-.9c-.35-.05-.7,0-1,0-.62-.07-1.17-.49-1.79-.51a2.83,2.83,0,0,0-1.17.31C650.71,355.14,650.37,355.65,649.82,355.69Z"/><path class="cls-9" d="M791.34,384.72c-.39.07-.81.06-1.2.15-2.58.6-1.25,6.17-.52,7.72a4.39,4.39,0,0,0,1.72,2,4.57,4.57,0,0,0,3.24.13,15.8,15.8,0,0,1,3.22-.74,2.66,2.66,0,0,0,1.68-.34,2,2,0,0,0,.49-.76l.89-1.91a1.93,1.93,0,0,0,.25-.9c0-.5-.44-.88-.66-1.33-.54-1.14.15-2.63-.55-3.68s-2.25-.94-3.49-1.24a6.41,6.41,0,0,0-2.21-.45c-1,.13-1.71,1-2.67,1.28Z"/><path class="cls-10" d="M833.92,344.7c.09.39.08.8.18,1.2.66,2.56,6.2,1.1,7.73.33a4.27,4.27,0,0,0,2-1.76,4.57,4.57,0,0,0,.06-3.24,15.9,15.9,0,0,1-.81-3.21,2.72,2.72,0,0,0-.38-1.66,2,2,0,0,0-.77-.48L840,335a2,2,0,0,0-.92-.22c-.49,0-.86.46-1.31.68-1.12.58-2.63-.08-3.67.64s-.88,2.28-1.15,3.53a6.29,6.29,0,0,0-.4,2.21c.16,1,1.07,1.69,1.34,2.64A1.06,1.06,0,0,1,833.92,344.7Z"/><path class="cls-9" d="M817.23,357.38c-.4.08-.81.06-1.2.16-2.58.6-1.25,6.17-.52,7.71a4.24,4.24,0,0,0,1.72,2,4.51,4.51,0,0,0,3.24.13,15.78,15.78,0,0,1,3.22-.73,2.75,2.75,0,0,0,1.67-.34,2.06,2.06,0,0,0,.5-.76l.89-1.91a2,2,0,0,0,.25-.91c0-.49-.44-.88-.66-1.33-.54-1.13.14-2.63-.55-3.68s-2.26-.94-3.5-1.23a6.09,6.09,0,0,0-2.2-.45c-1,.13-1.71,1-2.67,1.27Z"/><path class="cls-9" d="M826,347.07c-.4.07-.81.06-1.21.15-2.57.6-1.25,6.18-.51,7.72a4.18,4.18,0,0,0,1.72,2,4.54,4.54,0,0,0,3.23.13,15.72,15.72,0,0,1,3.23-.73,2.76,2.76,0,0,0,1.67-.34,2.19,2.19,0,0,0,.5-.76l.88-1.91a1.86,1.86,0,0,0,.25-.91c0-.5-.44-.88-.65-1.33-.55-1.13.14-2.63-.55-3.68s-2.26-.94-3.5-1.24a6.34,6.34,0,0,0-2.2-.44c-1,.13-1.72,1-2.68,1.27Z"/><path class="cls-9" d="M897.45,225.21c-.55.1-1.12.09-1.67.21-3.56.83-1.73,8.54-.71,10.68a5.87,5.87,0,0,0,2.37,2.8,6.27,6.27,0,0,0,4.48.18,22.3,22.3,0,0,1,4.46-1,3.74,3.74,0,0,0,2.31-.47,2.75,2.75,0,0,0,.69-1l1.23-2.64a2.7,2.7,0,0,0,.34-1.26c0-.68-.6-1.21-.9-1.83-.76-1.57.19-3.64-.76-5.1s-3.13-1.3-4.84-1.71a8.63,8.63,0,0,0-3.05-.61c-1.36.18-2.37,1.41-3.7,1.76Z"/><path class="cls-9" d="M929.45,122c-.37.06-.75,0-1.12.14-2.42.56-1.17,5.78-.49,7.23a4.05,4.05,0,0,0,1.61,1.9,4.27,4.27,0,0,0,3,.12,14.65,14.65,0,0,1,3-.69,2.58,2.58,0,0,0,1.57-.31,2,2,0,0,0,.47-.72l.83-1.79a1.83,1.83,0,0,0,.23-.85c0-.46-.41-.82-.61-1.24-.51-1.06.13-2.46-.52-3.45s-2.11-.88-3.27-1.16a5.82,5.82,0,0,0-2.07-.41c-.92.12-1.6,1-2.5,1.19Z"/><path class="cls-9" d="M947.16,49.05c-.55.09-1.12.08-1.66.2-3.54.83-1.71,8.48-.71,10.6a5.84,5.84,0,0,0,2.37,2.79,6.27,6.27,0,0,0,4.44.18,21.36,21.36,0,0,1,4.43-1,3.73,3.73,0,0,0,2.3-.46A3,3,0,0,0,959,60.3l1.22-2.62a2.66,2.66,0,0,0,.34-1.25c-.05-.68-.6-1.2-.9-1.82-.75-1.56.19-3.61-.76-5.06s-3.1-1.29-4.8-1.7a8.75,8.75,0,0,0-3-.61c-1.35.18-2.35,1.41-3.67,1.75Z"/><path class="cls-9" d="M922.64,140.87c-.37.07-.76,0-1.13.14-2.41.56-1.17,5.78-.48,7.23a4,4,0,0,0,1.61,1.9,4.21,4.21,0,0,0,3,.12,15.9,15.9,0,0,1,3-.69,2.52,2.52,0,0,0,1.57-.31,2,2,0,0,0,.46-.71l.83-1.79a1.76,1.76,0,0,0,.24-.85c0-.47-.41-.83-.62-1.25-.51-1.06.14-2.46-.51-3.45s-2.12-.88-3.28-1.15a5.79,5.79,0,0,0-2.06-.42c-.93.12-1.61,1-2.51,1.19Z"/><path class="cls-9" d="M765.87,410.08c-.4.07-.81.05-1.2.15-2.58.6-1.25,6.17-.52,7.71a4.24,4.24,0,0,0,1.72,2,4.49,4.49,0,0,0,3.23.13,16,16,0,0,1,3.23-.73A2.61,2.61,0,0,0,774,419a2,2,0,0,0,.5-.76l.89-1.91a2,2,0,0,0,.25-.91c0-.49-.44-.87-.66-1.32-.55-1.14.14-2.63-.55-3.68s-2.26-.94-3.5-1.24a6.09,6.09,0,0,0-2.2-.45c-1,.13-1.71,1-2.68,1.28Z"/><path class="cls-9" d="M813.78,427.77c-.4.07-.81.06-1.2.15-2.58.6-1.25,6.17-.52,7.72a4.33,4.33,0,0,0,1.72,2,4.57,4.57,0,0,0,3.24.13,16.5,16.5,0,0,1,3.22-.74,2.67,2.67,0,0,0,1.67-.33,2.09,2.09,0,0,0,.5-.77l.89-1.91a1.93,1.93,0,0,0,.25-.9c0-.5-.44-.88-.66-1.33-.54-1.13.14-2.63-.55-3.68s-2.26-.94-3.5-1.24a6.08,6.08,0,0,0-2.2-.44c-1,.12-1.71,1-2.68,1.27Z"/><path class="cls-9" d="M877.42,408c-.55.1-1.12.08-1.66.21-3.55.82-1.72,8.49-.71,10.61a5.9,5.9,0,0,0,2.36,2.8,6.33,6.33,0,0,0,4.46.18,21.51,21.51,0,0,1,4.43-1,3.75,3.75,0,0,0,2.31-.47,2.81,2.81,0,0,0,.68-1l1.22-2.63a2.58,2.58,0,0,0,.34-1.25c0-.68-.6-1.21-.9-1.83-.75-1.56.2-3.62-.76-5.06s-3.1-1.3-4.81-1.71a8.53,8.53,0,0,0-3-.61c-1.36.18-2.36,1.41-3.68,1.75Z"/><path class="cls-9" d="M905.47,388.51c-.54.1-1.11.09-1.65.21-3.55.83-1.72,8.49-.71,10.62a5.88,5.88,0,0,0,2.36,2.79,6.22,6.22,0,0,0,4.46.18,22,22,0,0,1,4.43-1,3.7,3.7,0,0,0,2.3-.46,2.87,2.87,0,0,0,.69-1l1.22-2.63a2.63,2.63,0,0,0,.34-1.24c0-.69-.6-1.21-.9-1.83-.75-1.56.2-3.62-.76-5.07s-3.1-1.29-4.81-1.7a8.53,8.53,0,0,0-3-.61c-1.36.17-2.36,1.41-3.68,1.75Z"/><path class="cls-9" d="M900,349.91c-.55.1-1.12.08-1.66.21-3.54.82-1.72,8.49-.71,10.62a5.84,5.84,0,0,0,2.37,2.79,6.19,6.19,0,0,0,4.45.18,21.45,21.45,0,0,1,4.44-1,3.72,3.72,0,0,0,2.3-.47,2.81,2.81,0,0,0,.68-1l1.22-2.63a2.56,2.56,0,0,0,.35-1.25c-.05-.68-.61-1.21-.91-1.83-.75-1.56.2-3.62-.75-5.06s-3.11-1.3-4.82-1.71a8.75,8.75,0,0,0-3-.61c-1.36.18-2.35,1.41-3.68,1.76Z"/><path class="cls-9" d="M841.87,503.13c-.4.07-.81.06-1.21.15-2.57.6-1.25,6.18-.51,7.72a4.18,4.18,0,0,0,1.72,2,4.49,4.49,0,0,0,3.23.13,15.72,15.72,0,0,1,3.23-.73,2.75,2.75,0,0,0,1.67-.34,2.06,2.06,0,0,0,.5-.76l.89-1.91a1.85,1.85,0,0,0,.24-.91c0-.5-.44-.88-.65-1.33-.55-1.13.14-2.63-.55-3.68s-2.26-.94-3.5-1.24a6.29,6.29,0,0,0-2.2-.44c-1,.13-1.72,1-2.68,1.27Z"/><path class="cls-9" d="M735.85,433.54c-.15.38-.37.73-.5,1.11-.82,2.51,4.63,4.27,6.33,4.45a4.31,4.31,0,0,0,2.63-.42,4.54,4.54,0,0,0,1.79-2.7,16.06,16.06,0,0,1,1-3.14,2.62,2.62,0,0,0,.58-1.6,2,2,0,0,0-.39-.82l-1.17-1.75a2,2,0,0,0-.65-.69,4,4,0,0,0-1.47-.12c-1.26-.13-2.18-1.49-3.43-1.44s-2,1.44-2.88,2.34a6.28,6.28,0,0,0-1.52,1.66c-.4.91,0,2-.3,2.95Z"/><path class="cls-9" d="M705.49,457.32c-.14.38-.37.72-.49,1.11-.83,2.51,4.62,4.27,6.33,4.44a4.21,4.21,0,0,0,2.62-.42,4.52,4.52,0,0,0,1.79-2.69,16.09,16.09,0,0,1,1-3.14,2.69,2.69,0,0,0,.58-1.61,2.21,2.21,0,0,0-.39-.82l-1.18-1.75a1.9,1.9,0,0,0-.64-.68,4,4,0,0,0-1.48-.13c-1.25-.12-2.17-1.48-3.43-1.44s-2,1.45-2.87,2.35a6.29,6.29,0,0,0-1.53,1.65c-.4.91,0,2-.3,2.95A.64.64,0,0,1,705.49,457.32Z"/><path class="cls-9" d="M664.05,480.83c-.15.38-.37.73-.5,1.11-.82,2.52,4.63,4.27,6.33,4.45a4.3,4.3,0,0,0,2.63-.42,4.51,4.51,0,0,0,1.79-2.7,15.45,15.45,0,0,1,1.05-3.14,2.76,2.76,0,0,0,.58-1.6,2,2,0,0,0-.4-.82L674.36,476a1.9,1.9,0,0,0-.64-.68,4,4,0,0,0-1.48-.13c-1.25-.13-2.18-1.49-3.43-1.44s-2,1.44-2.88,2.35a6.1,6.1,0,0,0-1.52,1.65c-.4.91,0,2-.3,3Z"/><path class="cls-9" d="M598.19,497.58c-.15.38-.37.73-.5,1.11-.82,2.51,4.63,4.27,6.33,4.45a4.31,4.31,0,0,0,2.63-.42,4.54,4.54,0,0,0,1.79-2.7,16.06,16.06,0,0,1,1-3.14,2.69,2.69,0,0,0,.58-1.6,2,2,0,0,0-.39-.82l-1.17-1.75a2,2,0,0,0-.65-.69,3.78,3.78,0,0,0-1.47-.12c-1.26-.13-2.18-1.49-3.44-1.44s-2,1.44-2.87,2.34a6.28,6.28,0,0,0-1.52,1.66c-.4.91,0,2-.3,3Z"/><path class="cls-9" d="M653.66,539c-.18.45-.44.86-.59,1.32-1,3,5.49,5.07,7.51,5.28a5.05,5.05,0,0,0,3.12-.5,5.38,5.38,0,0,0,2.13-3.2,19,19,0,0,1,1.24-3.73,3.24,3.24,0,0,0,.69-1.9,2.47,2.47,0,0,0-.47-1l-1.39-2.08a2.3,2.3,0,0,0-.77-.81c-.52-.27-1.16-.09-1.75-.15-1.49-.15-2.58-1.77-4.08-1.71s-2.34,1.71-3.41,2.79c-.63.64-1.45,1.14-1.81,2-.47,1.08,0,2.37-.35,3.5C653.71,538.89,653.68,539,653.66,539Z"/><path class="cls-9" d="M564.81,506.75c-.14.37-.37.72-.49,1.1-.83,2.52,4.63,4.27,6.33,4.45a4.28,4.28,0,0,0,2.62-.42,4.53,4.53,0,0,0,1.8-2.7,16,16,0,0,1,1-3.13,2.72,2.72,0,0,0,.58-1.61,2.14,2.14,0,0,0-.39-.82l-1.18-1.75a1.82,1.82,0,0,0-.64-.68c-.44-.23-1-.08-1.48-.13-1.25-.12-2.17-1.49-3.43-1.44s-2,1.44-2.87,2.35a6.13,6.13,0,0,0-1.53,1.65c-.4.91,0,2-.3,2.95A.64.64,0,0,1,564.81,506.75Z"/><path class="cls-9" d="M557,519.58c-.15.37-.37.72-.5,1.11-.82,2.51,4.63,4.27,6.33,4.44a4.31,4.31,0,0,0,2.63-.42,4.51,4.51,0,0,0,1.79-2.7,16,16,0,0,1,1-3.13,2.69,2.69,0,0,0,.58-1.61,2,2,0,0,0-.39-.82l-1.17-1.75a1.93,1.93,0,0,0-.65-.68c-.44-.23-1-.08-1.48-.13-1.25-.12-2.17-1.49-3.43-1.44s-2,1.44-2.87,2.35c-.53.54-1.22,1-1.52,1.65-.41.91,0,2-.3,2.95Z"/><path class="cls-9" d="M518.11,529.06c-.54.05-1.1,0-1.64.07-3.54.54-2.35,8.2-1.53,10.37a5.84,5.84,0,0,0,2.11,2.92,6.14,6.14,0,0,0,4.35.53,21.07,21.07,0,0,1,4.44-.65,3.68,3.68,0,0,0,2.29-.27,2.94,2.94,0,0,0,.76-1l1.4-2.48a2.56,2.56,0,0,0,.43-1.2c0-.68-.5-1.23-.74-1.86-.61-1.59.47-3.54-.35-5s-3-1.52-4.59-2.05a8.39,8.39,0,0,0-2.93-.84c-1.34.07-2.42,1.2-3.74,1.43Z"/><path class="cls-9" d="M442.38,469.51c-.24.63-.62,1.21-.83,1.86-1.37,4.2,7.74,7.13,10.58,7.43a7.21,7.21,0,0,0,4.4-.7,7.57,7.57,0,0,0,3-4.51,26.32,26.32,0,0,1,1.75-5.25,4.54,4.54,0,0,0,1-2.68,3.52,3.52,0,0,0-.66-1.38l-2-2.92a3.11,3.11,0,0,0-1.08-1.14,6.74,6.74,0,0,0-2.47-.22c-2.09-.2-3.63-2.48-5.74-2.4s-3.3,2.41-4.8,3.92c-.89.9-2,1.61-2.55,2.77-.67,1.52,0,3.33-.5,4.93A2.47,2.47,0,0,1,442.38,469.51Z"/><path class="cls-9" d="M402.54,478.62c-.24.63-.62,1.21-.83,1.86-1.38,4.2,7.74,7.14,10.58,7.43a7.21,7.21,0,0,0,4.4-.7,7.57,7.57,0,0,0,3-4.51,26.32,26.32,0,0,1,1.75-5.25c.46-.85,1.11-1.72,1-2.68a3.27,3.27,0,0,0-.65-1.37l-2-2.93a3.2,3.2,0,0,0-1.08-1.14,7,7,0,0,0-2.47-.22c-2.09-.2-3.64-2.48-5.74-2.4s-3.3,2.41-4.8,3.92c-.89.9-2,1.61-2.55,2.77-.67,1.52,0,3.33-.5,4.93A2.47,2.47,0,0,1,402.54,478.62Z"/><path class="cls-9" d="M399.06,528.86c-.21.53-.53,1-.7,1.56-1.16,3.55,6.52,6,8.92,6.27a6.05,6.05,0,0,0,3.71-.59,6.35,6.35,0,0,0,2.52-3.8,22.6,22.6,0,0,1,1.48-4.43,3.77,3.77,0,0,0,.81-2.26,2.89,2.89,0,0,0-.55-1.16L413.6,522a2.74,2.74,0,0,0-.91-1,5.8,5.8,0,0,0-2.09-.18c-1.76-.17-3.06-2.1-4.84-2s-2.78,2-4.05,3.31a8.94,8.94,0,0,0-2.15,2.33c-.56,1.29,0,2.82-.42,4.16A1.83,1.83,0,0,1,399.06,528.86Z"/><path class="cls-9" d="M829,461.4c-.14.38-.37.73-.49,1.11-.83,2.51,4.62,4.27,6.33,4.45a4.28,4.28,0,0,0,2.62-.42,4.54,4.54,0,0,0,1.79-2.7,16.09,16.09,0,0,1,1-3.14,2.69,2.69,0,0,0,.58-1.6,2.07,2.07,0,0,0-.39-.82l-1.18-1.75a1.85,1.85,0,0,0-.64-.69,3.83,3.83,0,0,0-1.48-.12c-1.25-.13-2.17-1.49-3.43-1.44s-2,1.44-2.87,2.34a6.32,6.32,0,0,0-1.53,1.66c-.4.91,0,2-.3,2.94A.64.64,0,0,1,829,461.4Z"/><path class="cls-9" d="M681,565.39c-.18.48-.46.92-.62,1.4-1.05,3.18,5.85,5.41,8,5.63a5.42,5.42,0,0,0,3.33-.53,5.77,5.77,0,0,0,2.27-3.41,20.2,20.2,0,0,1,1.32-4,3.43,3.43,0,0,0,.73-2,2.84,2.84,0,0,0-.49-1L694,559.22a2.34,2.34,0,0,0-.82-.86c-.56-.29-1.24-.1-1.86-.17-1.59-.15-2.76-1.88-4.35-1.82s-2.5,1.83-3.63,3a7.68,7.68,0,0,0-1.93,2.1c-.51,1.15,0,2.52-.38,3.73A2,2,0,0,1,681,565.39Z"/><path class="cls-9" d="M698.16,461.1c-.28.11-.58.16-.85.28-1.78.81,0,4.65.74,5.66a3.17,3.17,0,0,0,1.54,1.22,3.34,3.34,0,0,0,2.36-.37,11.62,11.62,0,0,1,2.22-1,2,2,0,0,0,1.17-.48,1.57,1.57,0,0,0,.25-.63l.36-1.51a1.36,1.36,0,0,0,0-.69c-.09-.36-.44-.57-.66-.87-.56-.74-.28-1.92-.93-2.58s-1.77-.36-2.71-.39a4.63,4.63,0,0,0-1.66,0c-.7.24-1.09,1-1.75,1.31Z"/><path class="cls-9" d="M639.16,479.17c-.28.11-.58.16-.85.28-1.78.81,0,4.65.74,5.66a3.19,3.19,0,0,0,1.54,1.23A3.4,3.4,0,0,0,643,486a12.06,12.06,0,0,1,2.23-1,2,2,0,0,0,1.16-.48,1.53,1.53,0,0,0,.25-.62l.36-1.51a1.39,1.39,0,0,0,0-.7c-.09-.35-.44-.57-.66-.86-.56-.75-.28-1.93-.93-2.59s-1.77-.35-2.71-.39a4.63,4.63,0,0,0-1.66,0c-.7.23-1.09,1-1.75,1.31Z"/><path class="cls-9" d="M642.23,487.55c-.28.11-.58.16-.85.28-1.78.81,0,4.65.74,5.66a3.17,3.17,0,0,0,1.53,1.23,3.42,3.42,0,0,0,2.37-.38,12.27,12.27,0,0,1,2.22-1,2,2,0,0,0,1.16-.48,1.55,1.55,0,0,0,.26-.62l.36-1.51a1.39,1.39,0,0,0,.05-.7c-.1-.35-.44-.57-.67-.86-.55-.75-.27-1.93-.93-2.59s-1.77-.35-2.71-.39a4.63,4.63,0,0,0-1.66,0c-.69.23-1.09,1-1.75,1.31Z"/><path class="cls-9" d="M634.59,301.09c-.27,0-.55,0-.82,0a1.28,1.28,0,0,0-1,.84c-.21.61.09,1.31-.09,1.93-.1.36-.37.72-.24,1.08a3,3,0,0,0,.28.44c.33.53,0,1.3.43,1.8.19.25.54.39.68.68a3.81,3.81,0,0,0,.19.57c.21.32.68.27,1.06.31s.61.14.91.17c1.15.14,2.21-.72,3.37-.75.5,0,1,.11,1.44-.18s.46-1,.71-1.49.64-.82.6-1.31-.53-.78-.68-1.22a2.41,2.41,0,0,1,0-1,2.69,2.69,0,0,0-.28-1.51,1.75,1.75,0,0,0-1.22-.9c-.34-.06-.69,0-1,0-.62-.07-1.16-.5-1.79-.51a2.68,2.68,0,0,0-1.16.31C635.47,300.55,635.14,301.06,634.59,301.09Z"/><path class="cls-9" d="M583.22,264.05c-.28,0-.56,0-.83,0a1.28,1.28,0,0,0-1,.84c-.2.62.1,1.31-.08,1.93-.11.36-.37.73-.25,1.08a2.57,2.57,0,0,0,.29.44c.32.53,0,1.3.43,1.8.19.25.53.39.67.68s.08.4.2.57.68.27,1.06.31.6.14.91.17c1.15.14,2.21-.72,3.37-.75.49,0,1,.11,1.44-.18s.46-1,.7-1.48.65-.83.6-1.32-.53-.77-.68-1.22a2.59,2.59,0,0,1,0-1,2.61,2.61,0,0,0-.28-1.51,1.73,1.73,0,0,0-1.21-.9c-.34-.06-.7,0-1,0-.62-.07-1.17-.49-1.79-.51a2.87,2.87,0,0,0-1.17.31C584.1,263.51,583.76,264,583.22,264.05Z"/><path class="cls-9" d="M643.7,363.79c-.28,0-.55,0-.82,0a1.28,1.28,0,0,0-1,.84c-.2.62.1,1.31-.08,1.93-.11.36-.37.72-.24,1.08a2.32,2.32,0,0,0,.28.44c.32.53,0,1.3.43,1.8.19.25.53.39.67.68a5.49,5.49,0,0,0,.2.57c.21.32.68.27,1.06.31s.6.14.91.17c1.15.14,2.21-.72,3.37-.75.49,0,1,.11,1.44-.18s.46-1,.7-1.49.65-.82.6-1.31-.53-.77-.67-1.22a2.4,2.4,0,0,1,0-1,2.54,2.54,0,0,0-.28-1.51,1.73,1.73,0,0,0-1.21-.9c-.34-.06-.69,0-1,0-.62-.07-1.17-.5-1.79-.51a2.76,2.76,0,0,0-1.17.31C644.58,363.25,644.24,363.76,643.7,363.79Z"/><path class="cls-9" d="M632.35,340.88c-.16,0-.32,0-.47,0a.74.74,0,0,0-.56.48c-.12.36,0,.76-.05,1.12-.06.2-.21.41-.14.62a1.75,1.75,0,0,0,.16.25c.19.31,0,.75.25,1s.31.23.39.4,0,.23.11.33.39.15.61.18.35.07.52.09c.67.08,1.28-.41,1.94-.43.29,0,.6.07.83-.1s.27-.57.41-.86.37-.47.34-.75-.3-.45-.39-.71a1.56,1.56,0,0,1,0-.57,1.45,1.45,0,0,0-.16-.87,1,1,0,0,0-.7-.52c-.19,0-.4,0-.6,0-.35,0-.67-.28-1-.29a1.49,1.49,0,0,0-.67.18C632.86,340.57,632.66,340.86,632.35,340.88Z"/><path class="cls-9" d="M758.24,415.82a3.65,3.65,0,0,0-.47,0,.71.71,0,0,0-.56.48c-.12.35,0,.75-.05,1.11-.06.21-.22.42-.14.62a1.07,1.07,0,0,0,.16.25c.19.31,0,.75.25,1s.31.22.39.39,0,.23.11.33.39.16.61.18.35.08.52.1c.67.08,1.28-.42,1.94-.44.29,0,.6.07.83-.1s.27-.57.41-.85.37-.48.34-.76-.3-.45-.39-.7a1.62,1.62,0,0,1,0-.58A1.45,1.45,0,0,0,762,416a1,1,0,0,0-.7-.52c-.19,0-.4,0-.6,0a9.32,9.32,0,0,0-1-.3,1.64,1.64,0,0,0-.67.18C758.75,415.5,758.55,415.8,758.24,415.82Z"/><path class="cls-9" d="M450.28,484.47c-.16,0-.32,0-.47,0a.74.74,0,0,0-.56.49c-.12.35.05.75-.05,1.11s-.21.41-.14.62a1.32,1.32,0,0,0,.16.25c.19.31,0,.75.25,1,.11.14.31.22.39.39s.05.23.11.33.39.16.61.18.35.08.53.1c.66.07,1.27-.42,1.94-.44.28,0,.6.07.83-.1s.26-.57.4-.86.37-.47.35-.75-.31-.45-.39-.71a1.37,1.37,0,0,1,0-.57,1.53,1.53,0,0,0-.17-.87,1,1,0,0,0-.69-.52c-.2,0-.4,0-.6,0-.36,0-.67-.28-1-.29a1.64,1.64,0,0,0-.68.18C450.79,484.16,450.6,484.45,450.28,484.47Z"/><path class="cls-9" d="M437.07,460.9a3.85,3.85,0,0,0-.48,0,.72.72,0,0,0-.56.48c-.11.35.06.75,0,1.11-.06.21-.21.42-.14.62a2.33,2.33,0,0,0,.17.26c.18.3,0,.74.24,1s.31.22.39.39a3.19,3.19,0,0,0,.11.33c.13.18.4.16.62.18s.34.08.52.1c.66.08,1.27-.42,1.94-.43.28,0,.6.06.83-.11s.26-.57.4-.85.38-.48.35-.76-.31-.45-.39-.7a1.42,1.42,0,0,1,0-.58,1.62,1.62,0,0,0-.16-.87,1.05,1.05,0,0,0-.7-.52c-.2,0-.4,0-.6,0-.36-.05-.67-.29-1-.3a1.6,1.6,0,0,0-.67.18C437.57,460.58,437.38,460.88,437.07,460.9Z"/><path class="cls-9" d="M372.24,465.41a3.62,3.62,0,0,0-.47,0,.71.71,0,0,0-.56.48c-.12.35.05.75,0,1.11s-.21.42-.14.62a1.07,1.07,0,0,0,.16.25c.19.31,0,.75.25,1s.31.22.39.39a3.19,3.19,0,0,0,.11.33c.12.18.39.16.61.18s.35.08.53.1c.66.08,1.27-.42,1.94-.44.28,0,.6.07.83-.1s.26-.57.4-.85.37-.48.35-.76-.31-.45-.39-.71a1.37,1.37,0,0,1,0-.57,1.45,1.45,0,0,0-.16-.87,1,1,0,0,0-.7-.52c-.19,0-.4,0-.59,0-.36-.05-.68-.29-1-.3a1.64,1.64,0,0,0-.68.18C372.75,465.1,372.56,465.39,372.24,465.41Z"/><path class="cls-9" d="M375,495.45a3.77,3.77,0,0,0-.47,0,.72.72,0,0,0-.56.48c-.11.35.06.75-.05,1.11-.06.21-.21.42-.14.62a1.56,1.56,0,0,0,.17.25c.18.31,0,.75.24,1s.31.22.39.39a3.19,3.19,0,0,0,.11.33c.13.18.4.16.62.18s.34.08.52.1c.66.08,1.27-.42,1.94-.44.28,0,.6.07.83-.1s.26-.57.4-.85.38-.48.35-.76-.31-.45-.39-.7a1.42,1.42,0,0,1,0-.58,1.62,1.62,0,0,0-.16-.87,1.05,1.05,0,0,0-.7-.52c-.2,0-.4,0-.6,0-.36-.05-.67-.29-1-.3a1.6,1.6,0,0,0-.67.18C375.54,495.14,375.35,495.43,375,495.45Z"/><path class="cls-9" d="M375,542.44c-.15,0-.31,0-.47,0a.76.76,0,0,0-.56.48c-.11.36.06.76-.05,1.12-.06.2-.21.41-.14.62s.12.16.17.25c.18.31,0,.75.24,1s.31.23.39.4.05.23.11.33.4.15.62.18.34.07.52.09c.66.08,1.27-.41,1.94-.43.28,0,.6.06.83-.1s.26-.57.4-.86.38-.47.35-.75-.31-.45-.39-.71a1.37,1.37,0,0,1,0-.57,1.62,1.62,0,0,0-.16-.87,1,1,0,0,0-.7-.52c-.2,0-.4,0-.6,0-.36,0-.67-.28-1-.29a1.46,1.46,0,0,0-.67.18C375.54,542.13,375.35,542.42,375,542.44Z"/><path class="cls-10" d="M416.84,461.6a3.65,3.65,0,0,0-.47,0,.71.71,0,0,0-.56.48c-.12.35.05.75-.05,1.11s-.21.42-.14.62a1.4,1.4,0,0,0,.16.26c.19.3,0,.74.25,1s.31.23.39.39a3.19,3.19,0,0,0,.11.33c.12.19.39.16.61.18s.35.08.53.1c.66.08,1.27-.42,1.93-.43.29,0,.6.06.84-.11s.26-.56.4-.85.37-.48.34-.76-.3-.45-.39-.7a1.61,1.61,0,0,1,0-.58,1.45,1.45,0,0,0-.16-.87,1,1,0,0,0-.7-.52c-.19,0-.4,0-.59,0-.36,0-.68-.29-1-.3a1.81,1.81,0,0,0-.68.18C417.35,461.28,417.15,461.58,416.84,461.6Z"/><path class="cls-10" d="M393.89,486a3.65,3.65,0,0,0-.47,0,.72.72,0,0,0-.56.48c-.12.36.05.76-.05,1.12-.06.2-.21.41-.14.62a1.75,1.75,0,0,0,.16.25c.19.31,0,.75.25,1s.31.23.39.4a3,3,0,0,0,.11.32c.12.19.39.16.61.18s.35.08.53.1c.66.08,1.27-.41,1.94-.43.28,0,.6.06.83-.1s.26-.57.4-.86.37-.47.35-.75-.31-.45-.39-.71a1.37,1.37,0,0,1,0-.57,1.58,1.58,0,0,0-.17-.88,1,1,0,0,0-.7-.51c-.19,0-.39,0-.59,0-.36,0-.67-.28-1-.29a1.63,1.63,0,0,0-.68.17C394.4,485.71,394.21,486,393.89,486Z"/><path class="cls-9" d="M755.67,390.27a3.85,3.85,0,0,0-.48,0,.71.71,0,0,0-.55.48c-.12.35.05.75,0,1.11-.06.21-.22.42-.14.62a1.07,1.07,0,0,0,.16.25c.19.31,0,.75.25,1s.3.22.39.39,0,.23.11.33.39.16.61.18.35.08.52.1c.67.08,1.28-.42,1.94-.43.29,0,.6.06.83-.11s.27-.57.41-.85.37-.48.34-.76-.3-.45-.39-.7a1.42,1.42,0,0,1,0-.58,1.45,1.45,0,0,0-.16-.87,1,1,0,0,0-.7-.52c-.2,0-.4,0-.6,0a9.32,9.32,0,0,0-1-.3,1.64,1.64,0,0,0-.67.18C756.18,390,756,390.25,755.67,390.27Z"/><path class="cls-9" d="M799.56,456.9a3.65,3.65,0,0,0-.47,0,.71.71,0,0,0-.56.48c-.12.36.05.75,0,1.11-.06.21-.22.42-.14.62a1.4,1.4,0,0,0,.16.26c.19.3,0,.75.25,1s.31.23.39.39,0,.24.11.33.39.16.61.18.35.08.52.1c.67.08,1.28-.41,1.94-.43.29,0,.6.06.83-.1s.27-.57.41-.86.37-.48.34-.76-.3-.44-.39-.7a1.56,1.56,0,0,1,0-.57,1.5,1.5,0,0,0-.16-.88,1,1,0,0,0-.7-.52c-.2,0-.4,0-.6,0s-.67-.29-1-.3a1.81,1.81,0,0,0-.67.18C800.07,456.58,799.87,456.88,799.56,456.9Z"/><path class="cls-9" d="M615.65,486.31c-.15,0-.31,0-.47,0a.74.74,0,0,0-.56.48c-.12.36.06.76,0,1.12-.06.21-.21.41-.14.62a1.38,1.38,0,0,0,.17.25c.18.31,0,.75.24,1s.31.22.39.39,0,.23.11.33.39.16.61.18.35.08.53.1c.66.07,1.27-.42,1.94-.44.28,0,.6.07.83-.1s.26-.57.4-.86.38-.47.35-.75-.31-.45-.39-.71a1.37,1.37,0,0,1,0-.57,1.62,1.62,0,0,0-.16-.87,1,1,0,0,0-.7-.52c-.2,0-.4,0-.6,0-.36,0-.67-.28-1-.29a1.56,1.56,0,0,0-.67.18C616.16,486,616,486.29,615.65,486.31Z"/><path class="cls-9" d="M581.75,506.59c-.15,0-.31,0-.47,0a.75.75,0,0,0-.56.49c-.12.35.06.75-.05,1.11s-.21.41-.14.62a1.38,1.38,0,0,0,.17.25c.18.31,0,.75.24,1,.11.14.31.22.39.39s0,.23.11.33.39.16.61.18.35.08.53.1c.66.07,1.27-.42,1.94-.44.28,0,.6.07.83-.1s.26-.57.4-.86.38-.47.35-.75-.31-.45-.39-.71a1.37,1.37,0,0,1,0-.57,1.62,1.62,0,0,0-.16-.87,1,1,0,0,0-.7-.52c-.2,0-.4,0-.6,0-.36,0-.67-.28-1-.29a1.6,1.6,0,0,0-.67.18C582.26,506.28,582.07,506.57,581.75,506.59Z"/><path class="cls-9" d="M529.48,489.66c-.16,0-.32,0-.47,0a.74.74,0,0,0-.56.49c-.12.35,0,.75-.05,1.11s-.21.42-.14.62a1.32,1.32,0,0,0,.16.25c.19.31,0,.75.25,1s.31.22.39.39a3.19,3.19,0,0,0,.11.33c.12.18.39.16.61.18s.35.08.53.1c.66.07,1.27-.42,1.94-.44.28,0,.6.07.83-.1s.26-.57.4-.85.37-.48.34-.76-.3-.45-.38-.71a1.37,1.37,0,0,1,0-.57,1.45,1.45,0,0,0-.16-.87,1,1,0,0,0-.7-.52c-.19,0-.4,0-.59,0-.36-.05-.68-.29-1-.3a1.64,1.64,0,0,0-.68.18C530,489.35,529.8,489.64,529.48,489.66Z"/><path class="cls-9" d="M567.36,471.1c-.16,0-.32,0-.47,0a.74.74,0,0,0-.56.49c-.12.35,0,.75-.05,1.11s-.21.41-.14.62a1.32,1.32,0,0,0,.16.25c.19.31,0,.75.25,1,.11.14.31.22.39.39s0,.23.11.33.39.16.61.18.35.08.53.1c.66.07,1.27-.42,1.94-.44.28,0,.6.07.83-.1s.26-.57.4-.86.37-.47.35-.75-.31-.45-.39-.71a1.37,1.37,0,0,1,0-.57,1.53,1.53,0,0,0-.17-.87,1,1,0,0,0-.7-.52c-.19,0-.39,0-.59,0-.36,0-.67-.28-1-.29a1.64,1.64,0,0,0-.68.18C567.87,470.79,567.68,471.08,567.36,471.1Z"/><path class="cls-9" d="M561.13,476.55a3.85,3.85,0,0,0-.48,0,.71.71,0,0,0-.55.48c-.12.35,0,.75-.05,1.11s-.22.42-.14.62a1.07,1.07,0,0,0,.16.25c.19.31,0,.75.25,1s.3.22.39.39,0,.23.11.33.39.16.61.18.35.08.52.1c.67.08,1.27-.42,1.94-.43.29,0,.6.06.83-.11s.27-.57.41-.85.37-.48.34-.76-.3-.45-.39-.7a1.42,1.42,0,0,1,0-.58,1.45,1.45,0,0,0-.16-.87,1,1,0,0,0-.7-.52c-.2,0-.4,0-.6,0a9.32,9.32,0,0,0-1-.3,1.64,1.64,0,0,0-.67.18C561.64,476.23,561.44,476.53,561.13,476.55Z"/><path class="cls-9" d="M566.12,372a3.85,3.85,0,0,0-.48,0,.74.74,0,0,0-.56.48c-.11.36.06.76-.05,1.12-.06.2-.21.41-.14.62s.12.16.17.25c.18.31,0,.75.24,1s.31.23.39.4,0,.23.11.33.4.15.62.17.34.08.52.1c.66.08,1.27-.41,1.94-.43.28,0,.6.06.83-.1s.26-.57.4-.86.38-.47.35-.75-.3-.45-.39-.71a1.37,1.37,0,0,1,0-.57,1.58,1.58,0,0,0-.16-.88,1,1,0,0,0-.7-.51c-.2,0-.4,0-.6,0-.36,0-.67-.28-1-.29a1.46,1.46,0,0,0-.67.18C566.62,371.71,566.43,372,566.12,372Z"/><path class="cls-9" d="M858.34,434.41a3.65,3.65,0,0,0-.47,0,.72.72,0,0,0-.56.48c-.12.36.05.76,0,1.12-.06.2-.22.41-.14.62a1.75,1.75,0,0,0,.16.25c.19.31,0,.75.25,1s.31.23.39.4,0,.23.11.33.39.15.61.17.35.08.52.1c.67.08,1.28-.41,1.94-.43.29,0,.6.06.83-.1s.27-.57.41-.86.37-.47.34-.75-.3-.45-.39-.71a1.56,1.56,0,0,1,0-.57,1.5,1.5,0,0,0-.16-.88,1,1,0,0,0-.7-.51c-.19,0-.4,0-.6,0-.35,0-.67-.28-1-.29a1.49,1.49,0,0,0-.67.18C858.85,434.1,858.65,434.39,858.34,434.41Z"/><path class="cls-9" d="M900.18,471a3.85,3.85,0,0,0-.48,0,.74.74,0,0,0-.56.48c-.11.36.06.76,0,1.12-.06.2-.21.41-.14.62s.12.16.17.25c.19.31,0,.75.24,1s.31.23.39.4,0,.23.12.32.39.16.61.18.34.08.52.1c.67.08,1.27-.41,1.94-.43.29,0,.6.06.83-.1s.26-.57.41-.86.37-.47.34-.75-.3-.45-.39-.71a1.37,1.37,0,0,1,0-.57,1.58,1.58,0,0,0-.16-.88,1,1,0,0,0-.7-.51c-.2,0-.4,0-.6,0s-.67-.28-1-.29a1.58,1.58,0,0,0-.67.17C900.69,470.69,900.49,471,900.18,471Z"/><path class="cls-9" d="M885.52,458.68c-.15,0-.31,0-.47,0a.76.76,0,0,0-.56.48c-.11.36.06.76,0,1.12-.06.2-.21.41-.14.62a1.84,1.84,0,0,0,.17.25c.18.31,0,.75.24,1s.31.23.39.4,0,.23.11.33.39.15.61.18.35.07.53.09c.66.08,1.27-.41,1.94-.43.28,0,.6.06.83-.1s.26-.57.4-.86.38-.47.35-.75-.31-.45-.39-.71a1.37,1.37,0,0,1,0-.57,1.62,1.62,0,0,0-.16-.87,1,1,0,0,0-.7-.52c-.2,0-.4,0-.6,0-.36,0-.67-.28-1-.29a1.46,1.46,0,0,0-.67.18C886,458.37,885.84,458.66,885.52,458.68Z"/><path class="cls-9" d="M908.77,419.73a3.62,3.62,0,0,0-.47,0,.71.71,0,0,0-.56.48c-.12.35,0,.75,0,1.11s-.22.42-.14.62a1.07,1.07,0,0,0,.16.25c.19.31,0,.75.25,1s.31.22.39.39,0,.23.11.33.39.16.61.18.35.08.52.1c.67.08,1.28-.42,1.94-.44.29,0,.6.07.83-.1s.27-.57.41-.85.37-.48.34-.76-.3-.45-.39-.71a1.56,1.56,0,0,1,0-.57,1.45,1.45,0,0,0-.16-.87,1,1,0,0,0-.7-.52c-.19,0-.4,0-.6,0a9.32,9.32,0,0,0-1-.3,1.64,1.64,0,0,0-.67.18C909.28,419.42,909.08,419.71,908.77,419.73Z"/><path class="cls-9" d="M806.7,370.84a3.85,3.85,0,0,0-.48,0,.73.73,0,0,0-.55.48c-.12.36.05.76,0,1.11s-.22.42-.14.62a1.4,1.4,0,0,0,.16.26c.19.31,0,.75.25,1s.3.23.39.4,0,.23.11.32.39.16.61.18.35.08.52.1c.67.08,1.27-.41,1.94-.43.29,0,.6.06.83-.1s.27-.57.41-.86.37-.47.34-.75-.3-.45-.39-.71a1.37,1.37,0,0,1,0-.57,1.5,1.5,0,0,0-.16-.88,1,1,0,0,0-.7-.51c-.2,0-.4,0-.6,0-.35,0-.67-.28-1-.29a1.62,1.62,0,0,0-.67.17C807.21,370.53,807,370.82,806.7,370.84Z"/><path class="cls-9" d="M797.31,318.59a3.85,3.85,0,0,0-.48,0,.73.73,0,0,0-.55.48c-.12.36.05.75,0,1.11-.06.21-.22.42-.14.62a1.4,1.4,0,0,0,.16.26c.19.3,0,.75.25,1s.31.23.39.39,0,.24.11.33.39.16.61.18.35.08.52.1c.67.08,1.28-.41,1.94-.43.29,0,.6.06.83-.1s.27-.57.41-.86.37-.47.34-.76-.3-.44-.39-.7a1.37,1.37,0,0,1,0-.57,1.5,1.5,0,0,0-.16-.88,1,1,0,0,0-.7-.52c-.2,0-.4,0-.6,0s-.67-.29-1-.3a1.81,1.81,0,0,0-.67.18C797.82,318.27,797.62,318.57,797.31,318.59Z"/><path class="cls-9" d="M813,367.25a3.85,3.85,0,0,0-.48,0,.73.73,0,0,0-.55.48c-.12.36.05.76,0,1.11s-.22.42-.14.62a1.4,1.4,0,0,0,.16.26c.19.31,0,.75.25,1s.3.23.39.4,0,.23.11.32.39.16.61.18.35.08.52.1c.67.08,1.28-.41,1.94-.43.29,0,.6.06.83-.1s.27-.57.41-.86.37-.47.34-.75-.3-.45-.39-.71a1.37,1.37,0,0,1,0-.57,1.5,1.5,0,0,0-.16-.88,1,1,0,0,0-.7-.51c-.2,0-.4,0-.6,0-.35,0-.67-.29-1-.3a1.81,1.81,0,0,0-.67.18C813.47,366.93,813.27,367.23,813,367.25Z"/><path class="cls-9" d="M815.75,317.78a3.65,3.65,0,0,0-.47,0,.71.71,0,0,0-.56.48c-.12.35,0,.75-.05,1.11-.06.21-.21.42-.14.62a1.4,1.4,0,0,0,.16.26c.19.3,0,.74.25,1s.31.22.39.39a3.19,3.19,0,0,0,.11.33c.12.18.39.16.61.18s.35.08.53.1c.66.08,1.27-.42,1.94-.43.28,0,.6.06.83-.11s.26-.57.4-.85.37-.48.35-.76-.31-.45-.39-.7a1.42,1.42,0,0,1,0-.58,1.53,1.53,0,0,0-.17-.87,1,1,0,0,0-.69-.52c-.2,0-.4,0-.6,0-.36,0-.67-.29-1-.3a1.64,1.64,0,0,0-.68.18C816.26,317.46,816.07,317.76,815.75,317.78Z"/><path class="cls-9" d="M832.12,297.55c-.15,0-.31,0-.47,0a.74.74,0,0,0-.56.49c-.12.35.06.75-.05,1.11-.06.21-.21.41-.14.62a1.38,1.38,0,0,0,.17.25c.18.31,0,.75.24,1,.11.14.31.22.39.39s0,.23.11.33.39.16.61.18.35.08.53.1c.66.07,1.27-.42,1.94-.44.28,0,.6.07.83-.1s.26-.57.4-.86.38-.47.35-.75-.31-.45-.39-.71a1.37,1.37,0,0,1,0-.57,1.62,1.62,0,0,0-.16-.87,1,1,0,0,0-.7-.52c-.2,0-.4,0-.6,0-.36-.05-.67-.29-1-.3a1.56,1.56,0,0,0-.67.18C832.63,297.24,832.44,297.53,832.12,297.55Z"/><path class="cls-10" d="M845.1,278.82c-.16,0-.32,0-.48,0a.76.76,0,0,0-.56.48c-.11.36.06.76,0,1.12-.06.2-.21.41-.14.62s.12.16.17.25c.18.31,0,.75.24,1s.31.23.39.4.05.23.11.33.4.15.62.18.34.07.52.09c.66.08,1.27-.41,1.94-.43.28,0,.6.07.83-.1s.26-.57.4-.86.38-.47.35-.75-.31-.45-.39-.71a1.37,1.37,0,0,1,0-.57,1.62,1.62,0,0,0-.16-.87,1,1,0,0,0-.7-.52c-.2,0-.4,0-.6,0-.36,0-.67-.28-1-.29a1.46,1.46,0,0,0-.67.18C845.6,278.51,845.41,278.8,845.1,278.82Z"/><path class="cls-9" d="M843.66,329.26c-.16,0-.32,0-.47,0a.74.74,0,0,0-.56.48c-.12.36,0,.76,0,1.12-.06.21-.21.41-.14.62a1.32,1.32,0,0,0,.16.25c.19.31,0,.75.25,1s.31.22.39.39,0,.23.11.33.39.16.61.18.35.08.53.1c.66.07,1.27-.42,1.94-.44.28,0,.6.07.83-.1s.26-.57.4-.86.37-.47.35-.75-.31-.45-.39-.71a1.37,1.37,0,0,1,0-.57,1.45,1.45,0,0,0-.16-.87,1,1,0,0,0-.7-.52c-.19,0-.4,0-.59,0-.36,0-.68-.28-1-.29a1.64,1.64,0,0,0-.68.18C844.17,329,844,329.24,843.66,329.26Z"/><path class="cls-9" d="M848.29,323.13a3.85,3.85,0,0,0-.48,0,.71.71,0,0,0-.55.48c-.12.35,0,.75,0,1.11-.06.21-.22.42-.14.62a1.07,1.07,0,0,0,.16.25c.19.31,0,.75.25,1s.3.22.39.39,0,.23.11.33.39.16.61.18.35.08.52.1c.67.08,1.27-.42,1.94-.44.29,0,.6.07.83-.1s.27-.57.41-.85.37-.48.34-.76-.3-.45-.39-.71a1.37,1.37,0,0,1,0-.57,1.45,1.45,0,0,0-.16-.87,1,1,0,0,0-.7-.52c-.2,0-.4,0-.6,0a9.32,9.32,0,0,0-1-.3,1.64,1.64,0,0,0-.67.18C848.8,322.82,848.6,323.11,848.29,323.13Z"/><path class="cls-9" d="M760.44,421.63a3.65,3.65,0,0,0-.47,0,.71.71,0,0,0-.56.48c-.12.36.05.75,0,1.11-.06.21-.21.42-.14.62a1.4,1.4,0,0,0,.16.26c.19.3,0,.75.25,1s.31.23.39.39a2.55,2.55,0,0,0,.11.33c.12.19.39.16.61.18s.35.08.53.1c.66.08,1.27-.41,1.94-.43.28,0,.6.06.83-.1s.26-.57.4-.86.38-.48.35-.76-.31-.44-.39-.7a1.42,1.42,0,0,1,0-.58,1.55,1.55,0,0,0-.17-.87,1,1,0,0,0-.69-.52c-.2,0-.4,0-.6,0-.36,0-.67-.29-1-.3a1.81,1.81,0,0,0-.68.18C761,421.31,760.76,421.61,760.44,421.63Z"/><path class="cls-9" d="M736.48,441.5a3.85,3.85,0,0,0-.48,0,.72.72,0,0,0-.56.48c-.11.35.06.75-.05,1.11-.06.21-.21.42-.14.62a2.33,2.33,0,0,0,.17.26c.18.3,0,.75.24,1s.31.23.39.39a2.55,2.55,0,0,0,.11.33c.13.19.4.16.62.18s.34.08.52.1c.66.08,1.27-.42,1.94-.43.28,0,.6.06.83-.11s.26-.56.4-.85.38-.48.35-.76-.3-.44-.39-.7a1.42,1.42,0,0,1,0-.58,1.63,1.63,0,0,0-.16-.87,1,1,0,0,0-.7-.52c-.2,0-.4,0-.6,0-.36,0-.67-.29-1-.3a1.76,1.76,0,0,0-.67.18C737,441.18,736.79,441.48,736.48,441.5Z"/><path class="cls-10" d="M629.25,344.68c-.16,0-.32,0-.47.06-1.3.23-.68,2.56-.32,3.34a1.92,1.92,0,0,0,.95,1.05c.78.31,1.62-.25,2.46-.31a2.18,2.18,0,0,0,.77-.1,1.37,1.37,0,0,0,.61-.74,1.56,1.56,0,0,0,.24-1.1c0-.21-.2-.39-.27-.6-.16-.5.1-1.13-.25-1.52a1.22,1.22,0,0,0-.69-.31l-1.06-.24a1.77,1.77,0,0,0-1.09,0c-.24.11-.43.32-.67.42A.83.83,0,0,1,629.25,344.68Z"/><path class="cls-10" d="M646.16,290.68l-.47.07c-1.3.23-.68,2.56-.32,3.33a1.92,1.92,0,0,0,1,1.05c.78.31,1.62-.24,2.46-.3a2.18,2.18,0,0,0,.77-.1,1.44,1.44,0,0,0,.61-.74,1.57,1.57,0,0,0,.24-1.1,5.46,5.46,0,0,0-.27-.6c-.17-.5.1-1.13-.25-1.53a1.29,1.29,0,0,0-.69-.31l-1.06-.24a1.77,1.77,0,0,0-1.09,0c-.25.11-.43.33-.67.42A.83.83,0,0,1,646.16,290.68Z"/><path class="cls-10" d="M715,265.16c-.16,0-.32,0-.47.06-1.3.23-.68,2.56-.32,3.33a1.89,1.89,0,0,0,1,1.05c.78.31,1.62-.24,2.46-.3a2.26,2.26,0,0,0,.78-.1,1.43,1.43,0,0,0,.6-.74,1.63,1.63,0,0,0,.25-1.1c-.06-.22-.21-.39-.28-.6-.16-.5.1-1.13-.25-1.53a1.29,1.29,0,0,0-.69-.31l-1.06-.24a1.69,1.69,0,0,0-1.09,0c-.24.1-.43.32-.67.42Z"/><path class="cls-10" d="M621.8,264.63l-.47.07c-1.3.23-.68,2.56-.32,3.33a1.92,1.92,0,0,0,1,1.05c.78.31,1.62-.24,2.46-.3a2.26,2.26,0,0,0,.78-.1,1.47,1.47,0,0,0,.6-.74,1.63,1.63,0,0,0,.25-1.1c-.06-.22-.21-.4-.28-.6-.16-.5.1-1.13-.25-1.53a1.29,1.29,0,0,0-.69-.31l-1.06-.24a1.77,1.77,0,0,0-1.09,0c-.24.11-.43.32-.67.42A.83.83,0,0,1,621.8,264.63Z"/><path class="cls-10" d="M625.71,271.67l-.46.07c-1.3.23-.68,2.56-.33,3.33a2,2,0,0,0,1,1.05c.78.31,1.62-.24,2.46-.3a2.21,2.21,0,0,0,.77-.1,1.44,1.44,0,0,0,.61-.74,1.57,1.57,0,0,0,.24-1.1c-.06-.22-.2-.4-.27-.61-.17-.49.09-1.12-.25-1.52a1.29,1.29,0,0,0-.69-.31l-1.06-.24a1.8,1.8,0,0,0-1.1,0c-.24.11-.42.32-.66.42A.79.79,0,0,1,625.71,271.67Z"/><path class="cls-10" d="M622.33,399.17l-.47.06c-1.3.24-.68,2.57-.32,3.34a1.92,1.92,0,0,0,1,1.05c.78.31,1.62-.25,2.46-.3a2.26,2.26,0,0,0,.78-.1,1.47,1.47,0,0,0,.6-.74,1.65,1.65,0,0,0,.25-1.11c-.06-.21-.21-.39-.28-.6-.16-.49.1-1.13-.25-1.52a1.29,1.29,0,0,0-.69-.31l-1.06-.24a1.77,1.77,0,0,0-1.09,0c-.24.11-.43.32-.67.42Z"/><path class="cls-10" d="M623.69,426.81c-.16,0-.32,0-.47.06-1.3.23-.68,2.56-.32,3.33a1.89,1.89,0,0,0,1,1.05c.78.31,1.62-.24,2.46-.3a2.18,2.18,0,0,0,.77-.1,1.4,1.4,0,0,0,.61-.74,1.57,1.57,0,0,0,.24-1.1c0-.21-.2-.39-.27-.6-.17-.5.1-1.13-.25-1.52a1.3,1.3,0,0,0-.69-.32l-1.06-.24a1.69,1.69,0,0,0-1.09,0c-.25.1-.43.32-.67.42Z"/><path class="cls-10" d="M601.15,379.37c-.15,0-.31,0-.47.06-1.3.23-.67,2.56-.32,3.34a1.91,1.91,0,0,0,1,1.05c.78.3,1.62-.25,2.45-.31a2.23,2.23,0,0,0,.78-.1,1.45,1.45,0,0,0,.61-.74,1.61,1.61,0,0,0,.24-1.1c-.06-.21-.2-.39-.27-.6-.17-.5.09-1.13-.26-1.52a1.19,1.19,0,0,0-.68-.31l-1.06-.24a1.8,1.8,0,0,0-1.1,0c-.24.11-.42.32-.67.42A.73.73,0,0,1,601.15,379.37Z"/><path class="cls-10" d="M592.64,392.79l-.47.06c-1.29.23-.67,2.56-.32,3.33a1.94,1.94,0,0,0,1,1.05c.78.31,1.62-.24,2.46-.3a2.21,2.21,0,0,0,.77-.1,1.4,1.4,0,0,0,.61-.74,1.57,1.57,0,0,0,.24-1.1c-.06-.22-.2-.39-.27-.6-.17-.5.09-1.13-.25-1.52a1.23,1.23,0,0,0-.69-.32l-1.06-.24a1.73,1.73,0,0,0-1.1,0c-.24.1-.42.32-.66.42Z"/><path class="cls-10" d="M605.51,349.1c-.15,0-.31,0-.47.06-1.3.24-.67,2.57-.32,3.34a1.92,1.92,0,0,0,.95,1.05c.78.31,1.63-.25,2.46-.3a2.26,2.26,0,0,0,.78-.1,1.49,1.49,0,0,0,.61-.74,1.65,1.65,0,0,0,.24-1.11c-.06-.21-.2-.39-.27-.6-.17-.49.09-1.13-.26-1.52a1.26,1.26,0,0,0-.68-.31l-1.06-.24a1.8,1.8,0,0,0-1.1,0c-.24.11-.42.32-.67.42Z"/><path class="cls-10" d="M630.14,297.05l-.47.07c-1.3.23-.68,2.56-.32,3.33a1.92,1.92,0,0,0,.95,1.05c.78.31,1.62-.24,2.46-.3a2.26,2.26,0,0,0,.78-.1,1.47,1.47,0,0,0,.6-.74,1.63,1.63,0,0,0,.25-1.1c-.06-.22-.21-.4-.28-.6-.16-.5.1-1.13-.25-1.53a1.29,1.29,0,0,0-.68-.31l-1.07-.24a1.77,1.77,0,0,0-1.09,0c-.24.11-.43.33-.67.42A.83.83,0,0,1,630.14,297.05Z"/><path class="cls-10" d="M640.05,287.24c-.21,0-.43,0-.63.08-1.75.31-.91,3.44-.43,4.47a2.59,2.59,0,0,0,1.27,1.41c1,.42,2.18-.33,3.3-.41a2.78,2.78,0,0,0,1-.13,2,2,0,0,0,.82-1,2.14,2.14,0,0,0,.32-1.48c-.08-.28-.27-.52-.37-.8-.22-.67.13-1.52-.33-2a1.63,1.63,0,0,0-.92-.42l-1.42-.32a2.34,2.34,0,0,0-1.48,0c-.32.14-.56.43-.89.56A1.47,1.47,0,0,1,640.05,287.24Z"/><path class="cls-10" d="M619.61,313.57l-.63.09c-1.74.31-.9,3.43-.43,4.47a2.61,2.61,0,0,0,1.28,1.41c1,.41,2.17-.33,3.3-.41a3.26,3.26,0,0,0,1-.13,1.92,1.92,0,0,0,.81-1,2.13,2.13,0,0,0,.33-1.47c-.08-.29-.28-.53-.37-.81-.22-.67.13-1.51-.34-2a1.74,1.74,0,0,0-.92-.42l-1.42-.32a2.38,2.38,0,0,0-1.47,0c-.32.14-.57.43-.89.56A1,1,0,0,1,619.61,313.57Z"/><path class="cls-10" d="M591.87,269.93c-.21,0-.42.05-.63.09-1.74.31-.9,3.43-.43,4.47a2.57,2.57,0,0,0,1.28,1.41c1,.41,2.17-.33,3.29-.41a2.81,2.81,0,0,0,1-.13,1.93,1.93,0,0,0,.81-1,2.12,2.12,0,0,0,.32-1.47c-.07-.29-.27-.53-.36-.81-.22-.67.13-1.51-.34-2a1.74,1.74,0,0,0-.92-.42l-1.42-.32a2.38,2.38,0,0,0-1.47,0c-.32.15-.57.43-.9.56A.9.9,0,0,1,591.87,269.93Z"/><path class="cls-10" d="M801,376.93c-.3.06-.62.07-.92.12-2.56.46-1.33,5-.63,6.56a3.75,3.75,0,0,0,1.87,2.06c1.53.61,3.19-.48,4.83-.6a4.35,4.35,0,0,0,1.53-.19,2.84,2.84,0,0,0,1.19-1.46,3.19,3.19,0,0,0,.48-2.16c-.12-.42-.4-.77-.54-1.18-.33-1,.19-2.22-.5-3a2.39,2.39,0,0,0-1.34-.62l-2.09-.47a3.44,3.44,0,0,0-2.15,0c-.48.21-.84.63-1.31.82A2.21,2.21,0,0,1,801,376.93Z"/><path class="cls-10" d="M824,319.21c-.3.05-.62.06-.92.12-2.56.45-1.33,5-.63,6.55a3.74,3.74,0,0,0,1.87,2.07c1.53.6,3.18-.49,4.83-.6a4.6,4.6,0,0,0,1.53-.19,2.93,2.93,0,0,0,1.19-1.46,3.21,3.21,0,0,0,.48-2.17c-.12-.42-.41-.77-.54-1.18-.33-1,.19-2.22-.5-3a2.44,2.44,0,0,0-1.34-.61l-2.09-.47a3.44,3.44,0,0,0-2.15,0c-.48.21-.84.63-1.32.83A2.77,2.77,0,0,1,824,319.21Z"/><path class="cls-10" d="M812.35,300c-.31.06-.62.07-.92.12-2.56.46-1.33,5-.63,6.55a3.74,3.74,0,0,0,1.87,2.07c1.53.6,3.18-.49,4.83-.6A4.27,4.27,0,0,0,819,308a2.86,2.86,0,0,0,1.2-1.46,3.14,3.14,0,0,0,.47-2.16c-.11-.42-.4-.77-.53-1.18-.33-1,.18-2.22-.5-3a2.39,2.39,0,0,0-1.34-.62l-2.09-.47a3.44,3.44,0,0,0-2.15,0c-.48.21-.84.63-1.32.82A1.93,1.93,0,0,1,812.35,300Z"/><path class="cls-10" d="M838.24,270.23c-.3.06-.62.07-.92.12-2.56.46-1.33,5-.63,6.56a3.79,3.79,0,0,0,1.87,2.06c1.53.61,3.19-.48,4.83-.6a4.11,4.11,0,0,0,1.53-.19,2.84,2.84,0,0,0,1.19-1.46,3.13,3.13,0,0,0,.48-2.16c-.12-.42-.4-.77-.54-1.18-.33-1,.19-2.22-.5-3a2.37,2.37,0,0,0-1.34-.61l-2.09-.47a3.37,3.37,0,0,0-2.15,0c-.47.21-.83.63-1.31.82A1.66,1.66,0,0,1,838.24,270.23Z"/><path class="cls-10" d="M859.22,246.91c-.3.05-.62.06-.92.12-2.56.45-1.33,5-.63,6.55a3.77,3.77,0,0,0,1.87,2.07c1.53.6,3.19-.49,4.83-.6a4.56,4.56,0,0,0,1.53-.19,2.88,2.88,0,0,0,1.19-1.46,3.16,3.16,0,0,0,.48-2.17c-.12-.41-.4-.77-.54-1.18-.33-1,.19-2.22-.5-3a2.44,2.44,0,0,0-1.34-.61L863.1,246a3.44,3.44,0,0,0-2.15,0c-.48.22-.83.63-1.31.83A2.21,2.21,0,0,1,859.22,246.91Z"/><path class="cls-10" d="M902.55,203.19c-.3.06-.62.07-.92.12-2.56.46-1.33,5-.63,6.56a3.75,3.75,0,0,0,1.87,2.06c1.53.61,3.18-.48,4.83-.6a4.13,4.13,0,0,0,1.53-.19,2.85,2.85,0,0,0,1.19-1.46,3.19,3.19,0,0,0,.48-2.16c-.12-.42-.41-.77-.54-1.18-.33-1,.19-2.22-.5-3a2.44,2.44,0,0,0-1.34-.61l-2.09-.47a3.44,3.44,0,0,0-2.15,0c-.48.21-.84.63-1.32.83A1.91,1.91,0,0,1,902.55,203.19Z"/><path class="cls-10" d="M918.48,162.55c-.4.08-.82.09-1.22.16-3.4.61-1.76,6.7-.84,8.72a5,5,0,0,0,2.49,2.74c2,.81,4.23-.64,6.42-.79a5.76,5.76,0,0,0,2-.26,3.8,3.8,0,0,0,1.59-1.94,4.22,4.22,0,0,0,.63-2.88c-.16-.55-.53-1-.72-1.57-.43-1.29.25-2.95-.66-4a3.15,3.15,0,0,0-1.78-.81l-2.77-.63a4.62,4.62,0,0,0-2.87,0c-.63.28-1.11.84-1.75,1.1A2.48,2.48,0,0,1,918.48,162.55Z"/><path class="cls-10" d="M946.58,81c-.11.24-.26.47-.38.71-1,2,2.9,3.46,4.32,3.72a3.26,3.26,0,0,0,2.4-.29c1.19-.78,1.25-2.49,2-3.71a4,4,0,0,0,.63-1.18,2.46,2.46,0,0,0-.44-1.57,2.69,2.69,0,0,0-1.29-1.42c-.35-.13-.74-.1-1.1-.21-.86-.26-1.48-1.24-2.36-1.14a2.09,2.09,0,0,0-1.11.64l-1.37,1.24a2.94,2.94,0,0,0-1.09,1.52c-.09.44,0,.9-.08,1.34A1.45,1.45,0,0,1,946.58,81Z"/><path class="cls-10" d="M936.36,69.94c-.12.24-.27.47-.38.71-1,2,2.9,3.45,4.32,3.72a3.28,3.28,0,0,0,2.39-.29c1.2-.78,1.25-2.49,2-3.71a3.82,3.82,0,0,0,.62-1.18,2.46,2.46,0,0,0-.43-1.57,2.73,2.73,0,0,0-1.29-1.42c-.36-.13-.75-.1-1.11-.21-.85-.26-1.47-1.24-2.36-1.14a2,2,0,0,0-1.1.64l-1.38,1.24a3,3,0,0,0-1.09,1.51c-.08.44,0,.91-.07,1.34A2.17,2.17,0,0,1,936.36,69.94Z"/><path class="cls-10" d="M782.86,393.82c-.3.05-.61.06-.92.12-2.55.46-1.32,5-.63,6.55a3.81,3.81,0,0,0,1.87,2.07c1.54.6,3.19-.49,4.83-.6a4.56,4.56,0,0,0,1.53-.19,2.88,2.88,0,0,0,1.19-1.46,3.16,3.16,0,0,0,.48-2.17c-.12-.41-.4-.76-.54-1.18-.32-1,.19-2.22-.49-3a2.45,2.45,0,0,0-1.35-.62l-2.08-.47a3.47,3.47,0,0,0-2.16,0c-.47.21-.83.63-1.31.82A1.86,1.86,0,0,1,782.86,393.82Z"/><path class="cls-10" d="M376.69,473.3c-.58.1-1.17.12-1.75.23-4.85.86-2.52,9.56-1.2,12.44a7.19,7.19,0,0,0,3.56,3.92c2.91,1.15,6.05-.92,9.17-1.13a8.27,8.27,0,0,0,2.9-.37,5.47,5.47,0,0,0,2.26-2.77c.64-1.29,1.29-2.72.91-4.11-.22-.79-.77-1.46-1-2.24-.61-1.85.36-4.21-.94-5.67a4.63,4.63,0,0,0-2.55-1.17l-4-.89a6.58,6.58,0,0,0-4.09,0c-.9.4-1.58,1.19-2.49,1.57A4.42,4.42,0,0,1,376.69,473.3Z"/><path class="cls-10" d="M811.54,443.2c-.3.05-.62.06-.92.12-2.56.45-1.33,5-.63,6.55a3.72,3.72,0,0,0,1.87,2.06c1.53.61,3.19-.48,4.83-.59a4.36,4.36,0,0,0,1.53-.2,2.82,2.82,0,0,0,1.19-1.45,3.21,3.21,0,0,0,.48-2.17c-.12-.42-.4-.77-.54-1.18-.33-1,.19-2.22-.5-3a2.44,2.44,0,0,0-1.34-.61l-2.09-.47a3.44,3.44,0,0,0-2.15,0c-.48.21-.84.63-1.31.83A3.31,3.31,0,0,1,811.54,443.2Z"/><path class="cls-10" d="M468.34,499.59c-.3.06-.61.07-.92.12-2.55.46-1.32,5-.63,6.56a3.81,3.81,0,0,0,1.88,2.06c1.53.61,3.18-.48,4.82-.6a4.11,4.11,0,0,0,1.53-.19,2.8,2.8,0,0,0,1.19-1.46,3.12,3.12,0,0,0,.48-2.16c-.11-.42-.4-.77-.54-1.18-.32-1,.19-2.22-.49-3a2.5,2.5,0,0,0-1.35-.61l-2.08-.47a3.47,3.47,0,0,0-2.16,0c-.47.21-.83.63-1.31.83A1.85,1.85,0,0,1,468.34,499.59Z"/><path class="cls-10" d="M381.85,530.58c-.31.06-.62.07-.93.12-2.55.46-1.32,5-.63,6.56a3.81,3.81,0,0,0,1.88,2.06c1.53.61,3.18-.48,4.83-.6a4.08,4.08,0,0,0,1.52-.19,2.86,2.86,0,0,0,1.2-1.46,3.13,3.13,0,0,0,.47-2.16c-.11-.42-.4-.77-.53-1.18-.33-1,.18-2.22-.5-3a2.4,2.4,0,0,0-1.34-.61l-2.09-.47a3.47,3.47,0,0,0-2.16,0c-.47.21-.83.63-1.31.83A1.91,1.91,0,0,1,381.85,530.58Z"/><path class="cls-10" d="M365.28,485.09c-.3.06-.62.07-.92.12-2.55.46-1.32,5-.63,6.56a3.83,3.83,0,0,0,1.87,2.06c1.54.61,3.19-.48,4.83-.6A4.32,4.32,0,0,0,372,493a2.84,2.84,0,0,0,1.19-1.46,3.14,3.14,0,0,0,.48-2.16c-.12-.42-.4-.77-.54-1.18-.33-1,.19-2.22-.5-3a2.39,2.39,0,0,0-1.34-.62l-2.08-.47a3.47,3.47,0,0,0-2.16,0c-.47.21-.83.63-1.31.82A2.21,2.21,0,0,1,365.28,485.09Z"/><path class="cls-10" d="M512.27,468.42c-.3.05-.61.06-.92.12-2.55.46-1.32,5-.63,6.55a3.81,3.81,0,0,0,1.87,2.07c1.54.6,3.19-.49,4.83-.6a4.56,4.56,0,0,0,1.53-.19,2.88,2.88,0,0,0,1.19-1.46,3.16,3.16,0,0,0,.48-2.17c-.11-.41-.4-.77-.54-1.18-.32-1,.19-2.22-.49-3a2.45,2.45,0,0,0-1.35-.62l-2.08-.47a3.47,3.47,0,0,0-2.16,0c-.47.21-.83.63-1.31.82A1.86,1.86,0,0,1,512.27,468.42Z"/><path class="cls-10" d="M842.42,447.89c-.3.06-.62.07-.92.12-2.55.46-1.33,5-.63,6.56a3.83,3.83,0,0,0,1.87,2.06c1.53.61,3.19-.48,4.83-.6a4.11,4.11,0,0,0,1.53-.19,2.8,2.8,0,0,0,1.19-1.46,3.13,3.13,0,0,0,.48-2.16c-.12-.42-.4-.77-.54-1.18-.33-1,.19-2.22-.5-3a2.44,2.44,0,0,0-1.34-.61l-2.08-.47a3.47,3.47,0,0,0-2.16,0c-.47.21-.83.63-1.31.83A2.17,2.17,0,0,1,842.42,447.89Z"/><path class="cls-10" d="M750.2,422.8c-.3.06-.61.07-.92.12-2.55.46-1.32,5-.63,6.56a3.83,3.83,0,0,0,1.87,2.06c1.54.61,3.19-.48,4.83-.6a4.11,4.11,0,0,0,1.53-.19,2.84,2.84,0,0,0,1.19-1.46,3.13,3.13,0,0,0,.48-2.16c-.12-.42-.4-.77-.54-1.18-.32-1,.19-2.22-.49-3a2.45,2.45,0,0,0-1.35-.62l-2.08-.46a3.4,3.4,0,0,0-2.16,0c-.47.21-.83.63-1.31.82A1.55,1.55,0,0,1,750.2,422.8Z"/><path class="cls-10" d="M648.83,471.33c-.3.05-.61.06-.92.12-2.55.45-1.32,5-.63,6.55a3.81,3.81,0,0,0,1.87,2.07c1.54.6,3.19-.49,4.83-.6a4.56,4.56,0,0,0,1.53-.19,2.88,2.88,0,0,0,1.19-1.46,3.16,3.16,0,0,0,.48-2.17c-.12-.42-.4-.77-.54-1.18-.32-1,.19-2.22-.49-3a2.5,2.5,0,0,0-1.35-.61l-2.08-.47a3.47,3.47,0,0,0-2.16,0c-.47.22-.83.63-1.31.83A2.58,2.58,0,0,1,648.83,471.33Z"/><path class="cls-10" d="M592.06,502.64c-.3.05-.61.06-.92.12-2.55.45-1.32,5-.63,6.55a3.81,3.81,0,0,0,1.87,2.07c1.54.6,3.19-.49,4.83-.6a4.56,4.56,0,0,0,1.53-.19,2.88,2.88,0,0,0,1.19-1.46,3.16,3.16,0,0,0,.48-2.17c-.12-.41-.4-.77-.54-1.18-.32-1,.19-2.22-.49-3a2.5,2.5,0,0,0-1.35-.61l-2.08-.47a3.47,3.47,0,0,0-2.16,0c-.47.22-.83.63-1.31.83A1.86,1.86,0,0,1,592.06,502.64Z"/><path class="cls-10" d="M652.35,485.45c-.12.29-.28.56-.4.84-1,2.39,3.51,3.85,5.16,4.1a3.84,3.84,0,0,0,2.75-.45c1.34-1,1.32-2.94,2.12-4.38a4.16,4.16,0,0,0,.67-1.39,2.91,2.91,0,0,0-.57-1.79,3.2,3.2,0,0,0-1.56-1.58c-.41-.13-.86-.08-1.28-.19-1-.26-1.76-1.36-2.78-1.21a2.48,2.48,0,0,0-1.25.8l-1.53,1.49a3.46,3.46,0,0,0-1.18,1.8c-.08.51.07,1,0,1.55A2.8,2.8,0,0,1,652.35,485.45Z"/><path class="cls-10" d="M835.36,427.44c-.3.06-.61.07-.92.12-2.55.46-1.32,5-.63,6.56a3.83,3.83,0,0,0,1.87,2.06c1.54.61,3.19-.48,4.83-.6a4.11,4.11,0,0,0,1.53-.19,2.84,2.84,0,0,0,1.19-1.46,3.13,3.13,0,0,0,.48-2.16c-.12-.42-.4-.77-.54-1.18-.32-1,.19-2.22-.5-3a2.44,2.44,0,0,0-1.34-.61l-2.08-.47a3.47,3.47,0,0,0-2.16,0c-.47.21-.83.63-1.31.83A2.17,2.17,0,0,1,835.36,427.44Z"/><path class="cls-10" d="M893.32,427.44c-.3.06-.62.07-.92.12-2.55.46-1.32,5-.63,6.56a3.83,3.83,0,0,0,1.87,2.06c1.54.61,3.19-.48,4.83-.6a4.11,4.11,0,0,0,1.53-.19,2.84,2.84,0,0,0,1.19-1.46,3.13,3.13,0,0,0,.48-2.16c-.12-.42-.4-.77-.54-1.18-.32-1,.19-2.22-.5-3a2.44,2.44,0,0,0-1.34-.61l-2.08-.47a3.47,3.47,0,0,0-2.16,0c-.47.21-.83.63-1.31.83A2.17,2.17,0,0,1,893.32,427.44Z"/><path class="cls-9" d="M815.09,518.32c-.14.38-.37.72-.5,1.11-.82,2.51,4.63,4.27,6.33,4.44a4.23,4.23,0,0,0,2.63-.41,4.54,4.54,0,0,0,1.79-2.7,15.45,15.45,0,0,1,1-3.14A2.76,2.76,0,0,0,827,516a2.06,2.06,0,0,0-.4-.83l-1.17-1.74a1.93,1.93,0,0,0-.64-.69,4,4,0,0,0-1.48-.13c-1.25-.12-2.18-1.48-3.43-1.43s-2,1.44-2.88,2.34a6.28,6.28,0,0,0-1.52,1.66c-.4.91,0,2-.3,2.94Z"/><path class="cls-10" d="M828.56,504.81c-.3.06-.62.07-.92.12-2.56.46-1.33,5-.63,6.56a3.75,3.75,0,0,0,1.87,2.06c1.53.61,3.18-.48,4.83-.6a4.13,4.13,0,0,0,1.53-.19,2.89,2.89,0,0,0,1.19-1.46,3.19,3.19,0,0,0,.48-2.16c-.12-.42-.41-.77-.54-1.18-.33-1,.19-2.22-.5-3a2.37,2.37,0,0,0-1.34-.61l-2.09-.47a3.37,3.37,0,0,0-2.15,0c-.48.21-.84.63-1.32.82A1.48,1.48,0,0,1,828.56,504.81Z"/><path class="cls-10" d="M821.5,484.36c-.3.06-.62.07-.92.12-2.56.46-1.33,5-.63,6.56a3.83,3.83,0,0,0,1.87,2.06c1.53.61,3.19-.48,4.83-.6a4.11,4.11,0,0,0,1.53-.19,2.84,2.84,0,0,0,1.19-1.46,3.13,3.13,0,0,0,.48-2.16c-.12-.42-.4-.77-.54-1.18-.33-1,.19-2.22-.5-3a2.37,2.37,0,0,0-1.34-.61l-2.09-.47a3.37,3.37,0,0,0-2.15,0c-.47.21-.83.63-1.31.82A1.66,1.66,0,0,1,821.5,484.36Z"/><path class="cls-9" d="M780.62,546.27c-.14.37-.37.72-.49,1.1-.82,2.52,4.63,4.27,6.33,4.45a4.32,4.32,0,0,0,2.63-.42,4.56,4.56,0,0,0,1.79-2.7,16,16,0,0,1,1-3.13,2.69,2.69,0,0,0,.58-1.61,2.14,2.14,0,0,0-.39-.82l-1.18-1.75a1.82,1.82,0,0,0-.64-.68c-.44-.23-1-.08-1.48-.13-1.25-.12-2.17-1.49-3.43-1.44s-2,1.44-2.87,2.35a6.13,6.13,0,0,0-1.53,1.65c-.4.91,0,2-.29,3A1.34,1.34,0,0,1,780.62,546.27Z"/><path class="cls-10" d="M794.09,532.76c-.3,0-.62.06-.92.12-2.55.45-1.32,5-.63,6.55a3.81,3.81,0,0,0,1.87,2.07c1.53.6,3.19-.49,4.83-.6a4.56,4.56,0,0,0,1.53-.19,2.88,2.88,0,0,0,1.19-1.46,3.16,3.16,0,0,0,.48-2.17c-.12-.41-.4-.77-.54-1.18-.33-1,.19-2.22-.5-3a2.44,2.44,0,0,0-1.34-.61l-2.08-.47a3.47,3.47,0,0,0-2.16,0c-.47.22-.83.63-1.31.83A2.21,2.21,0,0,1,794.09,532.76Z"/><path class="cls-10" d="M779.63,526.28c-.3.05-.62.07-.92.12-2.56.46-1.33,5-.63,6.55A3.77,3.77,0,0,0,780,535c1.53.6,3.19-.49,4.83-.6a4.32,4.32,0,0,0,1.53-.19,2.84,2.84,0,0,0,1.19-1.46,3.14,3.14,0,0,0,.48-2.16c-.12-.42-.4-.77-.54-1.18-.33-1,.19-2.22-.5-3a2.39,2.39,0,0,0-1.34-.62l-2.09-.47a3.44,3.44,0,0,0-2.15,0c-.48.21-.83.63-1.31.82A2.21,2.21,0,0,1,779.63,526.28Z"/><path class="cls-10" d="M728.73,444.83c-.23,0-.48.05-.71.09-2,.35-1,3.9-.49,5.07a2.94,2.94,0,0,0,1.45,1.59c1.19.47,2.46-.37,3.74-.46a3.15,3.15,0,0,0,1.18-.15,2.18,2.18,0,0,0,.92-1.12,2.49,2.49,0,0,0,.37-1.68c-.09-.32-.31-.59-.42-.91-.25-.76.15-1.72-.38-2.31a1.93,1.93,0,0,0-1-.48l-1.61-.36a2.72,2.72,0,0,0-1.67,0c-.37.16-.65.48-1,.64A1.68,1.68,0,0,1,728.73,444.83Z"/><path class="cls-10" d="M719.62,454.8c.06.23.09.48.15.71.51,1.94,4,.7,5.09.07a2.91,2.91,0,0,0,1.47-1.58c.37-1.22-.57-2.42-.76-3.68a3.27,3.27,0,0,0-.25-1.17,2.19,2.19,0,0,0-1.2-.82,2.37,2.37,0,0,0-1.7-.23c-.31.11-.57.35-.87.49-.74.31-1.73,0-2.28.57a1.9,1.9,0,0,0-.38,1.07l-.23,1.64a2.67,2.67,0,0,0,.12,1.66c.19.35.54.6.72,1A2,2,0,0,1,719.62,454.8Z"/><path class="cls-10" d="M688.57,471.81c.07.23.09.48.15.71.52,1.94,4,.7,5.1.07a2.91,2.91,0,0,0,1.47-1.58c.37-1.22-.58-2.42-.77-3.68a3.38,3.38,0,0,0-.24-1.16,2.16,2.16,0,0,0-1.2-.83,2.38,2.38,0,0,0-1.7-.23c-.31.11-.57.35-.88.49-.73.31-1.72,0-2.27.57a1.9,1.9,0,0,0-.38,1.07l-.24,1.64a2.67,2.67,0,0,0,.13,1.66c.19.35.54.6.72,1A1.28,1.28,0,0,1,688.57,471.81Z"/><path class="cls-10" d="M679.14,475.14c.06.23.09.47.15.7.51,1.94,4,.7,5.09.07a2.94,2.94,0,0,0,1.48-1.57c.37-1.22-.58-2.42-.77-3.68a3.49,3.49,0,0,0-.24-1.17,2.3,2.3,0,0,0-1.2-.83,2.49,2.49,0,0,0-1.7-.23c-.32.12-.57.36-.88.49-.73.31-1.72,0-2.27.57a1.91,1.91,0,0,0-.39,1.08l-.23,1.63a2.71,2.71,0,0,0,.12,1.67c.2.35.54.6.72,1A1.66,1.66,0,0,1,679.14,475.14Z"/><path class="cls-10" d="M629.35,489.87c.06.23.09.47.15.7.51,1.94,4,.71,5.09.07a2.89,2.89,0,0,0,1.47-1.57c.37-1.22-.57-2.42-.76-3.68a3.27,3.27,0,0,0-.25-1.17,2.26,2.26,0,0,0-1.2-.83,2.48,2.48,0,0,0-1.7-.23c-.31.12-.56.36-.87.49-.73.32-1.72,0-2.27.57a1.84,1.84,0,0,0-.39,1.08l-.23,1.63a2.7,2.7,0,0,0,.12,1.67c.2.35.54.6.72,1A1.66,1.66,0,0,1,629.35,489.87Z"/><path class="cls-10" d="M577.73,519.13c.06.23.09.47.15.7.52,1.94,4,.7,5.09.07a2.94,2.94,0,0,0,1.48-1.57c.37-1.22-.58-2.43-.77-3.69a3.48,3.48,0,0,0-.24-1.16,2.19,2.19,0,0,0-1.2-.83,2.43,2.43,0,0,0-1.7-.23c-.32.11-.57.36-.88.49-.73.31-1.72,0-2.27.57a1.91,1.91,0,0,0-.39,1.07l-.23,1.64a2.6,2.6,0,0,0,.13,1.66c.19.35.53.6.72,1A1.73,1.73,0,0,1,577.73,519.13Z"/><path class="cls-10" d="M503,541.36c.06.23.09.47.15.7.51,1.94,4,.7,5.09.07a2.92,2.92,0,0,0,1.47-1.57c.37-1.22-.57-2.43-.76-3.69a3.26,3.26,0,0,0-.25-1.16,2.21,2.21,0,0,0-1.2-.83,2.46,2.46,0,0,0-1.69-.23c-.32.12-.57.36-.88.49-.73.31-1.72,0-2.27.57a1.84,1.84,0,0,0-.39,1.08l-.23,1.63a2.71,2.71,0,0,0,.12,1.67c.2.35.54.6.72.95A1.75,1.75,0,0,1,503,541.36Z"/><path class="cls-10" d="M622.77,498.41c.07.22.09.47.16.7.51,1.94,4,.7,5.09.07a2.92,2.92,0,0,0,1.47-1.57c.37-1.22-.58-2.43-.77-3.69a3.43,3.43,0,0,0-.24-1.16,2.16,2.16,0,0,0-1.2-.83,2.43,2.43,0,0,0-1.7-.23c-.31.11-.57.36-.88.49-.73.31-1.72,0-2.27.57a1.9,1.9,0,0,0-.38,1.07l-.24,1.64a2.67,2.67,0,0,0,.13,1.66c.19.35.54.6.72,1A1.21,1.21,0,0,1,622.77,498.41Z"/><path class="cls-10" d="M610.89,498.53c-.17.17-.36.32-.53.5-1.39,1.44,1.45,3.76,2.57,4.39a2.9,2.9,0,0,0,2.11.45c1.23-.31,1.78-1.74,2.76-2.55a3.55,3.55,0,0,0,.87-.81,2.2,2.2,0,0,0,.09-1.46,2.41,2.41,0,0,0-.68-1.57c-.26-.21-.6-.3-.87-.5-.64-.47-.88-1.48-1.66-1.65a1.86,1.86,0,0,0-1.12.22l-1.52.65a2.64,2.64,0,0,0-1.36,1c-.2.35-.24.77-.45,1.11A1.33,1.33,0,0,1,610.89,498.53Z"/><path class="cls-10" d="M650.58,465.9c.24,0,.48,0,.72,0,2,0,1.63-3.69,1.28-4.93a2.94,2.94,0,0,0-1.18-1.81c-1.1-.65-2.49,0-3.76-.13a3.67,3.67,0,0,0-1.19,0,2.27,2.27,0,0,0-1.09,1,2.49,2.49,0,0,0-.63,1.6c0,.33.22.63.27,1,.13.79-.41,1.68,0,2.35a2,2,0,0,0,1,.63l1.53.61a2.74,2.74,0,0,0,1.65.28c.39-.11.71-.38,1.1-.48Z"/><path class="cls-10" d="M775.77,411.72c.14.28.24.57.38.85,1.17,2.32,5.21-.17,6.46-1.27a3.83,3.83,0,0,0,1.45-2.38c.14-1.65-1.38-2.92-2-4.46a4.27,4.27,0,0,0-.62-1.41,2.86,2.86,0,0,0-1.74-.73,3.15,3.15,0,0,0-2.21.17c-.36.23-.62.6-1,.85-.84.59-2.18.45-2.72,1.33a2.49,2.49,0,0,0-.2,1.46l.15,2.13a3.48,3.48,0,0,0,.6,2.08c.33.39.84.61,1.16,1A1.69,1.69,0,0,1,775.77,411.72Z"/><path class="cls-10" d="M634,310.06c-.15,0-.31,0-.47.06-1.3.23-.67,2.56-.32,3.33a1.94,1.94,0,0,0,1,1.05c.78.31,1.62-.24,2.46-.3a2.21,2.21,0,0,0,.77-.1,1.45,1.45,0,0,0,.61-.74,1.57,1.57,0,0,0,.24-1.1c-.06-.21-.2-.39-.27-.6-.17-.5.09-1.13-.25-1.52a1.3,1.3,0,0,0-.69-.32l-1.06-.23a1.66,1.66,0,0,0-1.1,0c-.24.1-.42.32-.66.42A1.41,1.41,0,0,1,634,310.06Z"/><path class="cls-10" d="M587.68,314c-.16,0-.32,0-.47.06-1.3.23-.67,2.57-.32,3.34a1.92,1.92,0,0,0,1,1.05c.78.31,1.62-.25,2.46-.31a2,2,0,0,0,.78-.09,1.46,1.46,0,0,0,.6-.75,1.57,1.57,0,0,0,.25-1.1c-.06-.21-.21-.39-.28-.6-.16-.5.1-1.13-.25-1.52a1.19,1.19,0,0,0-.68-.31l-1.06-.24a1.8,1.8,0,0,0-1.1,0c-.24.11-.43.32-.67.42A.83.83,0,0,1,587.68,314Z"/><path class="cls-10" d="M692,314c-.16,0-.32,0-.47.06-1.3.23-.67,2.57-.32,3.34a1.92,1.92,0,0,0,.95,1.05c.78.31,1.62-.25,2.46-.31a2,2,0,0,0,.78-.09,1.46,1.46,0,0,0,.6-.75,1.62,1.62,0,0,0,.25-1.1c-.06-.21-.21-.39-.28-.6-.16-.5.1-1.13-.25-1.52a1.22,1.22,0,0,0-.68-.31l-1.06-.24a1.8,1.8,0,0,0-1.1,0c-.24.11-.43.32-.67.42A.83.83,0,0,1,692,314Z"/><path class="cls-10" d="M685.79,299.61c-.15,0-.31,0-.47.06-1.3.23-.67,2.56-.32,3.34a1.91,1.91,0,0,0,1,1.05c.78.3,1.62-.25,2.45-.31a2.23,2.23,0,0,0,.78-.1,1.45,1.45,0,0,0,.61-.74,1.61,1.61,0,0,0,.24-1.1c-.06-.21-.2-.39-.27-.6-.17-.5.09-1.13-.26-1.52a1.19,1.19,0,0,0-.68-.31l-1.06-.24a1.73,1.73,0,0,0-1.1,0c-.24.11-.42.32-.67.42A1.29,1.29,0,0,1,685.79,299.61Z"/><path class="cls-10" d="M707,276.56l-.47.06c-1.3.24-.68,2.57-.32,3.34a1.92,1.92,0,0,0,.95,1.05c.78.31,1.62-.25,2.46-.3a2.26,2.26,0,0,0,.78-.1,1.47,1.47,0,0,0,.6-.74,1.65,1.65,0,0,0,.25-1.11c-.06-.21-.21-.39-.28-.6-.16-.49.1-1.13-.25-1.52a1.29,1.29,0,0,0-.69-.31l-1.06-.24a1.77,1.77,0,0,0-1.09,0c-.24.11-.43.32-.67.42A.83.83,0,0,1,707,276.56Z"/><path class="cls-10" d="M598.88,349.1l-.47.06c-1.3.24-.68,2.57-.32,3.34a1.92,1.92,0,0,0,.95,1.05c.78.31,1.62-.25,2.46-.3a2.26,2.26,0,0,0,.78-.1,1.47,1.47,0,0,0,.6-.74,1.66,1.66,0,0,0,.25-1.11c-.06-.21-.21-.39-.28-.6-.16-.49.1-1.13-.25-1.52a1.29,1.29,0,0,0-.68-.31l-1.07-.24a1.77,1.77,0,0,0-1.09,0c-.24.11-.43.32-.67.42Z"/><path class="cls-9" d="M626.44,348.55a3.65,3.65,0,0,0-.47,0,.71.71,0,0,0-.56.48c-.12.35.05.75,0,1.11s-.22.42-.14.62a1.07,1.07,0,0,0,.16.25c.19.31,0,.75.25,1s.31.22.39.39,0,.23.11.33.39.16.61.18.35.08.52.1c.67.08,1.28-.42,1.94-.44.29,0,.6.07.83-.1s.27-.57.41-.85.37-.48.34-.76-.3-.45-.39-.7a1.62,1.62,0,0,1,0-.58,1.45,1.45,0,0,0-.16-.87,1,1,0,0,0-.7-.52c-.19,0-.4,0-.6,0a9.32,9.32,0,0,0-1-.3,1.64,1.64,0,0,0-.67.18C627,348.23,626.75,348.53,626.44,348.55Z"/><path class="cls-9" d="M622.88,352.67a3.65,3.65,0,0,0-.47,0,.71.71,0,0,0-.56.48c-.12.35,0,.75-.05,1.11s-.21.42-.14.62a1.4,1.4,0,0,0,.16.26c.19.3,0,.74.25,1s.31.23.39.39a3.19,3.19,0,0,0,.11.33c.12.19.39.16.61.18s.35.08.53.1c.66.08,1.27-.42,1.93-.43.29,0,.6.06.84-.11s.26-.56.4-.85.37-.48.34-.76-.3-.45-.39-.7a1.61,1.61,0,0,1,0-.58,1.45,1.45,0,0,0-.16-.87,1,1,0,0,0-.7-.52c-.19,0-.4,0-.59,0-.36,0-.68-.29-1-.3a1.81,1.81,0,0,0-.67.18C623.39,352.35,623.19,352.65,622.88,352.67Z"/><path class="cls-9" d="M626.44,394.32a3.65,3.65,0,0,0-.47,0,.72.72,0,0,0-.56.48c-.12.36.05.76,0,1.11s-.22.42-.14.62a1.4,1.4,0,0,0,.16.26c.19.31,0,.75.25,1s.31.23.39.4,0,.23.11.32.39.16.61.18.35.08.52.1c.67.08,1.28-.41,1.94-.43.29,0,.6.06.83-.1s.27-.57.41-.86.37-.47.34-.75-.3-.45-.39-.71a1.56,1.56,0,0,1,0-.57,1.5,1.5,0,0,0-.16-.88,1,1,0,0,0-.7-.51c-.19,0-.4,0-.6,0s-.67-.28-1-.29a1.62,1.62,0,0,0-.67.17C627,394,626.75,394.3,626.44,394.32Z"/><path class="cls-9" d="M610.89,337.35a3.85,3.85,0,0,0-.48,0,.72.72,0,0,0-.56.48c-.11.35.06.75-.05,1.11s-.21.42-.14.62a1.56,1.56,0,0,0,.17.25c.18.31,0,.75.24,1s.31.22.39.39a3.19,3.19,0,0,0,.11.33c.13.18.4.16.62.18s.34.08.52.1c.66.08,1.27-.42,1.94-.44.28,0,.6.07.83-.1s.26-.57.4-.85.38-.48.35-.76-.3-.45-.39-.7a1.42,1.42,0,0,1,0-.58,1.53,1.53,0,0,0-.16-.87,1,1,0,0,0-.7-.52c-.2,0-.4,0-.6,0-.36-.05-.67-.29-1-.3a1.6,1.6,0,0,0-.67.18C611.4,337,611.2,337.34,610.89,337.35Z"/><path class="cls-9" d="M627.3,314.28c-.15,0-.31,0-.47,0a.74.74,0,0,0-.56.49c-.12.35.06.75,0,1.11s-.21.42-.14.62a1,1,0,0,0,.17.25c.18.31,0,.75.24,1s.31.22.39.39a3.19,3.19,0,0,0,.11.33c.12.18.39.16.61.18s.35.08.53.1c.66.07,1.27-.42,1.94-.44.28,0,.6.07.83-.1s.26-.57.4-.85.38-.48.35-.76-.31-.45-.39-.71a1.37,1.37,0,0,1,0-.57,1.62,1.62,0,0,0-.16-.87,1.05,1.05,0,0,0-.7-.52c-.2,0-.4,0-.6,0-.36-.05-.67-.29-1-.3a1.56,1.56,0,0,0-.67.18C627.81,314,627.62,314.26,627.3,314.28Z"/><path class="cls-9" d="M615.81,271.71a3.85,3.85,0,0,0-.48,0,.72.72,0,0,0-.56.48c-.11.35.06.75,0,1.11-.06.21-.21.42-.14.62a2.33,2.33,0,0,0,.17.26c.18.3,0,.75.24,1s.31.23.39.39a2.55,2.55,0,0,0,.11.33c.13.19.4.16.62.18s.34.08.52.1c.66.08,1.27-.42,1.94-.43.28,0,.6.06.83-.11s.26-.56.4-.85.38-.48.35-.76-.31-.44-.39-.7a1.42,1.42,0,0,1,0-.58,1.63,1.63,0,0,0-.16-.87,1.05,1.05,0,0,0-.7-.52c-.2,0-.4,0-.6,0-.36,0-.67-.29-1-.3a1.76,1.76,0,0,0-.67.18C616.31,271.39,616.12,271.69,615.81,271.71Z"/><path class="cls-9" d="M576.88,331.82c-.16,0-.32,0-.47,0a.74.74,0,0,0-.56.48c-.12.36,0,.76-.05,1.12-.06.2-.21.41-.14.62a1.75,1.75,0,0,0,.16.25c.19.31,0,.75.25,1s.31.23.39.4,0,.23.11.33.39.15.61.18.35.07.53.09c.66.08,1.27-.41,1.94-.43.28,0,.6.06.83-.1s.26-.57.4-.86.37-.47.35-.75-.31-.45-.39-.71a1.37,1.37,0,0,1,0-.57,1.45,1.45,0,0,0-.16-.87,1,1,0,0,0-.7-.52c-.19,0-.4,0-.59,0-.36,0-.68-.28-1-.29a1.5,1.5,0,0,0-.68.18C577.39,331.51,577.2,331.8,576.88,331.82Z"/><path class="cls-9" d="M545.73,370.84c-.16,0-.32,0-.48,0a.76.76,0,0,0-.56.48c-.11.36.06.76-.05,1.12-.06.2-.21.41-.14.62s.12.16.17.25c.19.31,0,.75.24,1s.31.23.39.4a2.19,2.19,0,0,0,.12.33c.12.18.39.15.61.18s.34.07.52.09c.67.08,1.27-.41,1.94-.43.29,0,.6.06.83-.1s.26-.57.41-.86.37-.47.34-.75-.3-.45-.39-.71a1.37,1.37,0,0,1,0-.57,1.53,1.53,0,0,0-.16-.87,1,1,0,0,0-.7-.52c-.2,0-.4,0-.6,0-.35,0-.67-.28-1-.29a1.46,1.46,0,0,0-.67.18C546.24,370.53,546,370.82,545.73,370.84Z"/></g><polygon class="cls-1" points="543.06 464.42 543.06 484.65 532 484.65 532 486.43 524.6 486.43 526.16 463.55 543.06 464.42"/><polygon class="cls-1" points="375.03 508.73 381.51 522.36 408.05 511.25 403.24 498.48 375.03 508.73"/><path class="cls-11" d="M712.71,386.56c.46,3.13,9.4,7.31,9.4,7.31l30.11-45.54,13-19-8.9-8.94S709.68,366.38,712.71,386.56Z"/><g id="Labels"><text class="cls-12" transform="translate(617.98 525.01) rotate(-23.64)">Castle<tspan class="cls-13" x="24.46" y="0">r</tspan><tspan x="27.34" y="0">eagh </tspan><tspan class="cls-14" x="48.55" y="0">R</tspan><tspan x="53.83" y="0">i</tspan><tspan class="cls-15" x="55.87" y="0">v</tspan><tspan x="60.12" y="0">e</tspan><tspan class="cls-16" x="64.91" y="0">r</tspan></text><text class="cls-17" transform="matrix(0.98, 0.21, -0.21, 0.98, 329.08, 427.5)"><tspan class="cls-15">(</tspan><tspan class="cls-18" x="2.34" y="0">O</tspan><tspan x="8.32" y="0">xl</tspan><tspan class="cls-19" x="15.1" y="0">e</tspan><tspan class="cls-20" x="19.78" y="0">y</tspan><tspan x="23.97" y="0" xml:space="preserve"> Hig</tspan><tspan class="cls-19" x="38.96" y="0">h</tspan><tspan class="cls-21" x="43.68" y="0">wa</tspan><tspan class="cls-22" x="54.78" y="0">y</tspan><tspan x="59.06" y="0">)</tspan></text><text class="cls-17" transform="translate(441.56 445.7) rotate(5)"><tspan class="cls-23">W</tspan><tspan x="8.02" y="0">ar</tspan><tspan class="cls-13" x="15.71" y="0">r</tspan><tspan x="18.6" y="0">en </tspan><tspan class="cls-22" x="30.14" y="0">R</tspan><tspan x="35.34" y="0">oad </tspan></text><text class="cls-17" transform="matrix(0.78, 0.62, -0.62, 0.78, 761.96, 333.77)">Bridge <tspan class="cls-24" x="27.52" y="0">S</tspan><tspan x="32.38" y="0">t</tspan><tspan class="cls-13" x="35.45" y="0">r</tspan><tspan x="38.34" y="0">e</tspan><tspan class="cls-25" x="43.13" y="0">e</tspan><tspan x="47.89" y="0">t </tspan></text><text class="cls-17" transform="translate(773.42 311.92) rotate(-55.87)">Mille<tspan class="cls-16" x="18.82" y="0">r</tspan><tspan x="21.73" y="0"> </tspan><tspan class="cls-24" x="23.65" y="0">S</tspan><tspan x="28.5" y="0">t</tspan><tspan class="cls-13" x="31.58" y="0">r</tspan><tspan x="34.46" y="0">e</tspan><tspan class="cls-25" x="39.26" y="0">e</tspan><tspan x="44.02" y="0">t</tspan><tspan class="cls-26" x="47.09" y="0"> </tspan></text><text class="cls-17" transform="translate(621.74 352.08) rotate(-55.87)"><tspan class="cls-27">M</tspan><tspan x="6.86" y="0">orris </tspan><tspan class="cls-24" x="25.84" y="0">S</tspan><tspan x="30.7" y="0">t</tspan><tspan class="cls-13" x="33.77" y="0">r</tspan><tspan x="36.66" y="0">e</tspan><tspan class="cls-25" x="41.45" y="0">e</tspan><tspan x="46.21" y="0">t</tspan><tspan class="cls-26" x="49.28" y="0"> </tspan></text><text class="cls-17" transform="matrix(0.82, 0.57, -0.57, 0.82, 624.45, 72.83)">Court <tspan class="cls-24" x="23.37" y="0">S</tspan><tspan x="28.22" y="0">t</tspan><tspan class="cls-13" x="31.3" y="0">r</tspan><tspan x="34.18" y="0">e</tspan><tspan class="cls-25" x="38.98" y="0">e</tspan><tspan x="43.74" y="0">t</tspan><tspan class="cls-26" x="46.81" y="0"> </tspan></text><text class="cls-17" transform="translate(576.42 224.62) rotate(6.47)"><tspan class="cls-28">W</tspan><tspan x="8.13" y="0">ringle </tspan><tspan class="cls-24" x="32.42" y="0">S</tspan><tspan x="37.27" y="0">t</tspan><tspan class="cls-13" x="40.34" y="0">r</tspan><tspan x="43.23" y="0">e</tspan><tspan class="cls-25" x="48.02" y="0">e</tspan><tspan x="52.78" y="0">t</tspan><tspan class="cls-26" x="55.86" y="0"> </tspan></text><text class="cls-17" transform="matrix(1, 0.06, -0.06, 1, 434.59, 309.45)">Myrtle <tspan class="cls-24" x="26.74" y="0">S</tspan><tspan x="31.59" y="0">t</tspan><tspan class="cls-13" x="34.66" y="0">r</tspan><tspan x="37.55" y="0">e</tspan><tspan class="cls-25" x="42.34" y="0">e</tspan><tspan x="47.1" y="0">t</tspan><tspan class="cls-26" x="50.18" y="0"> </tspan></text><text class="cls-17" transform="translate(462.8 539.22) rotate(-22.2)">Castle<tspan class="cls-13" x="24.46" y="0">r</tspan><tspan x="27.34" y="0">eagh </tspan><tspan class="cls-24" x="48.55" y="0">S</tspan><tspan x="53.41" y="0">t</tspan><tspan class="cls-13" x="56.48" y="0">r</tspan><tspan x="59.37" y="0">e</tspan><tspan class="cls-25" x="64.16" y="0">e</tspan><tspan x="68.92" y="0">t</tspan><tspan class="cls-26" x="71.99" y="0"> </tspan></text><text class="cls-17" transform="matrix(0.95, -0.32, 0.32, 0.95, 369.23, 572.42)">(<tspan class="cls-27" x="2.48" y="0">N</tspan><tspan class="cls-19" x="8.53" y="0">e</tspan><tspan class="cls-29" x="13.21" y="0">w</tspan><tspan x="19.77" y="0">el</tspan><tspan class="cls-30" x="27.1" y="0">l</tspan><tspan x="29.38" y="0" xml:space="preserve"> Hig</tspan><tspan class="cls-19" x="44.38" y="0">h</tspan><tspan class="cls-21" x="49.1" y="0">wa</tspan><tspan class="cls-22" x="60.19" y="0">y</tspan><tspan x="64.47" y="0" xml:space="preserve">)  </tspan></text></g></g></svg>