<svg xmlns="http://www.w3.org/2000/svg" viewBox="0 0 1037.54 595.28"><defs><style>.cls-1{fill:#e6e7e8;opacity:0.52;}.cls-2,.cls-3,.cls-4,.cls-5,.cls-6{fill:none;stroke-linecap:round;stroke-linejoin:round;}.cls-2,.cls-3,.cls-4,.cls-5{stroke:#e6e7e8;}.cls-2{stroke-width:11.34px;}.cls-3{stroke-width:22.68px;}.cls-4{stroke-width:14.17px;}.cls-5{stroke-width:8.5px;}.cls-6{stroke:#d1d3d4;stroke-width:0.28px;}.cls-7{fill:#83bada;opacity:0.5;}.cls-8{fill:#74b96b;opacity:0.22;}.cls-9{fill:#d1e074;}.cls-10,.cls-9{opacity:0.45;}.cls-10{fill:#b2d67b;}.cls-11{fill:#f1657a;opacity:0.31;}.cls-12,.cls-17{opacity:0.58;font-size:10px;font-family:Raleway-Bold, Raleway;font-weight:700;}.cls-12{fill:#282560;}.cls-13{letter-spacing:-0.03em;}.cls-14{letter-spacing:0em;}.cls-15{letter-spacing:-0.02em;}.cls-16{letter-spacing:-0.02em;}.cls-17{fill:#414042;}.cls-18{letter-spacing:-0.01em;}.cls-19{letter-spacing:0em;}.cls-20{letter-spacing:-0.01em;}.cls-21{letter-spacing:-0.03em;}.cls-22{letter-spacing:-0.01em;}.cls-23{letter-spacing:-0.01em;}.cls-24{letter-spacing:-0.05em;}.cls-25{letter-spacing:0em;}.cls-26{letter-spacing:-0.01em;}.cls-27{letter-spacing:0em;}.cls-28{letter-spacing:-0.01em;}.cls-29{letter-spacing:-0.01em;}.cls-30{letter-spacing:-0.03em;}.cls-31{letter-spacing:-0.02em;}.cls-32{letter-spacing:-0.03em;}.cls-33{letter-spacing:-0.01em;}.cls-34{letter-spacing:-0.03em;}</style></defs><title>Artboard 1</title><g id="Base_Map_3" data-name="Base Map 3"><g id="Gray_Background" data-name="Gray Background"><rect class="cls-1" x="255.78" width="781.14" height="595.28"/></g><g id="Roads_2" data-name="Roads 2"><line class="cls-2" x1="255.78" y1="411.93" x2="566"/><path class="cls-3" d="M903.13,0,551.75,466.58a208,208,0,0,1-83.27,65.65h0a208.15,208.15,0,0,1-105.37,16L255.78,536.57"/><polyline class="cls-2" points="552.75 17.59 663.99 100.4 908.68 282.56"/><line class="cls-4" x1="282.95" y1="539.52" x2="275.39" y2="594.92"/><path class="cls-5" d="M280.58,379l73.13,53.06a38.4,38.4,0,0,0,52.62-7.2l131.55-154.6,123.2-162.44"/><line class="cls-2" x1="255.78" y1="162.21" x2="428.49" y2="182.6"/><path class="cls-2" d="M907,284,745,424.3a29.35,29.35,0,0,1-38,.38l-74.11-61.59"/><line class="cls-5" x1="671.63" y1="488.5" x2="726.5" y2="433.34"/><polyline class="cls-5" points="911.23 281.12 1001.6 178.66 1036.91 125.21"/></g><g id="Carparks"><polyline class="cls-6" points="615.83 159.47 606.92 152.88 634.73 116.44 642.68 122.37"/><line class="cls-6" x1="639.49" y1="126.6" x2="631.6" y2="120.54"/><line class="cls-6" x1="659.51" y1="135.45" x2="651.62" y2="129.4"/><line class="cls-6" x1="656.01" y1="139.67" x2="648.12" y2="133.61"/><line class="cls-6" x1="636.16" y1="131.27" x2="628.27" y2="125.21"/><line class="cls-6" x1="632.92" y1="135.24" x2="625.03" y2="129.19"/><line class="cls-6" x1="629.18" y1="140.02" x2="621.29" y2="133.97"/><line class="cls-6" x1="626.43" y1="143.72" x2="618.54" y2="137.67"/><line class="cls-6" x1="623.24" y1="147.74" x2="615.35" y2="141.69"/><line class="cls-6" x1="620.62" y1="151.74" x2="612.73" y2="145.69"/><line class="cls-6" x1="617.22" y1="155.91" x2="609.33" y2="149.85"/><polyline class="cls-6" points="644.58 137.95 652.63 144.01 663.49 130.87 655.57 124.72"/><line class="cls-6" x1="576.07" y1="235.49" x2="561.85" y2="253.41"/><line class="cls-6" x1="580.68" y1="238.91" x2="566.46" y2="256.83"/><line class="cls-6" x1="586.39" y1="242.43" x2="572.17" y2="260.35"/><line class="cls-6" x1="590.97" y1="246.18" x2="576.76" y2="264.1"/><line class="cls-6" x1="595.89" y1="250.06" x2="581.67" y2="267.98"/><line class="cls-6" x1="600.18" y1="253.63" x2="585.97" y2="271.55"/><line class="cls-6" x1="604.35" y1="257.19" x2="590.14" y2="275.11"/><line class="cls-6" x1="609.74" y1="260.35" x2="595.53" y2="278.27"/><line class="cls-6" x1="614.94" y1="265.15" x2="600.73" y2="283.07"/><line class="cls-6" x1="619.13" y1="268.87" x2="604.91" y2="286.8"/><line class="cls-6" x1="568.96" y1="244.45" x2="612.02" y2="277.84"/></g><g id="River"><path class="cls-7" d="M557.74,595.11S686.35,526.41,696.5,519s112.7-65,130-84.61S939.84,304.81,953.38,292.58s83.53-111.73,83.53-111.73l.63,168.55s-17.15,28.43-52.34,39.94-46.71,20.3-68,46.7-48.74,59.23-87,73.78-74.8,49.08-88.67,85.29Z"/></g><g id="Shops"><polygon class="cls-1" points="743.35 254.47 790.35 292.58 795.69 285.82 819.46 303.34 853.22 260.98 777.46 207.44 743.35 254.47"/><polygon class="cls-1" points="737.45 260.01 722.41 280.66 784.6 327.36 799.42 306.48 737.45 260.01"/><polygon class="cls-1" points="721.35 282.56 704.45 305.55 766.29 351.89 782.85 328.9 721.35 282.56"/><polygon class="cls-1" points="699.4 311.76 692.8 319.85 732.31 352.88 740.67 342.37 700.48 310.14 699.4 311.76"/><polygon class="cls-1" points="690.78 322.68 676.35 340.61 716.13 370.82 730.55 354.64 690.78 322.68"/><polygon class="cls-1" points="676.35 345.06 669.56 354.36 665.44 351.89 654.72 365.67 668.5 375.8 666.22 378.75 676.69 386.2 685.15 375.39 695.16 383.05 706.84 367.54 676.35 345.06"/><polygon class="cls-1" points="652.3 368.63 660.28 374.7 654.13 382.42 676.35 397.95 663.5 414.86 632.89 393.77 652.3 368.63"/><polygon class="cls-1" points="632.89 395.1 610.85 424.29 656.45 459.87 679.38 428.17 632.89 395.1"/><polygon class="cls-1" points="606.51 431.48 591.87 450.64 646.35 490.08 660.38 470.28 606.51 431.48"/><polygon class="cls-1" points="590.37 453.97 578.55 469.44 613.26 496.41 626.13 478.04 591.87 452.47 590.37 453.97"/><polygon class="cls-1" points="577.52 470.92 569.31 480.83 601.76 506.08 609.28 495.34 577.52 470.92"/><polygon class="cls-1" points="567.9 482.38 556.52 496.91 589.3 522.35 600.6 507.14 567.9 482.38"/><polygon class="cls-1" points="571.54 512.7 561.76 520.12 555.52 510.71 528.36 524.1 538.95 552.07 548.46 548.9 554.25 562.84 569.37 554.61 592.27 533.7 585.93 524.92 571.54 512.7"/><polygon class="cls-1" points="521.66 527.06 487.58 542.35 503.09 579.92 536.62 564.74 521.66 527.06"/><polygon class="cls-1" points="278.25 490.63 261.96 509.37 315.72 516.35 345.36 479.73 326.13 464.54 303.66 470.3 292.33 479.48 295.64 482.3 284.86 493.69 279.72 489.16 278.25 490.63"/><polygon class="cls-1" points="351.46 481.49 323.01 517.96 346.45 520.84 367.88 492.52 351.46 481.49"/><polygon class="cls-1" points="415.01 510.19 422.79 530.5 450.49 518.96 441.96 499.66 415.01 510.19"/><polygon class="cls-1" points="439.71 487.88 452.49 517.71 476.43 505.8 455.63 481.49 439.71 487.88"/><polygon class="cls-1" points="432.75 457.85 488.63 499.6 512.1 465.6 481.42 443.62 477.46 448.48 451.87 430.64 432.75 457.85"/><polygon class="cls-1" points="499.3 399.15 487.11 414.31 510.7 433.36 501.95 443.83 529.45 465.86 549.6 437.74 499.3 399.15"/><polygon class="cls-1" points="513.98 371.77 499.92 390.2 513.98 401.61 510.23 405.67 551.94 437.22 575.84 406.76 543.35 382.39 537.88 389.03 513.98 371.77"/><polygon class="cls-1" points="552.18 368.39 543.56 379.73 576.58 404.5 586.07 391.43 552.18 368.39"/><polygon class="cls-1" points="547.41 328.64 535.1 343.31 589.89 385.38 601.27 368.63 547.41 328.64"/><polygon class="cls-1" points="559.14 318.45 551.46 327.97 602.5 366.39 609.61 357.01 559.14 318.45"/><polygon class="cls-1" points="556.05 276.37 540.59 295.97 600.03 340.9 597 345.06 609.61 355.25 624.73 333.89 612.94 325.13 617.24 319.39 556.05 276.37"/><polygon class="cls-1" points="628.36 229.94 616.15 245.15 662.58 281.12 670.34 281.12 709.48 231.53 690.78 215.68 677.79 212.67 664.32 202.69 651.6 219.17 671.29 234.85 661.95 246.74 644.99 234.69 641.19 239.45 628.36 229.94"/><polygon class="cls-1" points="656.72 157.74 642.06 178.19 710.47 228.5 724.76 208.23 656.72 157.74"/><polygon class="cls-1" points="708.13 167.68 696.36 182.42 726.26 205.15 737.08 189.59 708.13 167.68"/><polygon class="cls-1" points="500.55 123.9 490.84 137.27 506.16 148.49 468.62 198.32 534.85 249.01 584.46 182.36 500.55 123.9"/><polygon class="cls-1" points="532.44 103.22 519.72 121.08 554.87 145.75 568.07 127.3 532.44 103.22"/><polygon class="cls-1" points="523.08 86.35 538.6 98.9 574.75 51.33 559.59 40.52 523.08 86.35"/><polygon class="cls-1" points="579.45 55.92 555.87 86.23 575.86 102.5 600.7 71.82 579.45 55.92"/><polygon class="cls-1" points="600.7 89.71 578.28 121 586.67 127.83 583.81 131.19 607.78 148.82 634.73 114.05 600.7 89.71"/><polygon class="cls-1" points="337.16 358.98 323.95 376.08 354.16 397.84 366.94 382.31 362.82 379.15 366.41 374.82 356.17 366.79 352.15 371.12 337.16 358.98"/><polygon class="cls-1" points="353.84 335.32 340.75 353.06 371.37 376.4 374.86 371.65 383.73 377.88 393.76 364.47 353.84 335.32"/><polygon class="cls-1" points="290.92 401.29 255.78 446.42 255.78 487.92 312.96 416.65 290.92 401.29"/><polygon class="cls-1" points="406.48 270.14 384.7 300.8 397.05 309.27 399.21 306.66 402.28 309.27 397.03 315.7 416.68 330.8 428.83 315.36 424.27 311.23 428.24 306.59 438.02 314.18 443.51 308.53 432.54 299.67 441.23 288.28 416.34 269.89 413.34 274.53 406.48 270.14"/><polygon class="cls-1" points="430.83 318.03 419.48 332.22 428.88 339.13 439.78 324.95 430.83 318.03"/><polygon class="cls-1" points="439.13 227.79 418.26 256.97 436.16 269.89 457.39 241.79 439.13 227.79"/><polygon class="cls-1" points="444.23 207.16 433.38 221.67 459.41 241.31 470.67 225.66 444.23 207.16"/><polygon class="cls-1" points="927.42 249.67 917.34 263.69 878.73 234.91 889.67 220.4 927.42 249.67"/><polygon class="cls-1" points="885.37 187.82 874.67 202.94 913.63 233.31 924.47 218.68 885.37 187.82"/><polygon class="cls-1" points="886.39 217.38 867.63 201.89 854.88 217.12 875.62 232.75 887.6 218.35 886.39 217.38"/><polygon class="cls-1" points="864.95 200.81 853.22 216.11 800.63 176.23 812.98 159.55 864.95 200.81"/><polygon class="cls-1" points="826.4 143.02 814.87 158.64 854.88 188.59 861.37 180.85 861.37 171.34 826.4 143.02"/><polygon class="cls-1" points="827.92 141.97 868.59 172.59 876.76 161.98 860.78 150.47 864.95 145.15 879.16 155.81 886.1 147.59 874.67 138.44 886.1 123.51 852.18 97.34 834.81 118.65 842.34 123.62 827.92 141.97"/><polygon class="cls-1" points="876.14 74.33 858.28 95.97 888.27 118.78 906 95.71 876.14 74.33"/><polygon class="cls-1" points="897.26 37.82 878.1 67.15 897.26 81.1 894.14 85.8 905.09 93.75 910.69 86.19 899.87 79.28 903.13 75.11 934.29 99.1 949.94 78.11 897.26 37.82"/><polygon class="cls-1" points="953.7 7.01 938.71 26.38 949.94 34.48 934.99 55.48 962.46 76.49 977.88 56.36 981.5 42.47 981.5 34.91 985.43 28.79 953.7 7.01"/><polygon class="cls-1" points="337.91 194.48 315.9 223 341.28 243.22 352.4 229.96 346.56 224.57 352.4 215.37 339.26 205.15 344.65 198.86 337.91 194.48"/><polygon class="cls-1" points="325.51 238.11 303.6 269.05 266.29 244.92 271.02 227.3 281.54 229.07 280.65 236.18 290.27 224.49 301.82 233.07 317.66 231.74 325.51 238.11"/><polygon class="cls-1" points="294.7 68.24 285.5 131.88 308.12 135.71 318.28 71.5 294.7 68.24"/><polygon class="cls-1" points="283.4 102.93 283.4 134.18 275.15 134.18 275.15 137.63 259.23 136.26 260.25 125 257.98 124.89 259 112.37 262.98 112.6 263.44 105.78 272.76 106.8 272.76 101.97 283.4 102.93"/><polygon class="cls-1" points="289.93 64.97 284.8 99.27 270.69 99.72 270.69 91.06 267.02 90.83 267.02 67.13 280.36 63.71 289.93 64.97"/><polygon class="cls-1" points="331.9 143.3 314.21 141.09 321.58 88.03 332.51 88.77 332.02 106.45 354.5 108.54 351.55 136.54 333.14 134.95 331.9 143.3"/><polygon class="cls-1" points="359.24 79.82 356.14 103.6 373.73 105.04 377.05 81.81 359.24 79.82"/><polygon class="cls-1" points="377.05 107.82 375.21 138.14 405.01 140.6 407.9 120.9 397.71 109.01 377.05 107.82"/><polygon class="cls-1" points="402.81 66.46 393.87 76.99 420.89 96.03 440.57 69.44 422.92 56.14 417.7 62.41 402.81 66.46"/><polygon class="cls-1" points="465.51 28.35 459.99 35.61 484.93 54.83 490.14 47.57 465.51 28.35"/><polygon class="cls-1" points="495.05 1.77 484.01 16.29 510.18 35.3 521.53 19.76 495.05 1.77"/><polygon class="cls-1" points="590.99 0 580.97 11.89 603.78 29.77 616.71 12.62 600.02 0 590.99 0"/><polygon class="cls-1" points="632.88 20.26 617.43 39.55 626.98 47.12 645.18 25.57 645.18 14.26 641.15 10.61 647.84 3.13 645.38 0 624.02 0 617.43 8.74 632.88 20.26"/><polygon class="cls-1" points="690.78 57.32 673.54 79.63 689.63 92.55 707.3 69.1 690.78 57.32"/><polygon class="cls-1" points="711.49 81.22 697.9 98.32 749.44 136.72 771.41 108.97 738 83.6 729.16 93.62 711.49 81.22"/><polygon class="cls-1" points="773.26 110.65 751.66 138.33 765.13 148.89 774.96 146.95 790.99 125.1 773.26 110.65"/><polygon class="cls-1" points="752.87 62.82 739.76 80.3 754.45 91.23 752.51 93.47 781.11 114.57 787.03 107.06 771.41 95.79 780.68 83.95 752.87 62.82"/><polygon class="cls-1" points="750.01 19.51 730.42 44.47 768.31 72.38 787.03 48.83 750.01 19.51"/><polygon class="cls-1" points="804.87 35.99 794.48 49.74 822.39 70.83 832.99 56.04 804.87 35.99"/><polygon class="cls-1" points="782.41 17.1 774.75 26.02 791.86 39.88 800.04 30.11 782.41 17.1"/><polygon class="cls-1" points="802.38 0 791.12 13.54 812.11 30.11 823.44 15.58 802.38 0"/><polygon class="cls-1" points="827.82 19.51 817.05 33.46 838.42 49.79 849.28 35.51 827.82 19.51"/><polygon class="cls-1" points="845.85 12.53 838.67 21.7 856.66 34.65 863.24 25.34 845.85 12.53"/><polygon class="cls-1" points="868.18 0 874.74 5.04 861.7 21.76 834.39 0 868.18 0"/><polygon class="cls-1" points="442.97 341.34 453.28 349.69 466.07 333.77 455.11 325.68 442.97 341.34"/><polygon class="cls-1" points="470.37 305.06 481.07 313.28 489.95 301.8 477.55 292.93 469.33 303.89 470.37 305.06"/><polygon class="cls-1" points="374.33 379.85 366.31 390.27 377.93 398.62 385.49 388.35 374.33 379.85"/><polygon class="cls-1" points="470.91 367.57 442.13 403.45 456.52 413.78 484.21 377.88 470.91 367.57"/><polygon class="cls-1" points="512.29 351.05 504.63 359.8 494.02 351.05 501.53 342.54 512.29 351.05"/><polygon class="cls-1" points="593.84 166.63 588.08 173.7 572.5 161.13 578.91 152.88 594.89 165.06 593.84 166.63"/></g><g id="Greens"><path class="cls-8" d="M671,16.94l-29.21,35.7a3.8,3.8,0,0,0,.63,5.41l26.27,20.24a3.8,3.8,0,0,0,5.36-.74l27.86-37.26A3.81,3.81,0,0,0,701.1,35L676.18,16.3A3.8,3.8,0,0,0,671,16.94Z"/><path class="cls-8" d="M745.55,595.28s24.9-46.52,52.09-62.92,43.84-13.88,75.12-41.63,54.54-61.82,69.41-72.92S984,398.13,984,398.13s39.66-17.6,52.88-38.32V595.28Z"/></g><g id="Trees"><path class="cls-9" d="M468.81,265.14a22.4,22.4,0,0,0-2.32.05,3.59,3.59,0,0,0-2.75,2.37c-.57,1.74.28,3.7-.24,5.46-.3,1-1,2-.69,3a8.34,8.34,0,0,0,.81,1.25c.92,1.51.14,3.67,1.21,5.08.55.72,1.51,1.1,1.91,1.93a10.78,10.78,0,0,0,.55,1.6c.59.91,1.92.78,3,.89.87.08,1.7.38,2.57.48,3.26.38,6.25-2,9.52-2.13,1.4,0,2.95.32,4.08-.5,1.28-.92,1.29-2.79,2-4.2.61-1.24,1.84-2.33,1.7-3.71s-1.5-2.2-1.92-3.46a7.18,7.18,0,0,1,0-2.81,7.55,7.55,0,0,0-.79-4.29,5,5,0,0,0-3.43-2.54c-1-.15-2,0-2.94-.07-1.75-.21-3.3-1.41-5.06-1.46a8.12,8.12,0,0,0-3.3.88C471.31,263.6,470.36,265,468.81,265.14Z"/><path class="cls-9" d="M868.79,347.19c-1.12.2-2.29.17-3.4.43-7.28,1.69-3.53,17.44-1.46,21.81a12.11,12.11,0,0,0,4.86,5.74c2.75,1.46,6.12,1.14,9.14.36s6-1.95,9.12-2.07c1.64-.07,3.47.1,4.72-1a5.86,5.86,0,0,0,1.42-2.15l2.5-5.4a5.32,5.32,0,0,0,.7-2.56c-.09-1.4-1.24-2.48-1.85-3.75-1.54-3.21.4-7.44-1.56-10.41s-6.38-2.65-9.88-3.5c-2.08-.49-4.11-1.53-6.23-1.25-2.79.36-4.84,2.89-7.56,3.6Z"/><path class="cls-10" d="M989.14,234.07c.23,1.12.22,2.29.5,3.4,1.87,7.24,17.52,3.12,21.84.95a12.18,12.18,0,0,0,5.63-5c1.4-2.79,1-6.15.15-9.16s-2.09-5.94-2.29-9.06c-.1-1.64,0-3.47-1.06-4.7a5.87,5.87,0,0,0-2.18-1.36l-5.46-2.38a5.35,5.35,0,0,0-2.57-.64c-1.41.12-2.46,1.3-3.72,1.94-3.16,1.61-7.44-.23-10.36,1.79s-2.51,6.44-3.27,10c-.45,2.08-1.44,4.14-1.11,6.25.43,2.78,3,4.77,3.78,7.48Z"/><path class="cls-9" d="M942,269.94c-1.12.2-2.29.16-3.4.42-7.28,1.7-3.54,17.44-1.47,21.81a12.14,12.14,0,0,0,4.87,5.74c2.75,1.47,6.12,1.14,9.14.37s6-1.95,9.12-2.08c1.64-.07,3.46.1,4.72-.95a5.79,5.79,0,0,0,1.41-2.15l2.51-5.4a5.35,5.35,0,0,0,.7-2.56c-.09-1.41-1.24-2.49-1.85-3.76-1.54-3.2.4-7.43-1.56-10.4s-6.38-2.66-9.88-3.5c-2.08-.5-4.12-1.54-6.23-1.26-2.79.37-4.84,2.9-7.56,3.6A4.87,4.87,0,0,1,942,269.94Z"/><path class="cls-9" d="M966.76,240.79c-1.12.2-2.29.17-3.4.43-7.28,1.7-3.53,17.44-1.46,21.81a12.11,12.11,0,0,0,4.86,5.74c2.76,1.47,6.12,1.14,9.15.37s6-1.95,9.11-2.08c1.64-.07,3.47.1,4.73-.95a6.14,6.14,0,0,0,1.41-2.15l2.5-5.4a5.38,5.38,0,0,0,.7-2.56c-.09-1.41-1.24-2.49-1.85-3.76-1.54-3.21.4-7.43-1.55-10.4s-6.39-2.66-9.89-3.5c-2.08-.5-4.11-1.54-6.23-1.26-2.79.36-4.84,2.9-7.56,3.6A4.36,4.36,0,0,1,966.76,240.79Z"/><path class="cls-9" d="M796.79,418.86c-1.12.2-2.29.17-3.4.43-7.28,1.69-3.53,17.44-1.46,21.8a12.07,12.07,0,0,0,4.86,5.74c2.76,1.47,6.12,1.14,9.15.37s6-1.95,9.11-2.08c1.64-.06,3.47.11,4.73-.95a5.83,5.83,0,0,0,1.41-2.15l2.5-5.4a5.37,5.37,0,0,0,.71-2.56c-.1-1.41-1.25-2.48-1.86-3.75-1.54-3.21.41-7.44-1.55-10.41s-6.38-2.65-9.89-3.5c-2.07-.5-4.11-1.53-6.23-1.26-2.78.37-4.84,2.9-7.56,3.61Z"/><path class="cls-9" d="M932.21,468.87c-1.13.2-2.29.16-3.41.42-7.28,1.7-3.53,17.44-1.46,21.81a12.12,12.12,0,0,0,4.86,5.74c2.76,1.47,6.12,1.14,9.15.37s6-1.95,9.11-2.08c1.64-.07,3.47.1,4.73-.95A6,6,0,0,0,956.6,492l2.51-5.4a5.47,5.47,0,0,0,.7-2.56c-.1-1.41-1.24-2.49-1.85-3.76-1.55-3.2.4-7.43-1.56-10.4s-6.38-2.66-9.89-3.5c-2.07-.5-4.11-1.54-6.22-1.26-2.79.37-4.84,2.9-7.56,3.6Z"/><path class="cls-9" d="M712,485.18c-.42,1.07-1.05,2.05-1.41,3.14-2.32,7.1,13.08,12.06,17.89,12.56a12.12,12.12,0,0,0,7.43-1.18c2.69-1.6,4.15-4.64,5.06-7.63s1.44-6.13,3-8.87c.79-1.43,1.89-2.91,1.64-4.53a5.73,5.73,0,0,0-1.11-2.32l-3.31-5a5.47,5.47,0,0,0-1.83-1.93c-1.25-.64-2.77-.22-4.17-.36-3.54-.35-6.15-4.2-9.7-4.07s-5.58,4.08-8.12,6.64c-1.51,1.51-3.45,2.72-4.31,4.67-1.13,2.57,0,5.64-.84,8.33C712.07,484.85,712,485,712,485.18Z"/><path class="cls-9" d="M612.49,542.87c-.41,1.06-1,2-1.4,3.13-2.33,7.1,13.08,12.07,17.89,12.56a12.07,12.07,0,0,0,7.43-1.18c2.68-1.59,4.15-4.64,5.06-7.62s1.44-6.14,2.95-8.87c.79-1.44,1.88-2.92,1.64-4.54A6,6,0,0,0,645,534l-3.32-4.94a5.36,5.36,0,0,0-1.82-1.93c-1.26-.65-2.77-.23-4.18-.37-3.54-.34-6.14-4.2-9.7-4.06s-5.58,4.07-8.12,6.63c-1.5,1.52-3.44,2.72-4.3,4.67-1.14,2.58,0,5.64-.85,8.34C612.61,542.54,612.55,542.7,612.49,542.87Z"/><path class="cls-9" d="M975.09,563.92c-.41,1.07-1.05,2.05-1.4,3.13-2.33,7.11,13.08,12.07,17.88,12.57a12.12,12.12,0,0,0,7.43-1.18c2.69-1.6,4.15-4.64,5.06-7.63s1.44-6.13,3-8.87c.8-1.44,1.89-2.91,1.64-4.53a6,6,0,0,0-1.1-2.33l-3.32-4.94a5.47,5.47,0,0,0-1.83-1.93c-1.25-.65-2.77-.22-4.17-.36-3.54-.35-6.15-4.2-9.7-4.07s-5.58,4.08-8.12,6.64c-1.5,1.51-3.45,2.72-4.31,4.67-1.13,2.57,0,5.64-.84,8.33C975.21,563.59,975.15,563.76,975.09,563.92Z"/><path class="cls-9" d="M591.76,553.55c-.78.3-1.63.45-2.4.8-5,2.28,0,13.13,2.09,16a8.91,8.91,0,0,0,4.35,3.45c2.21.67,4.59,0,6.67-1s4.06-2.28,6.3-2.82c1.17-.29,2.52-.43,3.28-1.37a4.39,4.39,0,0,0,.71-1.76l1-4.27a3.86,3.86,0,0,0,.14-2c-.27-1-1.25-1.62-1.88-2.45-1.58-2.09-.78-5.44-2.63-7.3s-5-1-7.66-1.11c-1.57-.06-3.2-.52-4.69,0-2,.67-3.08,2.8-5,3.7Z"/><path class="cls-9" d="M425.76,110.84a22.59,22.59,0,0,0-2.33,0,3.57,3.57,0,0,0-2.74,2.36c-.57,1.75.27,3.71-.24,5.47-.3,1-1.05,2-.69,3a7.62,7.62,0,0,0,.81,1.25c.91,1.51.13,3.67,1.2,5.07.55.73,1.52,1.11,1.91,1.93a13.24,13.24,0,0,0,.55,1.61c.6.91,1.92.78,3,.89.87.08,1.71.38,2.58.48,3.25.38,6.24-2,9.52-2.13,1.39,0,2.94.32,4.07-.5,1.28-.92,1.29-2.79,2-4.2.61-1.24,1.83-2.33,1.69-3.71s-1.49-2.2-1.91-3.46a7,7,0,0,1,0-2.81,7.55,7.55,0,0,0-.79-4.29,4.92,4.92,0,0,0-3.43-2.54c-1-.15-2,0-2.94-.07-1.75-.21-3.29-1.41-5.05-1.46a8,8,0,0,0-3.3.88C428.26,109.3,427.3,110.74,425.76,110.84Z"/><path class="cls-9" d="M280.56,6.16a22.59,22.59,0,0,0-2.33,0,3.57,3.57,0,0,0-2.74,2.36c-.57,1.75.27,3.7-.24,5.47-.3,1-1.05,2-.69,3a7.62,7.62,0,0,0,.81,1.25c.91,1.51.13,3.67,1.2,5.07.55.73,1.52,1.11,1.91,1.93a13.24,13.24,0,0,0,.55,1.61c.6.91,1.92.78,3,.89.87.08,1.71.38,2.58.48,3.25.38,6.24-2,9.52-2.13,1.39,0,2.94.32,4.07-.5,1.28-.92,1.29-2.79,2-4.2.61-1.24,1.83-2.33,1.69-3.71s-1.49-2.2-1.91-3.46a7,7,0,0,1,0-2.82,7.45,7.45,0,0,0-.79-4.28,4.92,4.92,0,0,0-3.43-2.54c-1-.15-2,0-2.94-.08-1.74-.2-3.29-1.4-5.05-1.45a8,8,0,0,0-3.3.88C283.06,4.62,282.1,6.06,280.56,6.16Z"/><path class="cls-9" d="M451.5,288.05a22.59,22.59,0,0,0-2.33.05,3.56,3.56,0,0,0-2.74,2.37c-.57,1.74.27,3.7-.24,5.46-.3,1-1.05,2-.69,3a7.62,7.62,0,0,0,.81,1.25c.91,1.51.13,3.67,1.2,5.08.55.72,1.52,1.1,1.91,1.93a14.53,14.53,0,0,0,.55,1.61c.6.9,1.92.77,3,.88.87.08,1.71.38,2.58.48,3.25.38,6.24-2,9.52-2.13,1.39,0,2.94.32,4.07-.5,1.28-.92,1.29-2.79,2-4.2.61-1.24,1.83-2.33,1.69-3.71s-1.49-2.19-1.91-3.46a7,7,0,0,1,0-2.81,7.47,7.47,0,0,0-.79-4.29,4.92,4.92,0,0,0-3.43-2.54c-1-.15-2,0-2.94-.07-1.75-.21-3.29-1.41-5.05-1.46a8,8,0,0,0-3.3.88C454,286.51,453,288,451.5,288.05Z"/><path class="cls-9" d="M419.43,223.29c-.45,0-.9,0-1.34,0a2.07,2.07,0,0,0-1.58,1.36c-.33,1,.15,2.14-.14,3.15-.17.59-.6,1.17-.4,1.75a4.24,4.24,0,0,0,.47.72c.52.87.07,2.12.69,2.92.32.42.87.64,1.1,1.11a5.66,5.66,0,0,0,.32.93c.34.52,1.1.45,1.72.51s1,.22,1.49.28c1.87.22,3.59-1.18,5.48-1.23.8,0,1.69.18,2.35-.29s.74-1.6,1.14-2.42,1-1.34,1-2.13-.86-1.27-1.1-2a4,4,0,0,1,0-1.62,4.37,4.37,0,0,0-.46-2.47,2.87,2.87,0,0,0-2-1.47c-.56-.08-1.13,0-1.69,0-1-.12-1.9-.81-2.92-.83a4.59,4.59,0,0,0-1.9.5C420.86,222.41,420.31,223.24,419.43,223.29Z"/><path class="cls-9" d="M775.23,435.08a11.94,11.94,0,0,0-1.34,0,2.07,2.07,0,0,0-1.58,1.36c-.33,1,.16,2.13-.14,3.15-.17.58-.6,1.17-.39,1.75a4,4,0,0,0,.46.72c.53.87.08,2.11.69,2.92.32.42.88.64,1.1,1.11a9.25,9.25,0,0,0,.32.93c.34.52,1.11.45,1.73.51s1,.22,1.48.28c1.88.21,3.6-1.18,5.48-1.23.81,0,1.7.18,2.35-.29s.74-1.6,1.14-2.42,1.06-1.34,1-2.13-.86-1.27-1.1-2a3.84,3.84,0,0,1,0-1.62,4.26,4.26,0,0,0-.45-2.46,2.83,2.83,0,0,0-2-1.47c-.56-.09-1.13,0-1.69,0-1-.12-1.9-.81-2.91-.84a4.6,4.6,0,0,0-1.9.51C776.67,434.19,776.12,435,775.23,435.08Z"/><path class="cls-9" d="M768,362.87a12,12,0,0,0-1.34,0,2.07,2.07,0,0,0-1.58,1.36c-.33,1,.16,2.13-.14,3.14-.17.59-.6,1.18-.39,1.76a4.61,4.61,0,0,0,.46.72c.53.86.08,2.11.7,2.92.31.42.87.64,1.1,1.11a7.8,7.8,0,0,0,.31.93c.35.52,1.11.44,1.73.5s1,.23,1.48.28c1.88.22,3.6-1.17,5.49-1.22.8,0,1.69.18,2.34-.29s.74-1.61,1.14-2.42,1.06-1.34,1-2.13-.86-1.27-1.1-2a4.2,4.2,0,0,1,0-1.62,4.31,4.31,0,0,0-.45-2.47,2.84,2.84,0,0,0-2-1.46c-.55-.09-1.13,0-1.69,0-1-.12-1.89-.81-2.91-.84a4.6,4.6,0,0,0-1.9.51C769.4,362,768.85,362.81,768,362.87Z"/><path class="cls-9" d="M892,551.19c-.45,0-.9,0-1.34,0a2.09,2.09,0,0,0-1.58,1.36c-.33,1,.16,2.13-.14,3.15-.17.59-.6,1.17-.39,1.75a3.66,3.66,0,0,0,.46.72c.53.87.08,2.11.69,2.92.32.42.88.64,1.11,1.11a6.76,6.76,0,0,0,.31.93c.34.52,1.11.45,1.73.51s1,.22,1.48.28c1.88.22,3.6-1.18,5.48-1.23.81,0,1.7.18,2.35-.29s.74-1.6,1.14-2.42,1.06-1.34,1-2.13-.86-1.27-1.1-2a4,4,0,0,1,0-1.62,4.28,4.28,0,0,0-.45-2.47,2.88,2.88,0,0,0-2-1.47c-.56-.08-1.13,0-1.69,0-1-.12-1.9-.81-2.91-.83a4.59,4.59,0,0,0-1.9.5C893.45,550.3,892.9,551.14,892,551.19Z"/><path class="cls-9" d="M912.19,308c-.45,0-.9,0-1.34,0a2.08,2.08,0,0,0-1.58,1.37c-.33,1,.15,2.13-.14,3.14-.17.59-.6,1.18-.4,1.75a4.24,4.24,0,0,0,.47.72c.53.87.08,2.12.69,2.92.32.42.87.64,1.1,1.12a7.14,7.14,0,0,0,.32.92c.34.52,1.1.45,1.73.51s1,.22,1.48.28c1.87.22,3.59-1.18,5.48-1.23.8,0,1.7.19,2.35-.28s.74-1.61,1.14-2.42,1.06-1.34,1-2.14-.86-1.26-1.11-2a4,4,0,0,1,0-1.62,4.36,4.36,0,0,0-.45-2.47,2.86,2.86,0,0,0-2-1.46c-.56-.09-1.13,0-1.69-.05-1-.12-1.9-.8-2.91-.83a4.55,4.55,0,0,0-1.9.5C913.63,307.08,913.08,307.91,912.19,308Z"/><path class="cls-9" d="M885.65,160.29a10,10,0,0,0-1.34,0,2.05,2.05,0,0,0-1.58,1.36c-.33,1,.16,2.13-.14,3.14-.17.59-.6,1.18-.39,1.75a3.66,3.66,0,0,0,.46.72c.53.87.08,2.12.69,2.93.32.41.88.63,1.1,1.11.15.29.14.65.32.92.34.52,1.11.45,1.73.51s1,.22,1.48.28c1.88.22,3.6-1.17,5.48-1.22.81,0,1.7.18,2.35-.29s.74-1.61,1.14-2.42,1.06-1.34,1-2.14-.86-1.26-1.1-2a4,4,0,0,1,0-1.62,4.28,4.28,0,0,0-.45-2.47,2.84,2.84,0,0,0-2-1.46c-.56-.09-1.13,0-1.69,0-1-.12-1.9-.81-2.91-.84a4.6,4.6,0,0,0-1.9.51C887.09,159.4,886.54,160.23,885.65,160.29Z"/><path class="cls-9" d="M929.88,297.82a10,10,0,0,0-1.34,0,2.05,2.05,0,0,0-1.58,1.36c-.33,1,.16,2.13-.14,3.14-.17.59-.6,1.18-.39,1.75a3.66,3.66,0,0,0,.46.72c.53.87.08,2.12.69,2.93.32.41.88.63,1.11,1.11a7.1,7.1,0,0,0,.31.92c.35.53,1.11.45,1.73.51s1,.22,1.48.28c1.88.22,3.6-1.17,5.48-1.22.81,0,1.7.18,2.35-.29s.74-1.61,1.14-2.42,1.06-1.34,1-2.14-.86-1.26-1.1-2a4.2,4.2,0,0,1,0-1.62,4.28,4.28,0,0,0-.45-2.47,2.84,2.84,0,0,0-2-1.46c-.55-.09-1.13,0-1.69,0-1-.12-1.89-.81-2.91-.84a4.6,4.6,0,0,0-1.9.51C931.32,296.93,930.77,297.76,929.88,297.82Z"/><path class="cls-9" d="M937.78,158a11.94,11.94,0,0,0-1.34,0,2.07,2.07,0,0,0-1.58,1.36c-.33,1,.15,2.13-.14,3.15-.17.58-.6,1.17-.4,1.75a4.68,4.68,0,0,0,.47.72c.53.86.08,2.11.69,2.92.32.42.87.64,1.1,1.11a7.28,7.28,0,0,0,.32.93c.34.52,1.1.44,1.73.5s1,.23,1.48.28c1.87.22,3.59-1.17,5.48-1.22.8,0,1.7.18,2.35-.29s.74-1.61,1.14-2.42,1.06-1.34,1-2.13-.86-1.27-1.11-2a4,4,0,0,1,0-1.62,4.39,4.39,0,0,0-.45-2.47,2.86,2.86,0,0,0-2-1.46c-.56-.09-1.13,0-1.69,0-1-.12-1.9-.81-2.91-.84a4.56,4.56,0,0,0-1.9.51C939.22,157.1,938.67,157.93,937.78,158Z"/><path class="cls-9" d="M984.05,100.83c-.45,0-.9,0-1.34,0a2.08,2.08,0,0,0-1.58,1.37c-.33,1,.16,2.13-.14,3.14-.17.59-.6,1.18-.4,1.75a4.24,4.24,0,0,0,.47.72c.53.87.08,2.12.69,2.92.32.42.88.64,1.1,1.12a7.14,7.14,0,0,0,.32.92c.34.52,1.1.45,1.73.51s1,.22,1.48.28c1.87.22,3.59-1.18,5.48-1.23.8,0,1.7.19,2.35-.28s.74-1.61,1.14-2.42,1.06-1.34,1-2.14-.86-1.26-1.11-2a4,4,0,0,1,0-1.62,4.36,4.36,0,0,0-.45-2.47,2.84,2.84,0,0,0-2-1.46c-.56-.09-1.13,0-1.69,0-1-.12-1.9-.8-2.91-.83a4.59,4.59,0,0,0-1.9.5C985.49,100,984.94,100.78,984.05,100.83Z"/><path class="cls-10" d="M1020.71,47.89c-.45,0-.9,0-1.34,0a2.07,2.07,0,0,0-1.58,1.36c-.33,1,.16,2.13-.14,3.15-.17.59-.6,1.17-.39,1.75a4,4,0,0,0,.46.72c.53.87.08,2.11.69,2.92.32.42.88.64,1.11,1.11a6.76,6.76,0,0,0,.31.93c.34.52,1.11.45,1.73.51s1,.22,1.48.28c1.88.22,3.6-1.18,5.48-1.23.81,0,1.7.18,2.35-.29s.74-1.6,1.14-2.42,1.06-1.34,1-2.13-.86-1.27-1.1-2a4,4,0,0,1,0-1.62,4.26,4.26,0,0,0-.45-2.46,2.83,2.83,0,0,0-2-1.47c-.56-.08-1.13,0-1.69,0-1-.12-1.9-.81-2.91-.84a4.76,4.76,0,0,0-1.9.51C1022.15,47,1021.6,47.84,1020.71,47.89Z"/><path class="cls-9" d="M1009.81,189c-.44,0-.9,0-1.34,0a2.09,2.09,0,0,0-1.58,1.36c-.33,1,.16,2.14-.14,3.15-.17.59-.6,1.18-.39,1.75a4.19,4.19,0,0,0,.46.72c.53.87.08,2.12.7,2.92.31.42.87.64,1.1,1.11a6.76,6.76,0,0,0,.31.93c.35.52,1.11.45,1.73.51s1,.22,1.48.28c1.88.22,3.6-1.18,5.49-1.23.8,0,1.69.18,2.34-.29s.74-1.6,1.14-2.41,1.06-1.35,1-2.14-.86-1.27-1.1-2a4,4,0,0,1,0-1.62,4.37,4.37,0,0,0-.46-2.47,2.84,2.84,0,0,0-2-1.46c-.55-.09-1.13,0-1.69,0-1-.12-1.89-.81-2.91-.83a4.59,4.59,0,0,0-1.9.5C1011.25,188.1,1010.7,188.93,1009.81,189Z"/><path class="cls-9" d="M1024,170.11c-.44,0-.9,0-1.34,0a2.09,2.09,0,0,0-1.58,1.36c-.33,1,.16,2.14-.14,3.15-.17.59-.6,1.18-.39,1.75a3.66,3.66,0,0,0,.46.72c.53.87.08,2.12.69,2.92.32.42.88.64,1.11,1.12a7.1,7.1,0,0,0,.31.92c.35.52,1.11.45,1.73.51s1,.22,1.48.28c1.88.22,3.6-1.18,5.48-1.23.81,0,1.7.19,2.35-.28s.74-1.61,1.14-2.42,1.06-1.35,1-2.14-.86-1.26-1.1-2a4.2,4.2,0,0,1,0-1.62,4.28,4.28,0,0,0-.45-2.47,2.84,2.84,0,0,0-2-1.46c-.55-.09-1.13,0-1.69,0-1-.12-1.89-.8-2.91-.83a4.59,4.59,0,0,0-1.9.5C1025.41,169.23,1024.86,170.06,1024,170.11Z"/><path class="cls-9" d="M781.45,451.51a11.81,11.81,0,0,0-1.33,0,2,2,0,0,0-1.58,1.36c-.33,1,.15,2.13-.14,3.14-.18.59-.61,1.18-.4,1.76a4.68,4.68,0,0,0,.47.72c.52.86.07,2.11.69,2.92.32.42.87.64,1.1,1.11a7.8,7.8,0,0,0,.31.93c.35.52,1.11.44,1.73.5s1,.23,1.49.28c1.87.22,3.59-1.17,5.48-1.22.8,0,1.69.18,2.34-.29s.75-1.61,1.15-2.42,1-1.34,1-2.13-.86-1.27-1.1-2a4,4,0,0,1,0-1.62,4.38,4.38,0,0,0-.46-2.47,2.85,2.85,0,0,0-2-1.46c-.56-.09-1.13,0-1.69,0-1-.12-1.9-.81-2.92-.84a4.6,4.6,0,0,0-1.9.51C782.89,450.62,782.34,451.45,781.45,451.51Z"/><path class="cls-9" d="M700.06,498.15c-.45,0-.9,0-1.34,0a2.07,2.07,0,0,0-1.58,1.36c-.33,1,.16,2.13-.14,3.15-.17.59-.6,1.17-.4,1.75a4.68,4.68,0,0,0,.47.72c.53.87.08,2.11.69,2.92.32.42.88.64,1.1,1.11a8.46,8.46,0,0,0,.32.93c.34.52,1.1.45,1.73.51s1,.22,1.48.28c1.87.22,3.6-1.18,5.48-1.23.8,0,1.7.18,2.35-.29s.74-1.6,1.14-2.42,1.06-1.34,1-2.13-.86-1.27-1.11-2a4,4,0,0,1,0-1.62,4.34,4.34,0,0,0-.45-2.46,2.83,2.83,0,0,0-2-1.47c-.56-.08-1.13,0-1.69,0-1-.12-1.9-.81-2.91-.84a4.76,4.76,0,0,0-1.9.51C701.5,497.26,701,498.09,700.06,498.15Z"/><path class="cls-10" d="M410.65,234c-.43.08-.88.09-1.32.17-3.68.66-1.91,7.25-.91,9.43a5.47,5.47,0,0,0,2.7,3c2.2.87,4.58-.7,6.94-.86a6.22,6.22,0,0,0,2.2-.28,4.09,4.09,0,0,0,1.72-2.1,4.53,4.53,0,0,0,.68-3.11c-.17-.6-.58-1.11-.77-1.7-.47-1.4.27-3.19-.72-4.3a3.51,3.51,0,0,0-1.93-.88l-3-.68a5,5,0,0,0-3.1,0c-.68.3-1.2.91-1.89,1.19A3,3,0,0,1,410.65,234Z"/><path class="cls-10" d="M458.44,81.42c-.43.08-.88.09-1.32.17-3.67.66-1.91,7.25-.91,9.43a5.41,5.41,0,0,0,2.7,3c2.2.87,4.58-.7,6.94-.86a6.2,6.2,0,0,0,2.2-.28,4.11,4.11,0,0,0,1.72-2.09,4.57,4.57,0,0,0,.68-3.12c-.16-.6-.57-1.1-.77-1.7-.47-1.4.27-3.19-.72-4.29a3.53,3.53,0,0,0-1.93-.89l-3-.67a5,5,0,0,0-3.1,0c-.68.31-1.2.91-1.89,1.19A3,3,0,0,1,458.44,81.42Z"/><path class="cls-10" d="M652.87,9.27c-.44.08-.89.09-1.33.17-3.67.66-1.9,7.25-.9,9.43a5.49,5.49,0,0,0,2.69,3c2.21.87,4.58-.7,6.95-.86a6.22,6.22,0,0,0,2.2-.28,4.12,4.12,0,0,0,1.71-2.1,4.54,4.54,0,0,0,.69-3.11c-.17-.6-.58-1.11-.78-1.7-.47-1.4.27-3.19-.71-4.3a3.51,3.51,0,0,0-1.93-.88l-3-.68a5,5,0,0,0-3.1,0c-.68.3-1.2.91-1.89,1.19A3.15,3.15,0,0,1,652.87,9.27Z"/><path class="cls-10" d="M389.6,7.79c-.44.08-.89.1-1.33.18-3.67.65-1.9,7.24-.9,9.43a5.49,5.49,0,0,0,2.69,3c2.2.87,4.58-.7,6.95-.86a6.37,6.37,0,0,0,2.19-.28,4.13,4.13,0,0,0,1.72-2.1,4.56,4.56,0,0,0,.69-3.11c-.17-.6-.58-1.11-.78-1.7-.47-1.41.27-3.19-.71-4.3a3.51,3.51,0,0,0-1.94-.88l-3-.68a5,5,0,0,0-3.11,0c-.68.3-1.19.9-1.88,1.19A3.33,3.33,0,0,1,389.6,7.79Z"/><path class="cls-10" d="M400.67,27.69c-.43.08-.89.09-1.33.17-3.67.66-1.9,7.25-.9,9.43a5.43,5.43,0,0,0,2.69,3c2.21.87,4.58-.7,6.95-.86a6.46,6.46,0,0,0,2.2-.27A4.2,4.2,0,0,0,412,37a4.58,4.58,0,0,0,.69-3.12c-.17-.6-.58-1.1-.78-1.7-.47-1.4.27-3.19-.71-4.29a3.53,3.53,0,0,0-1.93-.89l-3-.67a5,5,0,0,0-3.1,0c-.68.31-1.2.91-1.89,1.19A3.15,3.15,0,0,1,400.67,27.69Z"/><path class="cls-10" d="M391.1,388c-.44.08-.89.1-1.33.18-3.67.65-1.9,7.24-.9,9.42a5.39,5.39,0,0,0,2.69,3c2.2.88,4.58-.69,6.95-.86a6.14,6.14,0,0,0,2.19-.27,4.13,4.13,0,0,0,1.72-2.1,4.5,4.5,0,0,0,.68-3.11c-.16-.61-.57-1.11-.77-1.7-.47-1.41.27-3.2-.71-4.3a3.44,3.44,0,0,0-1.94-.88l-3-.68a4.91,4.91,0,0,0-3.1,0c-.68.3-1.19.9-1.88,1.18A2.7,2.7,0,0,1,391.1,388Z"/><path class="cls-10" d="M394.94,466.14c-.44.08-.89.1-1.33.18-3.67.65-1.9,7.24-.9,9.42a5.39,5.39,0,0,0,2.69,3c2.2.88,4.58-.69,7-.86a6.14,6.14,0,0,0,2.19-.27,4.13,4.13,0,0,0,1.72-2.1,4.5,4.5,0,0,0,.68-3.11c-.16-.6-.57-1.11-.77-1.7-.47-1.41.27-3.2-.71-4.3a3.51,3.51,0,0,0-1.94-.88l-3-.68a5,5,0,0,0-3.11,0c-.68.3-1.19.9-1.88,1.18A2.7,2.7,0,0,1,394.94,466.14Z"/><path class="cls-10" d="M331.25,332.07c-.44.08-.89.09-1.33.17-3.67.66-1.9,7.25-.9,9.43a5.43,5.43,0,0,0,2.69,3c2.21.87,4.58-.7,7-.86a6.22,6.22,0,0,0,2.2-.28,4.14,4.14,0,0,0,1.71-2.09,4.58,4.58,0,0,0,.69-3.12c-.17-.6-.58-1.1-.78-1.7-.47-1.4.27-3.19-.71-4.29a3.53,3.53,0,0,0-1.93-.89l-3-.67a5,5,0,0,0-3.1,0c-.68.31-1.2.91-1.89,1.19A3.15,3.15,0,0,1,331.25,332.07Z"/><path class="cls-10" d="M307.2,370c-.43.08-.88.09-1.32.17-3.68.66-1.91,7.25-.91,9.43a5.43,5.43,0,0,0,2.69,3c2.21.87,4.59-.7,6.95-.86a6.22,6.22,0,0,0,2.2-.28,4,4,0,0,0,1.71-2.09,4.53,4.53,0,0,0,.69-3.12c-.17-.6-.58-1.1-.77-1.7-.47-1.4.27-3.19-.72-4.29a3.53,3.53,0,0,0-1.93-.89l-3-.67a5,5,0,0,0-3.1,0c-.68.31-1.2.91-1.89,1.19A3,3,0,0,1,307.2,370Z"/><path class="cls-10" d="M343.57,246.53c-.44.08-.89.09-1.33.17-3.67.66-1.9,7.25-.9,9.43a5.49,5.49,0,0,0,2.69,3c2.21.87,4.58-.7,7-.86a6.22,6.22,0,0,0,2.2-.28,4.12,4.12,0,0,0,1.71-2.1,4.54,4.54,0,0,0,.69-3.11c-.17-.6-.58-1.11-.78-1.7-.47-1.4.27-3.19-.71-4.3a3.51,3.51,0,0,0-1.93-.88l-3-.68a5,5,0,0,0-3.1,0c-.68.3-1.2.91-1.89,1.19A3.15,3.15,0,0,1,343.57,246.53Z"/><path class="cls-10" d="M413.17,99.42c-.43.08-.89.1-1.33.18-3.67.65-1.9,7.24-.9,9.43a5.49,5.49,0,0,0,2.69,3c2.21.87,4.58-.7,6.95-.86a6.46,6.46,0,0,0,2.2-.28,4.16,4.16,0,0,0,1.71-2.1,4.56,4.56,0,0,0,.69-3.11c-.17-.6-.58-1.11-.78-1.7-.46-1.41.27-3.19-.71-4.3a3.51,3.51,0,0,0-1.93-.88l-3-.68a5,5,0,0,0-3.1,0c-.68.3-1.2.9-1.89,1.19A2.54,2.54,0,0,1,413.17,99.42Z"/><path class="cls-10" d="M441.18,71.68c-.59.11-1.19.13-1.78.23-4.93.88-2.56,9.72-1.22,12.64a7.38,7.38,0,0,0,3.61,4c3,1.16,6.15-.94,9.32-1.16a8.23,8.23,0,0,0,2.94-.37,5.47,5.47,0,0,0,2.31-2.81c.64-1.31,1.31-2.77.91-4.18-.22-.8-.77-1.48-1-2.27-.63-1.89.36-4.28-1-5.77a4.7,4.7,0,0,0-2.59-1.18l-4-.9a6.65,6.65,0,0,0-4.16,0c-.91.41-1.61,1.22-2.53,1.6A4.52,4.52,0,0,1,441.18,71.68Z"/><path class="cls-10" d="M383.42,146.11c-.58.11-1.19.13-1.78.23-4.92.88-2.55,9.72-1.21,12.64a7.27,7.27,0,0,0,3.61,4c3,1.16,6.14-.94,9.31-1.16a8.07,8.07,0,0,0,2.95-.37,5.5,5.5,0,0,0,2.3-2.81c.65-1.31,1.31-2.77.92-4.18-.22-.8-.77-1.48-1-2.27-.63-1.89.36-4.28-1-5.77a4.67,4.67,0,0,0-2.59-1.18l-4-.9a6.65,6.65,0,0,0-4.16,0c-.91.41-1.6,1.22-2.53,1.6A4.3,4.3,0,0,1,383.42,146.11Z"/><path class="cls-10" d="M305,22.77c-.58.11-1.19.13-1.77.24-4.93.88-2.56,9.71-1.22,12.64a7.32,7.32,0,0,0,3.61,4c3,1.17,6.15-.94,9.32-1.15a8.23,8.23,0,0,0,2.94-.38,5.46,5.46,0,0,0,2.3-2.81c.65-1.31,1.31-2.77.92-4.17-.22-.81-.77-1.49-1-2.28-.62-1.88.37-4.28-.95-5.76a4.74,4.74,0,0,0-2.59-1.19l-4-.9a6.73,6.73,0,0,0-4.16,0c-.92.41-1.61,1.22-2.53,1.6A4.4,4.4,0,0,1,305,22.77Z"/><path class="cls-10" d="M896.05,325.18c-.85.16-1.74.19-2.6.34-7.22,1.29-3.74,14.24-1.78,18.53,1.12,2.44,2.79,4.84,5.29,5.83,4.33,1.71,9-1.37,13.65-1.69,1.46-.1,3,.06,4.31-.54,1.65-.76,2.57-2.5,3.38-4.13.94-1.91,1.92-4,1.34-6.12-.32-1.17-1.13-2.17-1.52-3.33-.92-2.76.54-6.27-1.4-8.45a7,7,0,0,0-3.8-1.73L907,322.56c-2-.45-4.21-.89-6.09-.05-1.34.6-2.36,1.78-3.71,2.34A6.09,6.09,0,0,1,896.05,325.18Z"/><path class="cls-10" d="M961.17,162c-.86.16-1.75.19-2.61.34-7.21,1.29-3.74,14.24-1.78,18.53,1.12,2.44,2.79,4.84,5.3,5.83,4.33,1.71,9-1.37,13.65-1.69,1.45-.1,3,.06,4.31-.54,1.65-.76,2.57-2.5,3.37-4.13,1-1.91,1.92-4.05,1.35-6.11-.33-1.18-1.13-2.18-1.52-3.34-.92-2.76.53-6.27-1.4-8.45a7,7,0,0,0-3.8-1.73l-5.89-1.33c-2-.45-4.21-.89-6.1,0-1.33.6-2.35,1.79-3.71,2.34A5.37,5.37,0,0,1,961.17,162Z"/><path class="cls-10" d="M928.15,107.75c-.85.16-1.74.18-2.6.34-7.22,1.29-3.74,14.24-1.78,18.52,1.12,2.45,2.79,4.85,5.29,5.84,4.33,1.71,9-1.37,13.65-1.69,1.46-.1,3,.06,4.32-.54,1.65-.76,2.57-2.5,3.37-4.13,1-1.91,1.92-4.06,1.35-6.12-.33-1.17-1.14-2.17-1.52-3.33-.92-2.76.53-6.27-1.41-8.45a6.85,6.85,0,0,0-3.79-1.73l-5.9-1.33c-2-.45-4.2-.89-6.09,0-1.34.6-2.35,1.78-3.71,2.34A5.89,5.89,0,0,1,928.15,107.75Z"/><path class="cls-10" d="M1001.33,23.61c-.85.16-1.74.19-2.6.34-7.22,1.3-3.74,14.24-1.78,18.53,1.12,2.45,2.79,4.85,5.29,5.84,4.33,1.71,9-1.37,13.65-1.69,1.46-.1,3,.06,4.32-.55,1.65-.75,2.57-2.5,3.37-4.12.95-1.92,1.92-4.06,1.35-6.12-.33-1.18-1.14-2.17-1.52-3.34-.92-2.76.53-6.27-1.41-8.44a6.93,6.93,0,0,0-3.79-1.74l-5.9-1.32c-2-.46-4.2-.9-6.09-.05-1.34.6-2.35,1.78-3.71,2.33A5.3,5.3,0,0,1,1001.33,23.61Z"/><path class="cls-10" d="M844.82,372.91c-.85.16-1.74.19-2.6.34-7.22,1.29-3.74,14.24-1.78,18.53,1.12,2.44,2.79,4.84,5.29,5.83,4.33,1.71,9-1.37,13.65-1.69,1.46-.1,3,.06,4.32-.54,1.65-.76,2.57-2.5,3.37-4.13.95-1.91,1.92-4.05,1.35-6.11-.33-1.18-1.14-2.18-1.52-3.34-.93-2.76.53-6.27-1.41-8.45a6.92,6.92,0,0,0-3.79-1.73l-5.9-1.33c-2-.45-4.2-.89-6.09-.05-1.34.6-2.35,1.79-3.71,2.34A5.3,5.3,0,0,1,844.82,372.91Z"/><path class="cls-10" d="M925.87,512.46c-.86.16-1.74.19-2.6.34-7.22,1.3-3.75,14.24-1.78,18.53,1.12,2.45,2.78,4.85,5.29,5.84,4.33,1.71,9-1.37,13.65-1.69,1.45-.11,3,.06,4.31-.55,1.65-.75,2.57-2.5,3.38-4.12.94-1.92,1.92-4.06,1.34-6.12-.33-1.18-1.13-2.17-1.52-3.34-.92-2.76.53-6.27-1.4-8.44a7,7,0,0,0-3.8-1.74l-5.89-1.32c-2-.46-4.21-.9-6.1-.05-1.33.6-2.35,1.78-3.7,2.33A5.45,5.45,0,0,1,925.87,512.46Z"/><path class="cls-10" d="M1013.15,525.74c-.85.16-1.74.19-2.6.34-7.22,1.29-3.75,14.24-1.78,18.53,1.12,2.44,2.78,4.84,5.29,5.83,4.33,1.71,9-1.37,13.65-1.69,1.45-.1,3,.06,4.31-.54,1.65-.76,2.57-2.5,3.38-4.13.94-1.91,1.92-4.05,1.34-6.11-.33-1.18-1.13-2.18-1.52-3.34-.92-2.76.53-6.27-1.4-8.45a7,7,0,0,0-3.8-1.73l-5.89-1.33c-2-.45-4.21-.89-6.1,0-1.33.6-2.35,1.79-3.7,2.34A5.45,5.45,0,0,1,1013.15,525.74Z"/><path class="cls-10" d="M752.51,454.82c-.85.16-1.74.19-2.6.34-7.22,1.29-3.74,14.24-1.78,18.53,1.12,2.45,2.79,4.85,5.29,5.83,4.33,1.72,9-1.37,13.65-1.69,1.46-.1,3,.07,4.32-.54,1.65-.75,2.57-2.5,3.37-4.12,1-1.92,1.92-4.06,1.35-6.12-.33-1.18-1.14-2.18-1.52-3.34-.92-2.76.53-6.27-1.41-8.44a6.86,6.86,0,0,0-3.79-1.74l-5.9-1.32c-2-.46-4.2-.9-6.09,0-1.34.6-2.35,1.78-3.71,2.33A5.3,5.3,0,0,1,752.51,454.82Z"/><path class="cls-10" d="M993.2,467.94c-.85.16-1.74.19-2.6.34-7.22,1.29-3.74,14.24-1.78,18.53,1.12,2.45,2.79,4.84,5.29,5.83,4.33,1.71,9-1.37,13.65-1.69,1.46-.1,3,.07,4.31-.54,1.65-.76,2.57-2.5,3.38-4.12.95-1.92,1.92-4.06,1.34-6.12-.32-1.18-1.13-2.18-1.52-3.34-.92-2.76.54-6.27-1.4-8.45a7,7,0,0,0-3.8-1.73l-5.89-1.33c-2-.45-4.21-.89-6.09,0-1.34.6-2.36,1.78-3.71,2.33A5.45,5.45,0,0,1,993.2,467.94Z"/><path class="cls-10" d="M678.17,507.56c-.66.12-1.35.14-2,.26-5.58,1-2.9,11-1.38,14.33.87,1.89,2.16,3.75,4.09,4.51,3.35,1.32,7-1.06,10.56-1.31a9.3,9.3,0,0,0,3.34-.42,6.3,6.3,0,0,0,2.61-3.18c.73-1.49,1.48-3.14,1-4.74-.26-.91-.88-1.68-1.18-2.58-.71-2.13.41-4.85-1.08-6.53a5.33,5.33,0,0,0-2.94-1.34l-4.56-1c-1.56-.36-3.25-.7-4.71,0-1,.46-1.82,1.38-2.87,1.8A4.74,4.74,0,0,1,678.17,507.56Z"/><path class="cls-10" d="M652.41,535.76c.17.65.25,1.33.42,2,1.46,5.49,11.22,2,14.4.21a8.32,8.32,0,0,0,4.16-4.45c1-3.45-1.63-6.85-2.17-10.42a9.57,9.57,0,0,0-.69-3.29c-.68-1.22-2.09-1.82-3.39-2.34-1.54-.61-3.25-1.22-4.8-.65-.89.33-1.6,1-2.47,1.38-2.07.89-4.87,0-6.43,1.62a5.34,5.34,0,0,0-1.09,3l-.65,4.62c-.23,1.59-.43,3.3.35,4.7.54,1,1.52,1.7,2,2.71A4.76,4.76,0,0,1,652.41,535.76Z"/><path class="cls-10" d="M564.67,583.84c.18.65.26,1.33.43,2,1.45,5.48,11.21,2,14.39.2a8.23,8.23,0,0,0,4.16-4.44c1.05-3.45-1.62-6.86-2.16-10.42a9.57,9.57,0,0,0-.69-3.29,6.3,6.3,0,0,0-3.39-2.34c-1.54-.61-3.25-1.22-4.8-.65-.89.33-1.61,1-2.48,1.38-2.07.89-4.87,0-6.42,1.62a5.35,5.35,0,0,0-1.1,3l-.65,4.63c-.22,1.58-.42,3.3.35,4.7.55,1,1.52,1.7,2,2.71A4,4,0,0,1,564.67,583.84Z"/><path class="cls-10" d="M538,593.23c.18.65.25,1.34.43,2,1.45,5.48,11.21,2,14.39.2,1.81-1,3.56-2.45,4.16-4.45,1-3.44-1.62-6.85-2.16-10.41a9.26,9.26,0,0,0-.7-3.29,6.23,6.23,0,0,0-3.39-2.34c-1.53-.61-3.25-1.22-4.8-.65-.89.33-1.6,1-2.47,1.38-2.07.89-4.87,0-6.42,1.62a5.28,5.28,0,0,0-1.1,3l-.65,4.63c-.22,1.58-.42,3.3.35,4.7.54,1,1.52,1.7,2,2.71A4.07,4.07,0,0,1,538,593.23Z"/><path class="cls-10" d="M471,576.62c.67,0,1.35.07,2,.06,5.67-.11,4.59-10.42,3.61-13.93a8.27,8.27,0,0,0-3.33-5.1c-3.1-1.84-7,0-10.63-.37a9.52,9.52,0,0,0-3.36-.11,6.19,6.19,0,0,0-3.08,2.74c-1,1.35-2,2.86-1.77,4.51.1.94.6,1.79.75,2.73.37,2.22-1.17,4.72.05,6.62a5.29,5.29,0,0,0,2.69,1.78l4.33,1.74c1.49.59,3.11,1.19,4.65.77,1.1-.29,2-1.07,3.12-1.33A4.93,4.93,0,0,1,471,576.62Z"/><path class="cls-10" d="M824.78,423.51c.4.77.68,1.62,1.07,2.4,3.31,6.54,14.72-.49,18.27-3.59,2-1.78,3.84-4.06,4.08-6.74.4-4.64-3.89-8.24-5.53-12.6-.51-1.37-.79-2.88-1.75-4-1.19-1.36-3.13-1.75-4.92-2.05-2.1-.36-4.43-.68-6.24.46-1,.65-1.76,1.7-2.77,2.41-2.38,1.67-6.16,1.28-7.69,3.76a6.89,6.89,0,0,0-.57,4.13l.41,6c.14,2.06.34,4.28,1.69,5.85,1,1.11,2.38,1.75,3.3,2.89A5.26,5.26,0,0,1,824.78,423.51Z"/><path class="cls-10" d="M424.21,136.17c-.43.08-.89.1-1.32.18-3.68.65-1.91,7.24-.91,9.42a5.43,5.43,0,0,0,2.69,3c2.21.88,4.59-.69,6.95-.86a6.22,6.22,0,0,0,2.2-.27,4.06,4.06,0,0,0,1.71-2.1,4.53,4.53,0,0,0,.69-3.12c-.17-.6-.58-1.1-.77-1.69-.47-1.41.27-3.2-.72-4.3a3.44,3.44,0,0,0-1.93-.88l-3-.68a4.91,4.91,0,0,0-3.1,0c-.68.3-1.2.9-1.89,1.18A2.43,2.43,0,0,1,424.21,136.17Z"/><path class="cls-10" d="M293.17,147.26c-.44.08-.89.1-1.33.18-3.67.65-1.9,7.24-.9,9.42a5.43,5.43,0,0,0,2.69,3c2.21.88,4.58-.69,6.95-.86a6.14,6.14,0,0,0,2.19-.27,4.13,4.13,0,0,0,1.72-2.1,4.58,4.58,0,0,0,.69-3.12c-.17-.6-.58-1.1-.78-1.69-.47-1.41.27-3.2-.71-4.3a3.44,3.44,0,0,0-1.93-.88l-3-.68a4.94,4.94,0,0,0-3.11,0c-.67.3-1.19.9-1.88,1.18A2.56,2.56,0,0,1,293.17,147.26Z"/><path class="cls-10" d="M588,147.26c-.44.08-.89.1-1.33.18-3.67.65-1.9,7.24-.9,9.42a5.43,5.43,0,0,0,2.69,3c2.21.88,4.58-.69,6.95-.86a6.14,6.14,0,0,0,2.19-.27,4.13,4.13,0,0,0,1.72-2.1,4.58,4.58,0,0,0,.69-3.12c-.17-.6-.58-1.1-.78-1.69-.47-1.41.27-3.2-.71-4.3a3.44,3.44,0,0,0-1.93-.88l-3-.68a4.94,4.94,0,0,0-3.11,0c-.68.3-1.19.9-1.88,1.18A2.7,2.7,0,0,1,588,147.26Z"/><path class="cls-10" d="M570.47,106.64c-.44.08-.89.1-1.33.17-3.67.66-1.9,7.25-.9,9.43a5.43,5.43,0,0,0,2.69,3c2.21.87,4.58-.69,7-.86a6.46,6.46,0,0,0,2.2-.27,4.2,4.2,0,0,0,1.71-2.1,4.58,4.58,0,0,0,.69-3.12c-.17-.6-.58-1.1-.78-1.69-.47-1.41.27-3.2-.71-4.3a3.53,3.53,0,0,0-1.93-.89l-3-.67a5,5,0,0,0-3.1,0c-.68.31-1.2.91-1.89,1.19A3.15,3.15,0,0,1,570.47,106.64Z"/><path class="cls-10" d="M630.46,41.51c-.44.08-.89.09-1.33.17-3.67.66-1.9,7.25-.9,9.43a5.39,5.39,0,0,0,2.69,3c2.2.87,4.58-.7,7-.86a6.14,6.14,0,0,0,2.19-.28,4.09,4.09,0,0,0,1.72-2.1,4.48,4.48,0,0,0,.68-3.11c-.16-.6-.57-1.11-.77-1.7-.47-1.4.27-3.19-.71-4.3a3.58,3.58,0,0,0-1.94-.88l-3-.67a4.94,4.94,0,0,0-3.11,0c-.68.31-1.19.91-1.88,1.19A3.38,3.38,0,0,1,630.46,41.51Z"/><path class="cls-10" d="M324.82,246.53c-.44.08-.89.09-1.33.17-3.67.66-1.9,7.25-.9,9.43a5.49,5.49,0,0,0,2.69,3c2.21.87,4.58-.7,7-.86a6.14,6.14,0,0,0,2.19-.28,4.09,4.09,0,0,0,1.72-2.1,4.54,4.54,0,0,0,.69-3.11c-.17-.6-.58-1.11-.78-1.7-.47-1.4.27-3.19-.71-4.3a3.51,3.51,0,0,0-1.93-.88l-3-.68a5,5,0,0,0-3.1,0c-.68.3-1.2.91-1.89,1.19A3.15,3.15,0,0,1,324.82,246.53Z"/><path class="cls-9" d="M402.72,245c-.45,0-.9,0-1.34,0a2.09,2.09,0,0,0-1.58,1.36c-.33,1,.16,2.14-.14,3.15-.17.59-.6,1.18-.39,1.75a3.66,3.66,0,0,0,.46.72c.53.87.08,2.12.69,2.92.32.42.88.64,1.11,1.11a6.76,6.76,0,0,0,.31.93c.35.52,1.11.45,1.73.51s1,.22,1.48.28c1.88.22,3.6-1.18,5.48-1.23.81,0,1.7.18,2.35-.29s.74-1.6,1.14-2.41,1.06-1.35,1-2.14-.86-1.27-1.1-2a4.2,4.2,0,0,1,0-1.62,4.28,4.28,0,0,0-.45-2.47,2.84,2.84,0,0,0-2-1.46c-.55-.09-1.13,0-1.69,0-1-.12-1.9-.81-2.91-.83a4.59,4.59,0,0,0-1.9.5C404.16,244.07,403.61,244.9,402.72,245Z"/><path class="cls-9" d="M392.66,256.6c-.45,0-.9,0-1.34,0a2.07,2.07,0,0,0-1.58,1.36c-.33,1,.16,2.13-.14,3.15-.17.58-.6,1.17-.39,1.75a4,4,0,0,0,.46.72c.53.87.08,2.11.69,2.92.32.42.88.64,1.11,1.11a7.24,7.24,0,0,0,.31.93c.34.52,1.11.45,1.73.51s1,.22,1.48.28c1.88.22,3.6-1.18,5.48-1.23.81,0,1.7.18,2.35-.29s.74-1.6,1.14-2.42,1.06-1.34,1-2.13-.86-1.27-1.1-2a4.2,4.2,0,0,1,0-1.62,4.26,4.26,0,0,0-.45-2.46,2.83,2.83,0,0,0-2-1.47c-.56-.09-1.13,0-1.69,0-1-.12-1.9-.81-2.91-.84a4.6,4.6,0,0,0-1.9.51C394.1,255.71,393.55,256.54,392.66,256.6Z"/><path class="cls-9" d="M402.72,374.33a10,10,0,0,0-1.34,0,2.05,2.05,0,0,0-1.58,1.36c-.33,1,.16,2.13-.14,3.14-.17.59-.6,1.18-.39,1.76a3.59,3.59,0,0,0,.46.71c.53.87.08,2.12.69,2.93.32.41.88.63,1.11,1.11a7.1,7.1,0,0,0,.31.92c.35.53,1.11.45,1.73.51s1,.22,1.48.28c1.88.22,3.6-1.17,5.48-1.22.81,0,1.7.18,2.35-.29s.74-1.61,1.14-2.42,1.06-1.34,1-2.14-.86-1.26-1.1-2a4.2,4.2,0,0,1,0-1.62,4.28,4.28,0,0,0-.45-2.47,2.84,2.84,0,0,0-2-1.46c-.55-.09-1.13,0-1.69,0-1-.12-1.9-.81-2.91-.84a4.6,4.6,0,0,0-1.9.51C404.16,373.44,403.61,374.27,402.72,374.33Z"/><path class="cls-9" d="M371,206.07a12,12,0,0,0-1.34,0,2.05,2.05,0,0,0-1.58,1.36c-.32,1,.16,2.13-.13,3.14-.18.59-.61,1.18-.4,1.76a4.68,4.68,0,0,0,.47.72c.52.86.07,2.11.69,2.92.32.42.87.64,1.1,1.11a7.8,7.8,0,0,0,.31.93c.35.52,1.11.44,1.73.5s1,.23,1.49.28c1.87.22,3.59-1.17,5.48-1.22.8,0,1.69.18,2.34-.29s.75-1.61,1.15-2.42,1.05-1.34,1-2.13-.86-1.27-1.1-2a4,4,0,0,1,0-1.62,4.38,4.38,0,0,0-.46-2.47,2.85,2.85,0,0,0-2-1.46c-.56-.09-1.13,0-1.69,0-1-.12-1.9-.81-2.92-.84a4.6,4.6,0,0,0-1.9.51C372.43,205.18,371.88,206,371,206.07Z"/><path class="cls-9" d="M405.16,148.12c-.45,0-.9,0-1.34,0a2.07,2.07,0,0,0-1.58,1.36c-.33,1,.16,2.13-.14,3.15-.17.59-.6,1.17-.39,1.75a4,4,0,0,0,.46.72c.53.87.08,2.11.69,2.92.32.42.88.64,1.11,1.11a6.76,6.76,0,0,0,.31.93c.35.52,1.11.45,1.73.51s1,.22,1.48.28c1.88.22,3.6-1.18,5.48-1.23.81,0,1.7.18,2.35-.29s.74-1.6,1.14-2.42,1.06-1.34,1-2.13-.86-1.27-1.1-2a4.2,4.2,0,0,1,0-1.62,4.26,4.26,0,0,0-.45-2.46,2.83,2.83,0,0,0-2-1.47c-.56-.08-1.13,0-1.69,0-1-.12-1.9-.81-2.91-.84a4.76,4.76,0,0,0-1.9.51C406.6,147.23,406.05,148.06,405.16,148.12Z"/><path class="cls-9" d="M372.66,27.79a10,10,0,0,0-1.34,0,2.05,2.05,0,0,0-1.58,1.36c-.32,1,.16,2.13-.13,3.14-.18.59-.61,1.18-.4,1.75a4.24,4.24,0,0,0,.47.72c.52.87.07,2.12.69,2.93.32.41.87.63,1.1,1.11a7.1,7.1,0,0,0,.31.92c.35.52,1.11.45,1.73.51s1,.22,1.49.28c1.87.22,3.59-1.17,5.48-1.22.8,0,1.69.18,2.34-.29s.75-1.61,1.15-2.42,1-1.34,1-2.14-.86-1.26-1.1-2a4,4,0,0,1,0-1.62,4.37,4.37,0,0,0-.46-2.47,2.85,2.85,0,0,0-2-1.46c-.56-.09-1.13,0-1.69,0-1-.12-1.9-.81-2.92-.84a4.6,4.6,0,0,0-1.9.51C374.1,26.9,373.55,27.73,372.66,27.79Z"/><path class="cls-9" d="M285.16,193.19a10,10,0,0,0-1.34,0,2.05,2.05,0,0,0-1.58,1.36c-.33,1,.16,2.13-.14,3.14-.17.59-.6,1.18-.39,1.76a3.59,3.59,0,0,0,.46.71c.53.87.08,2.12.69,2.93.32.41.88.63,1.1,1.11.15.29.14.65.32.92.34.53,1.11.45,1.73.51s1,.22,1.48.28c1.88.22,3.6-1.17,5.48-1.22.81,0,1.7.18,2.35-.29s.74-1.61,1.14-2.42,1.06-1.34,1-2.14-.86-1.26-1.1-2a4,4,0,0,1,0-1.62,4.28,4.28,0,0,0-.45-2.47,2.84,2.84,0,0,0-2-1.46c-.56-.09-1.13,0-1.69,0-1-.12-1.9-.81-2.91-.84a4.6,4.6,0,0,0-1.9.51C286.6,192.3,286.05,193.13,285.16,193.19Z"/></g><path class="cls-11" d="M620,359.54c1.55,9.36,31,21.88,31,21.88l99.35-136.21,42.82-56.79-29.34-26.74S610,299.2,620,359.54Z"/><g id="Labels"><text class="cls-12" transform="translate(896.41 412.67) rotate(-40.08)">Castle<tspan class="cls-13" x="30.57" y="0">r</tspan><tspan x="34.18" y="0">eagh </tspan><tspan class="cls-14" x="60.69" y="0">R</tspan><tspan x="67.29" y="0">i</tspan><tspan class="cls-15" x="69.84" y="0">v</tspan><tspan x="75.15" y="0">e</tspan><tspan class="cls-16" x="81.14" y="0">r</tspan></text><text class="cls-17" transform="translate(270.74 543.78) rotate(4.94)"><tspan class="cls-15">(</tspan><tspan class="cls-18" x="2.92" y="0">O</tspan><tspan class="cls-19" x="10.4" y="0">xl</tspan><tspan class="cls-20" x="18.88" y="0">e</tspan><tspan class="cls-21" x="24.73" y="0">y</tspan><tspan x="29.96" y="0" xml:space="preserve"> Hig</tspan><tspan class="cls-20" x="48.7" y="0">h</tspan><tspan class="cls-22" x="54.6" y="0">wa</tspan><tspan class="cls-23" x="68.47" y="0">y</tspan><tspan class="cls-19" x="73.82" y="0">)</tspan></text><text class="cls-17" transform="translate(356.18 549.42) rotate(3.84)"><tspan class="cls-24">W</tspan><tspan class="cls-25" x="10.03" y="0">ar</tspan><tspan class="cls-13" x="19.64" y="0">r</tspan><tspan x="23.25" y="0">en </tspan><tspan class="cls-23" x="37.68" y="0">R</tspan><tspan class="cls-19" x="44.18" y="0">oad </tspan></text><text class="cls-17" transform="matrix(0.78, 0.62, -0.62, 0.78, 818.66, 218.84)">Bridge <tspan class="cls-26" x="34.4" y="0">S</tspan><tspan x="40.47" y="0">t</tspan><tspan class="cls-13" x="44.31" y="0">r</tspan><tspan x="47.92" y="0">e</tspan><tspan class="cls-27" x="53.91" y="0">e</tspan><tspan x="59.86" y="0">t </tspan></text><text class="cls-17" transform="translate(790.99 151.77) rotate(-55.87)">Mille<tspan class="cls-16" x="23.53" y="0">r</tspan><tspan x="27.16" y="0"> </tspan><tspan class="cls-26" x="29.56" y="0">S</tspan><tspan x="35.63" y="0">t</tspan><tspan class="cls-13" x="39.47" y="0">r</tspan><tspan x="43.08" y="0">e</tspan><tspan class="cls-27" x="49.07" y="0">e</tspan><tspan x="55.02" y="0">t </tspan></text><text class="cls-17" transform="matrix(0.58, -0.81, 0.81, 0.58, 439.78, 172.56)"><tspan class="cls-28">M</tspan><tspan x="8.58" y="0">orris </tspan><tspan class="cls-29" x="32.3" y="0">S</tspan><tspan class="cls-25" x="38.37" y="0">t</tspan><tspan class="cls-30" x="42.21" y="0">r</tspan><tspan x="45.82" y="0">e</tspan><tspan class="cls-27" x="51.81" y="0">e</tspan><tspan x="57.76" y="0">t </tspan></text><text class="cls-17" transform="matrix(0.61, -0.79, 0.79, 0.61, 550.84, 255.7)"><tspan class="cls-31">L</tspan><tspan x="5.63" y="0">en </tspan><tspan class="cls-32" x="20.06" y="0">K</tspan><tspan x="26.49" y="0">el</tspan><tspan class="cls-33" x="35.65" y="0">l</tspan><tspan class="cls-34" x="38.71" y="0">y</tspan><tspan x="43.94" y="0" xml:space="preserve"> Dri</tspan><tspan class="cls-15" x="59.92" y="0">v</tspan><tspan x="65.23" y="0">e</tspan></text></g></g></svg>