<?xml version="1.0" encoding="utf-8"?>
<!-- Generator: Adobe Illustrator 23.0.4, SVG Export Plug-In . SVG Version: 6.00 Build 0)  -->
<svg version="1.1" id="Layer_1" xmlns="http://www.w3.org/2000/svg" xmlns:xlink="http://www.w3.org/1999/xlink" x="0px" y="0px"
	 viewBox="0 0 3352.2 2465.8" style="enable-background:new 0 0 3352.2 2465.8;" xml:space="preserve">
<style type="text/css">
	.st0{opacity:0.68;}
	.st1{opacity:0.56;}
	.st2{fill:#FFFFFF;stroke:#E15C80;stroke-miterlimit:10;}
	.st3{fill:#E15C80;}
	.st4{fill:none;stroke:#FFFFFF;stroke-width:0.57;stroke-miterlimit:10;}
	.st5{fill:#FFFFFF;}
	.st6{opacity:0.5;fill:#FFFFFF;stroke:#F49231;stroke-miterlimit:10;enable-background:new    ;}
	.st7{fill:#F49231;}
	.st8{opacity:0.54;}
	.st9{opacity:0.55;}
	.st10{opacity:0.5;}
	.st11{fill:#FFFFFF;stroke:#6555A0;stroke-miterlimit:10;}
	.st12{fill:#6555A0;}
</style>
<title>Asset 3</title>
<g>
	<g id="Map_3">
		<g class="st0">
			
				<image style="overflow:visible;enable-background:new    ;" width="2670" height="1384" xlink:href="../0711Gilgandra_Wireframes_Folder/Links/1.jpg"  transform="matrix(0.72 0 0 0.72 1722.13 1472.8439)">
			</image>
			
				<image style="overflow:visible;enable-background:new    ;" width="2662" height="1378" xlink:href="../0711Gilgandra_Wireframes_Folder/Links/2.jpg"  transform="matrix(0.72 0 0 0.72 -31.63 1460.7339)">
			</image>
			
				<image style="overflow:visible;enable-background:new    ;" width="2666" height="1384" xlink:href="../0711Gilgandra_Wireframes_Folder/Links/3.jpg"  transform="matrix(0.72 0 0 0.72 0 763.5339)">
			</image>
			
				<image style="overflow:visible;enable-background:new    ;" width="2664" height="1356" xlink:href="../0711Gilgandra_Wireframes_Folder/Links/4.jpg"  transform="matrix(0.72 0 0 0.72 -55.74 -77.1561)">
			</image>
			
				<image style="overflow:visible;enable-background:new    ;" width="2676" height="1366" xlink:href="../0711Gilgandra_Wireframes_Folder/Links/5.jpg"  transform="matrix(0.72 0 0 0.72 1461.03 -106.6461)">
			</image>
			
				<image style="overflow:visible;enable-background:new    ;" width="2660" height="1358" xlink:href="../0711Gilgandra_Wireframes_Folder/Links/6.jpg"  transform="matrix(0.72 0 0 0.72 1443.76 657.184)">
			</image>
		</g>
		<g id="_43-45_Miller_St">
			<g id="LWPOLYLINE" class="st1">
				<polygon class="st2" points="2456.7,1028.1 2421.1,1076.8 2309.6,995.2 2349.9,940.4 2367.6,916.1 2469.7,986.4 2481.3,994.4 
					2461.3,1021.8 				"/>
			</g>
			<circle class="st3" cx="2398" cy="996.4" r="17.7"/>
			<circle class="st4" cx="2398" cy="996.4" r="16.1"/>
			<path class="st5" d="M2404.8,990.7h-1.8c-0.5,0-1-0.2-1.3-0.6l-0.5-0.6c-0.3-0.4-0.8-0.6-1.3-0.6h-3.9c-0.5,0-1,0.2-1.3,0.6
				l-0.5,0.6c-0.3,0.4-0.8,0.6-1.3,0.6h-1.8c-0.9,0-1.6,0.7-1.6,1.6v10.1c0,0.9,0.7,1.6,1.6,1.6l0,0h13.6c0.9,0,1.6-0.7,1.6-1.6l0,0
				v-10.1C2406.4,991.5,2405.7,990.8,2404.8,990.7C2404.8,990.7,2404.8,990.7,2404.8,990.7z M2398,1000.7c-2,0-3.7-1.6-3.7-3.6
				s1.6-3.7,3.6-3.7c2,0,3.7,1.6,3.7,3.6c0,0,0,0,0,0C2401.7,999,2400.1,1000.6,2398,1000.7C2398,1000.7,2398,1000.7,2398,1000.7z"
				/>
		</g>
		<g id="_10_Myrtle_St">
			<polygon class="st6" points="2121.1,856.1 2111.5,933.8 2139.6,936.1 2150.5,858.7 			"/>
			<circle class="st7" cx="2153" cy="908.4" r="17.7"/>
			<circle class="st4" cx="2153" cy="908.4" r="16.1"/>
			<path class="st5" d="M2159.8,902.7h-1.8c-0.5,0-1-0.2-1.3-0.6l-0.5-0.6c-0.3-0.4-0.8-0.6-1.3-0.6h-3.9c-0.5,0-1,0.2-1.3,0.6
				l-0.5,0.6c-0.3,0.4-0.8,0.6-1.3,0.6h-1.8c-0.9,0-1.6,0.7-1.6,1.6v10.1c0,0.9,0.7,1.6,1.6,1.6l0,0h13.6c0.9,0,1.6-0.7,1.6-1.6
				c0,0,0,0,0,0v-10.1C2161.4,903.5,2160.7,902.8,2159.8,902.7C2159.8,902.7,2159.8,902.7,2159.8,902.7z M2153,912.7
				c-2,0-3.7-1.6-3.7-3.6s1.6-3.7,3.6-3.7s3.7,1.6,3.7,3.6v0C2156.7,911,2155.1,912.6,2153,912.7C2153,912.7,2153,912.7,2153,912.7z
				"/>
		</g>
		<g id="_1_Warren_Rd">
			<polygon class="st6" points="1924.4,1425.8 1913.8,1504.1 1937.7,1506.2 1937.7,1500 1968.3,1503.3 1970.2,1484.3 1987.5,1485.3 
				1987.5,1494 2002.7,1495.2 2007,1442.2 			"/>
			<circle class="st7" cx="2003.8" cy="1443.1" r="17.7"/>
			
				<ellipse transform="matrix(0.1602 -0.9871 0.9871 0.1602 258.365 3189.7793)" class="st4" cx="2003.8" cy="1443.1" rx="16.1" ry="16.1"/>
			<path class="st5" d="M2010.5,1437.4h-1.9c-0.5,0-1-0.2-1.3-0.6l-0.5-0.6c-0.3-0.4-0.8-0.6-1.3-0.6h-3.9c-0.5,0-1,0.2-1.3,0.6
				l-0.5,0.6c-0.3,0.4-0.8,0.6-1.3,0.6h-1.9c-0.9,0-1.6,0.7-1.6,1.6v10.1c0,0.9,0.7,1.6,1.6,1.6h13.6c0.9,0,1.6-0.7,1.6-1.6v-10.1
				C2012.1,1438.1,2011.4,1437.4,2010.5,1437.4z M2003.8,1447.3c-2,0-3.7-1.6-3.7-3.6s1.6-3.7,3.6-3.7c2,0,3.7,1.6,3.7,3.6
				c0,0,0,0,0,0C2007.4,1445.6,2005.8,1447.3,2003.8,1447.3z"/>
		</g>
		<g id="Newell_Hwy">
			<polygon class="st6" points="1417.7,1576.4 1437.1,1622 1531.4,1582.4 1510.3,1535.7 			"/>
			<circle class="st7" cx="1529.2" cy="1578.9" r="17.7"/>
			<circle class="st4" cx="1529.2" cy="1578.9" r="16.1"/>
			<path class="st5" d="M1536,1573.2h-1.8c-0.5,0-1-0.2-1.3-0.6l-0.5-0.6c-0.3-0.4-0.8-0.6-1.3-0.6h-3.9c-0.5,0-1,0.2-1.3,0.6
				l-0.5,0.6c-0.3,0.4-0.8,0.6-1.3,0.6h-1.8c-0.9,0-1.6,0.7-1.6,1.6v10.1c0,0.9,0.7,1.6,1.6,1.6h13.6c0.9,0,1.6-0.7,1.6-1.6v-10.1
				C1537.6,1573.9,1536.9,1573.2,1536,1573.2z M1529.2,1583.1c-2,0-3.7-1.6-3.7-3.7c0-2,1.6-3.7,3.7-3.7c2,0,3.7,1.6,3.7,3.7
				C1532.9,1581.4,1531.3,1583,1529.2,1583.1L1529.2,1583.1z"/>
		</g>
		<g id="_30-32_Miller_St">
			<g id="LWPOLYLINE-2" class="st8">
				<polygon class="st2" points="2668.6,1204.2 2658,1218.6 2636.8,1203.7 2637.4,1202.7 2585,1164.7 2592.9,1153.9 2597.9,1147.3 
					2660.2,1192.7 2673.6,1197.2 				"/>
			</g>
			<circle class="st3" cx="2629.4" cy="1182.9" r="17.7"/>
			<circle class="st4" cx="2629.4" cy="1182.9" r="16.1"/>
			<path class="st5" d="M2636.1,1177.3h-1.9c-0.5,0-1-0.2-1.3-0.6l-0.5-0.6c-0.3-0.4-0.8-0.6-1.3-0.6h-3.9c-0.5,0-1,0.2-1.3,0.6
				l-0.5,0.6c-0.3,0.4-0.8,0.6-1.3,0.6h-1.8c-0.9,0-1.6,0.7-1.6,1.6v10.1c0,0.9,0.7,1.6,1.6,1.6l0,0h13.6c0.9,0,1.6-0.7,1.6-1.6l0,0
				v-10.1C2637.7,1178,2637,1177.3,2636.1,1177.3z M2629.4,1187.2c-2,0-3.7-1.6-3.7-3.6s1.6-3.7,3.6-3.7c2,0,3.7,1.6,3.7,3.6
				c0,0,0,0,0,0C2633,1185.5,2631.4,1187.2,2629.4,1187.2C2629.4,1187.2,2629.4,1187.2,2629.4,1187.2z"/>
		</g>
		<g id="_1_Warren_Rd-2">
			<g id="LWPOLYLINE-3" class="st9">
				<polygon class="st2" points="2599.1,1290.2 2567.9,1332.4 2499.2,1281.7 2530.2,1239.3 				"/>
			</g>
			<circle class="st3" cx="2549.2" cy="1285.8" r="17.7"/>
			<circle class="st4" cx="2549.2" cy="1285.8" r="16.1"/>
			<path class="st5" d="M2555.9,1280.1h-1.9c-0.5,0-1-0.2-1.3-0.6l-0.5-0.6c-0.3-0.4-0.8-0.6-1.3-0.6h-3.8c-0.5,0-1,0.2-1.3,0.6
				l-0.5,0.6c-0.3,0.4-0.8,0.6-1.3,0.6h-1.9c-0.9,0-1.6,0.7-1.6,1.6l0,0v10.1c0,0.9,0.7,1.6,1.6,1.6h13.6c0.9,0,1.6-0.7,1.6-1.6
				v-10.1C2557.6,1280.8,2556.8,1280.1,2555.9,1280.1C2556,1280.1,2555.9,1280.1,2555.9,1280.1z M2549.2,1290c-2,0-3.7-1.6-3.7-3.6
				s1.6-3.7,3.6-3.7c2,0,3.7,1.6,3.7,3.6c0,0,0,0,0,0C2552.8,1288.4,2551.2,1290,2549.2,1290C2549.2,1290,2549.2,1290,2549.2,1290
				L2549.2,1290z"/>
		</g>
		<g id="Court_St_Elizabeth_St">
			<g class="st10">
				<polygon class="st11" points="1484.6,262.7 1478.9,307.9 1509.5,311.2 1515.8,265.6 				"/>
				<polygon class="st11" points="1477.4,311.2 1471.6,356.4 1502.3,359.7 1508.5,314.1 				"/>
				<polygon class="st11" points="1582.5,198.4 1577.5,236.7 1700.1,251 1702.6,224.7 1611,215.5 1612.2,201.8 				"/>
				<polygon class="st11" points="1586.8,250.1 1562.9,402.5 1670.6,417.7 1687,260.9 1663.5,258.3 1650.9,344.2 1596,336.4 
					1609.6,252.7 				"/>
				<polygon class="st11" points="1579.7,256.9 1575.4,294.9 1516.8,288.5 1521.2,251 				"/>
				<polygon class="st11" points="1471.3,389.6 1465,436.9 1530.4,445.9 1538.1,400 				"/>
				<polygon class="st11" points="1514.7,354.2 1510.5,378.3 1559.4,386.5 1562.9,362 				"/>
			</g>
			<circle class="st12" cx="1604.4" cy="368.9" r="17.7"/>
			<circle class="st4" cx="1604.4" cy="368.9" r="16.1"/>
			<path class="st5" d="M1611.2,363.2h-1.8c-0.5,0-1-0.2-1.3-0.6l-0.5-0.6c-0.3-0.4-0.8-0.6-1.3-0.6h-3.9c-0.5,0-1,0.2-1.3,0.6
				l-0.5,0.6c-0.3,0.4-0.8,0.6-1.3,0.6h-1.8c-0.9,0-1.6,0.7-1.6,1.6v10.1c0,0.9,0.7,1.6,1.6,1.6h13.6c0.9,0,1.6-0.7,1.6-1.6v-10.1
				C1612.8,363.9,1612,363.2,1611.2,363.2z M1604.4,373.1c-2,0-3.7-1.6-3.7-3.7c0-2,1.6-3.6,3.7-3.6c2,0,3.7,1.6,3.7,3.6
				S1606.4,373.1,1604.4,373.1L1604.4,373.1z"/>
		</g>
		<g id="_20_Wrigley_St">
			<g class="st10">
				<polygon class="st11" points="1052.7,241.4 1046.3,304.1 1065.9,305.6 1061,350.7 1114.4,356.8 1123.7,293.9 1067.9,287.8 
					1072.8,243.4 				"/>
				<polygon class="st11" points="1046.3,360.7 1074.9,363 1073.9,379 1116.4,383.5 1128.2,299.1 1151.7,301.7 1131.3,452.5 
					1080.4,447.2 1079.8,454.3 1050.2,452.1 1050.5,443.7 1046.3,443.4 1046.3,434.9 1030.8,434 1032.9,401.6 1040.2,402.2 				"/>
				<polygon class="st11" points="1156.3,421.4 1153.6,450.1 1166.2,451.5 1165.1,465.3 1185.2,467.7 1186.3,455.1 1201.3,456.7 
					1204,426.5 1193.6,425.3 1194,418.1 1169.9,416.1 1169.4,422.7 				"/>
			</g>
			<circle class="st12" cx="1109.4" cy="396.9" r="17.7"/>
			<circle class="st4" cx="1109.4" cy="396.9" r="16.1"/>
			<path class="st5" d="M1116.2,391.2h-1.8c-0.5,0-1-0.2-1.3-0.6l-0.5-0.6c-0.3-0.4-0.8-0.6-1.3-0.6h-3.9c-0.5,0-1,0.2-1.3,0.6
				l-0.5,0.6c-0.3,0.4-0.8,0.6-1.3,0.6h-1.8c-0.9,0-1.6,0.7-1.6,1.6v10.1c0,0.9,0.7,1.6,1.6,1.6h13.6c0.9,0,1.6-0.7,1.6-1.6v-10.1
				C1117.8,391.9,1117,391.2,1116.2,391.2z M1109.4,401.1c-2,0-3.7-1.6-3.7-3.7c0-2,1.6-3.6,3.7-3.6c2,0,3.7,1.6,3.7,3.6
				S1111.4,401.1,1109.4,401.1L1109.4,401.1z"/>
		</g>
		<g id="_15_Warren_Rd">
			<polygon class="st6" points="936,1321.1 932.2,1356.9 936,1357.3 934.5,1369.5 946.3,1370.7 945.6,1380.1 957.1,1380.7 
				957.1,1388.7 985,1390.6 985.7,1379 995.9,1379.2 995.9,1386.7 1009.5,1386.9 1010.2,1372.1 1010.5,1365.4 1044.2,1368.2 
				1044.2,1372.1 1082,1374.6 1082.3,1364.5 1143.8,1368.5 1146.8,1327.8 1053.4,1319.1 1051.6,1335.6 			"/>
			<circle class="st7" cx="1146.8" cy="1328.2" r="17.7"/>
			<circle class="st4" cx="1146.8" cy="1328.2" r="16.1"/>
			<path class="st5" d="M1153.6,1322.5h-1.8c-0.5,0-1-0.2-1.3-0.6l-0.5-0.6c-0.3-0.4-0.8-0.6-1.3-0.6h-3.9c-0.5,0-1,0.2-1.3,0.6
				l-0.5,0.6c-0.3,0.4-0.8,0.6-1.3,0.6h-1.8c-0.9,0-1.6,0.7-1.6,1.6v10.1c0,0.9,0.7,1.6,1.6,1.6h13.6c0.9,0,1.6-0.7,1.6-1.6v-10.1
				C1155.2,1323.2,1154.5,1322.5,1153.6,1322.5z M1146.8,1332.4c-2,0-3.7-1.6-3.7-3.7c0-2,1.6-3.7,3.7-3.7c2,0,3.7,1.6,3.7,3.7
				C1150.5,1330.8,1148.9,1332.4,1146.8,1332.4z"/>
		</g>
	</g>
</g>
</svg>
